SplineFontDB: 2.0
FontName: Hani
FullName: Hani
FamilyName: Hani
Weight: Book
Copyright: Typeface and data � 2003-2007, Arabeyes.org. Latin glyphs are based on "Free UCS Outline Fonts", www.nongnu.org/freefont. This font is distributed under the terms of GPL license with font embedding exception.
Version: 1.9
ItalicAngle: 0
UnderlinePosition: -187
UnderlineWidth: 116
Ascent: 1368
Descent: 432
Order2: 1
XUID: [1021 117 962472906 848818]
FSType: 4
OS2Version: 1
OS2_WeightWidthSlopeOnly: 0
OS2_UseTypoMetrics: 1
CreationTime: 994008416
ModificationTime: 1187167778
PfmFamily: 17
TTFWeight: 400
TTFWidth: 5
LineGap: 360
VLineGap: 0
Panose: 2 6 6 3 5 6 5 2 2 4
OS2TypoAscent: 0
OS2TypoAOffset: 1
OS2TypoDescent: 0
OS2TypoDOffset: 1
OS2TypoLinegap: 0
OS2WinAscent: -50
OS2WinAOffset: 1
OS2WinDescent: 26
OS2WinDOffset: 1
HheadAscent: -50
HheadAOffset: 1
HheadDescent: -26
HheadDOffset: 1
OS2SubXSize: 1187
OS2SubYSize: 1079
OS2SubXOff: 0
OS2SubYOff: -392
OS2SupXSize: 1187
OS2SupYSize: 1079
OS2SupXOff: 0
OS2SupYOff: 523
OS2StrikeYSize: 117
OS2StrikeYPos: 540
OS2FamilyClass: 2
OS2Vendor: 'PYRS'
Lookup: 4 1 1 "'liga' Standard Ligatures in Arabic lookup 2"  {"'liga' Standard Ligatures in Arabic lookup 2-1"  } ['liga' ('arab' <'dflt' > ) ]
Lookup: 3 0 0 "'aalt' Access All Alternates in Latin lookup 0"  {"'aalt' Access All Alternates in Latin lookup 0"  } ['aalt' ('latn' <'dflt' > ) ]
Lookup: 1 0 0 "'aalt' Access All Alternates in Latin lookup 1"  {"'aalt' Access All Alternates in Latin lookup 1"  } ['aalt' ('latn' <'dflt' > ) ]
Lookup: 1 1 0 "'init' Initial Forms in Arabic lookup 2"  {"'init' Initial Forms in Arabic lookup 2"  } ['init' ('arab' <'dflt' > ) ]
Lookup: 1 1 0 "'medi' Medial Forms in Arabic lookup 3"  {"'medi' Medial Forms in Arabic lookup 3"  } ['medi' ('arab' <'dflt' > ) ]
Lookup: 1 1 0 "'fina' Terminal Forms in Arabic lookup 4"  {"'fina' Terminal Forms in Arabic lookup 4"  } ['fina' ('arab' <'dflt' > ) ]

StartChar: exclam
Encoding: 33 33 3
Width: 500
GlyphClass: 2
Flags: W
HStem: 0 38G<223 374> 1277 36G<226 374>
VStem: 223 151<0 187>
Fore
374 1313 m 1,0,-1
 374 703 l 1,1,-1
 335 302 l 1,2,-1
 264 302 l 1,3,-1
 226 703 l 1,4,-1
 226 1313 l 1,5,-1
 374 1313 l 1,0,-1
374 187 m 1,6,-1
 374 0 l 1,7,-1
 223 0 l 1,8,-1
 223 187 l 1,9,-1
 374 187 l 1,6,-1
EndSplineSet
EndChar
StartChar: quotedbl
Encoding: 34 34 4
Width: 638
GlyphClass: 2
Flags: W
HStem: 1241 36G<94 262 382 550>
VStem: 94 168<1076 1277> 382 168<1076 1277>
Fore
94 1277 m 1,0,-1
 262 1277 l 1,1,-1
 262 1076 l 1,2,-1
 212 835 l 1,3,-1
 142 835 l 1,4,-1
 94 1076 l 1,5,-1
 94 1277 l 1,0,-1
382 1277 m 1,6,-1
 550 1277 l 1,7,-1
 550 1076 l 1,8,-1
 500 835 l 1,9,-1
 430 835 l 1,10,-1
 382 1076 l 1,11,-1
 382 1277 l 1,6,-1
EndSplineSet
EndChar
StartChar: numbersign
Encoding: 35 35 5
Width: 1000
GlyphClass: 2
Flags: W
HStem: -36 38G<139 276 500 637> 343 122<25 230 346 593 708 918> 780 122<91 310 425 672 785 976> 1219 36G<374 511 734 874>
Fore
874 1255 m 1,0,-1
 809 902 l 1,1,-1
 976 902 l 1,2,-1
 976 780 l 1,3,-1
 785 780 l 1,4,-1
 730 466 l 1,5,-1
 918 466 l 1,6,-1
 918 343 l 1,7,-1
 708 343 l 1,8,-1
 637 -36 l 1,9,-1
 500 -36 l 1,10,-1
 569 343 l 1,11,-1
 346 343 l 1,12,-1
 276 -36 l 1,13,-1
 139 -36 l 1,14,-1
 206 343 l 1,15,-1
 25 343 l 1,16,-1
 25 466 l 1,17,-1
 230 466 l 1,18,-1
 286 780 l 1,19,-1
 91 780 l 1,20,-1
 91 902 l 1,21,-1
 310 902 l 1,22,-1
 374 1255 l 1,23,-1
 511 1255 l 1,24,-1
 446 902 l 1,25,-1
 672 902 l 1,26,-1
 734 1255 l 1,27,-1
 874 1255 l 1,0,-1
648 780 m 1,28,-1
 425 780 l 1,29,-1
 367 466 l 1,30,-1
 593 466 l 1,31,-1
 648 780 l 1,28,-1
EndSplineSet
EndChar
StartChar: dollar
Encoding: 36 36 6
Width: 1000
GlyphClass: 2
Flags: W
VStem: 83 146<872 1032> 437 106<-227 -41 83 572 715 1163 1289 1386> 785 148<236 497>
Fore
932 350 m 0,0,1
 932 177 932 177 832 74.5 c 0,2,3
 732 -28 732 -28 544 -41 c 1,4,-1
 544 -227 l 1,5,-1
 437 -227 l 1,6,-1
 437 -41 l 1,7,8
 255 -29 255 -29 157.5 70.5 c 0,9,10
 60 170 60 170 60 343 c 2,11,-1
 60 374 l 1,12,-1
 202 374 l 1,13,14
 204 344 204 344 205.5 332.5 c 0,15,16
 207 321 207 321 211 292 c 0,17,18
 215 263 215 263 219.5 250 c 0,19,20
 224 237 224 237 233 212.5 c 0,21,22
 242 188 242 188 253 175.5 c 0,23,24
 264 163 264 163 281.5 145 c 0,25,26
 299 127 299 127 321 117 c 0,27,28
 343 107 343 107 372.5 97.5 c 0,29,30
 402 88 402 88 437 83 c 1,31,-1
 437 572 l 1,32,33
 336 603 336 603 290.5 621.5 c 0,34,35
 245 640 245 640 211 666 c 0,36,37
 83 758 83 758 83 929 c 0,38,39
 83 1083 83 1083 173.5 1175 c 0,40,41
 264 1267 264 1267 437 1289 c 1,42,-1
 437 1386 l 1,43,-1
 544 1386 l 1,44,-1
 544 1289 l 1,45,46
 707 1276 707 1276 800 1182 c 0,47,48
 893 1088 893 1088 893 934 c 1,49,-1
 751 934 l 1,50,51
 750 1033 750 1033 692.5 1095.5 c 0,52,53
 635 1158 635 1158 544 1163 c 1,54,-1
 544 715 l 1,55,56
 555 712 555 712 591 702 c 0,57,58
 627 692 627 692 651 685 c 0,59,60
 675 678 675 678 713.5 662.5 c 0,61,62
 752 647 752 647 779 630 c 0,63,64
 806 613 806 613 837 585.5 c 0,65,66
 868 558 868 558 887 526 c 0,67,68
 906 494 906 494 919 448.5 c 0,69,70
 932 403 932 403 932 350 c 0,0,1
437 730 m 1,30,-1
 437 1162 l 1,31,32
 337 1147 337 1147 282.5 1091.5 c 0,33,34
 228 1036 228 1036 228 947 c 0,35,36
 228 784 228 784 437 730 c 1,30,-1
544 83 m 1,35,36
 664 97 664 97 724.5 164 c 0,37,38
 785 231 785 231 785 329 c 0,39,40
 785 419 785 419 733.5 467.5 c 0,41,42
 682 516 682 516 544 557 c 1,43,-1
 544 83 l 1,35,36
EndSplineSet
EndChar
StartChar: percent
Encoding: 37 37 7
Width: 1599
GlyphClass: 2
Flags: W
HStem: -34 126<1156 1322> 454 126<1154 1325> 617 126<276 444> 1106 126<275 444> 1241 36G<1097 1214>
VStem: 53 125<840 1010> 542 125<839 1009> 932 125<190 358> 1422 125<187 356>
Fore
358 1234 m 0,0,1
 487 1234 487 1234 576.5 1143.5 c 0,2,3
 666 1053 666 1053 666 922 c 0,4,5
 666 797 666 797 576 707 c 0,6,7
 486 617 486 617 360 617 c 0,8,9
 233 617 233 617 143 707.5 c 0,10,11
 53 798 53 798 53 925 c 0,12,13
 53 1052 53 1052 143 1143 c 0,14,15
 233 1234 233 1234 358 1234 c 0,0,1
358 1106 m 0,8,9
 283 1106 283 1106 229.5 1053 c 0,10,11
 176 1000 176 1000 176 925 c 0,12,13
 176 851 176 851 230 797.5 c 0,14,15
 284 744 284 744 360 744 c 0,16,17
 434 744 434 744 488 797 c 0,18,19
 542 850 542 850 542 924 c 0,20,21
 542 1000 542 1000 488.5 1053 c 0,22,23
 435 1106 435 1106 358 1106 c 0,8,9
1097 1277 m 1,16,-1
 1214 1277 l 1,17,-1
 504 -36 l 1,18,-1
 385 -36 l 1,19,-1
 1097 1277 l 1,16,-1
1238 580 m 0,20,21
 1368 580 1368 580 1457 490 c 0,22,23
 1546 400 1546 400 1546 270 c 0,24,25
 1546 146 1546 146 1455.5 56 c 0,26,27
 1365 -34 1365 -34 1241 -34 c 0,28,29
 1113 -34 1113 -34 1022.5 56 c 0,30,31
 932 146 932 146 932 274 c 0,32,33
 932 400 932 400 1022 490 c 0,34,35
 1112 580 1112 580 1238 580 c 0,20,21
1238 454 m 0,28,29
 1164 454 1164 454 1110 400.5 c 0,30,31
 1056 347 1056 347 1056 274 c 0,32,33
 1056 198 1056 198 1110.5 144.5 c 0,34,35
 1165 91 1165 91 1241 91 c 0,36,37
 1315 91 1315 91 1368.5 144 c 0,38,39
 1422 197 1422 197 1422 270 c 0,40,41
 1422 347 1422 347 1369 400.5 c 0,42,43
 1316 454 1316 454 1238 454 c 0,28,29
EndSplineSet
EndChar
StartChar: ampersand
Encoding: 38 38 8
Width: 1200
GlyphClass: 2
Flags: W
HStem: -41 140<352 565> 1150 126<462 632>
VStem: 94 151<209 398> 240 148<952 1073> 698 142<929 1076> 888 144<547 601>
Fore
839 140 m 1,0,1
 827 126 827 126 805.5 107 c 0,2,3
 784 88 784 88 761.5 68 c 0,4,5
 739 48 739 48 706 28.5 c 0,6,7
 673 9 673 9 638.5 -6.5 c 0,8,9
 604 -22 604 -22 558 -31.5 c 0,10,11
 512 -41 512 -41 463 -41 c 0,12,13
 296 -41 296 -41 195 57 c 0,14,15
 94 155 94 155 94 317 c 0,16,17
 94 440 94 440 156 522 c 0,18,19
 218 604 218 604 385 701 c 1,20,21
 302 805 302 805 271 868 c 0,22,23
 240 931 240 931 240 994 c 0,24,25
 240 1112 240 1112 329.5 1194.5 c 0,26,27
 419 1277 419 1277 547 1277 c 0,28,29
 675 1277 675 1277 757.5 1197.5 c 0,30,31
 840 1118 840 1118 840 994 c 0,32,33
 840 896 840 896 786.5 828 c 0,34,35
 733 760 733 760 593 680 c 1,36,-1
 832 386 l 1,37,38
 888 490 888 490 888 594 c 2,39,-1
 888 601 l 1,40,-1
 1032 601 l 1,41,42
 1032 432 1032 432 926 271 c 1,43,-1
 1147 0 l 1,44,-1
 950 0 l 1,45,-1
 839 140 l 1,0,1
514 775 m 1,25,26
 619 842 619 842 658.5 889.5 c 0,27,28
 698 937 698 937 698 997 c 0,29,30
 698 1063 698 1063 653.5 1106.5 c 0,31,32
 609 1150 609 1150 542 1150 c 0,33,34
 472 1150 472 1150 429 1108 c 0,35,36
 386 1066 386 1066 386 996 c 0,37,38
 386 948 386 948 408.5 909 c 0,39,40
 431 870 431 870 514 775 c 1,25,26
752 247 m 1,33,-1
 464 607 l 1,34,35
 342 529 342 529 293.5 467 c 0,36,37
 245 405 245 405 245 329 c 0,38,39
 245 235 245 235 314 166.5 c 0,40,41
 383 98 383 98 480 98 c 0,42,43
 551 98 551 98 614 132.5 c 0,44,45
 677 167 677 167 752 247 c 1,33,-1
EndSplineSet
EndChar
StartChar: quotesingle
Encoding: 39 39 9
Width: 343
GlyphClass: 2
Flags: W
HStem: 1241 36G<86 256>
VStem: 86 169<1076 1277>
Fore
86 1277 m 5,0,-1
 256 1277 l 1,1,-1
 256 1076 l 1,2,-1
 206 835 l 1,3,-1
 134 835 l 1,4,-1
 86 1076 l 1,5,-1
 86 1277 l 5,0,-1
EndSplineSet
EndChar
StartChar: parenleft
Encoding: 40 40 10
Width: 598
GlyphClass: 2
Flags: W
HStem: 1277 36G<425 523>
VStem: 132 146<322 610>
Fore
425 1313 m 1,0,-1
 523 1313 l 1,1,2
 405 1120 405 1120 341 900.5 c 0,3,4
 277 681 277 681 277 466 c 0,5,6
 277 250 277 250 340.5 30.5 c 0,7,8
 404 -189 404 -189 523 -382 c 1,9,-1
 425 -382 l 1,10,11
 290 -205 290 -205 211 24 c 0,12,13
 132 253 132 253 132 466 c 0,14,15
 132 678 132 678 211 906.5 c 0,16,17
 290 1135 290 1135 425 1313 c 1,0,-1
EndSplineSet
EndChar
StartChar: parenright
Encoding: 41 41 11
Width: 598
GlyphClass: 2
Flags: W
HStem: 1277 36G<68 168>
VStem: 314 146<322 608>
Fore
168 -382 m 1,0,-1
 68 -382 l 1,1,2
 187 -191 187 -191 250.5 29 c 0,3,4
 314 249 314 249 314 464 c 0,5,6
 314 681 314 681 250.5 900.5 c 0,7,8
 187 1120 187 1120 68 1313 c 1,9,-1
 168 1313 l 1,10,11
 303 1135 303 1135 382 906.5 c 0,12,13
 461 678 461 678 461 464 c 0,14,15
 461 252 461 252 382 23.5 c 0,16,17
 303 -205 303 -205 168 -382 c 1,0,-1
EndSplineSet
EndChar
StartChar: asterisk
Encoding: 42 42 12
Width: 699
GlyphClass: 2
Flags: W
HStem: 1277 36G<288 401>
Fore
288 1313 m 1,0,-1
 401 1313 l 1,1,-1
 392 1111 l 1,2,-1
 583 1178 l 1,3,-1
 617 1073 l 1,4,-1
 422 1019 l 1,5,-1
 550 859 l 1,6,-1
 457 794 l 1,7,-1
 346 961 l 1,8,-1
 233 794 l 1,9,-1
 142 859 l 1,10,-1
 266 1019 l 1,11,-1
 72 1073 l 1,12,-1
 106 1178 l 1,13,-1
 298 1111 l 1,14,-1
 288 1313 l 1,0,-1
EndSplineSet
EndChar
StartChar: plus
Encoding: 43 43 13
Width: 1051
GlyphClass: 2
Flags: W
HStem: -18 38G<463 588> 355 126<90 463 588 961>
VStem: 463 126<-18 355 480 853>
Fore
961 480 m 1,0,-1
 961 355 l 1,1,-1
 588 355 l 1,2,-1
 588 -18 l 1,3,-1
 463 -18 l 1,4,-1
 463 355 l 1,5,-1
 90 355 l 1,6,-1
 90 480 l 1,7,-1
 463 480 l 1,8,-1
 463 853 l 1,9,-1
 588 853 l 1,10,-1
 588 480 l 1,11,-1
 961 480 l 1,0,-1
EndSplineSet
EndChar
StartChar: comma
Encoding: 44 44 14
Width: 500
GlyphClass: 2
Flags: W
HStem: -36 36G<156 264>
VStem: 264 82<-106 0>
Fore
156 187 m 1,0,-1
 346 187 l 1,1,-1
 346 -29 l 2,2,3
 346 -264 346 -264 156 -264 c 1,4,-1
 156 -197 l 1,5,6
 220 -193 220 -193 242 -159 c 128,-1,7
 264 -125 264 -125 264 -32 c 2,8,-1
 264 0 l 1,9,-1
 156 0 l 1,10,-1
 156 187 l 1,0,-1
EndSplineSet
EndChar
StartChar: hyphen
Encoding: 45 45 15
Width: 598
GlyphClass: 2
Flags: W
HStem: 432 130<83 511>
Fore
511 562 m 5,0,-1
 511 432 l 1,1,-1
 83 432 l 1,2,-1
 83 562 l 1,3,-1
 511 562 l 5,0,-1
EndSplineSet
EndChar
StartChar: period
Encoding: 46 46 16
Width: 500
GlyphClass: 2
Flags: W
HStem: 0 38G<156 343>
Fore
343 187 m 5,0,-1
 343 0 l 1,1,-1
 156 0 l 1,2,-1
 156 187 l 1,3,-1
 343 187 l 5,0,-1
EndSplineSet
EndChar
StartChar: slash
Encoding: 47 47 17
Width: 500
GlyphClass: 2
Flags: W
HStem: -36 38G<-14 84> 1277 36G<413 511>
Fore
413 1313 m 1,0,-1
 511 1313 l 1,1,-1
 84 -36 l 1,2,-1
 -14 -36 l 1,3,-1
 413 1313 l 1,0,-1
EndSplineSet
EndChar
StartChar: zero
Encoding: 48 48 18
Width: 1000
GlyphClass: 2
Flags: W
HStem: -41 132<358 630> 1135 140<406 653>
VStem: 77 162<402 898> 751 162<397 792>
Fore
77 617 m 0,0,1
 77 778 77 778 104 900 c 128,-1,2
 131 1022 131 1022 172 1092 c 128,-1,3
 213 1162 213 1162 271 1205.5 c 128,-1,4
 329 1249 329 1249 382 1263 c 128,-1,5
 435 1277 435 1277 494 1277 c 0,6,7
 587 1277 587 1277 659 1242.5 c 128,-1,8
 731 1208 731 1208 778 1148 c 128,-1,9
 825 1088 825 1088 855.5 1002 c 128,-1,10
 886 916 886 916 899 819 c 128,-1,11
 912 722 912 722 912 607 c 0,12,13
 912 292 912 292 805 125.5 c 128,-1,14
 698 -41 698 -41 494 -41 c 0,15,16
 289 -41 289 -41 183 126.5 c 128,-1,17
 77 294 77 294 77 617 c 0,0,1
494 1135 m 0,18,19
 240 1135 240 1135 240 616 c 0,20,21
 240 90 240 90 492 90 c 0,22,23
 624 90 624 90 687.5 220 c 128,-1,24
 751 350 751 350 751 622 c 0,25,26
 751 1135 751 1135 494 1135 c 0,18,19
EndSplineSet
EndChar
StartChar: one
Encoding: 49 49 19
Width: 1000
GlyphClass: 2
Flags: W
HStem: 0 38G<466 624> 1241 36G<521 624>
VStem: 466 158<0 1277>
Fore
466 910 m 1,0,-1
 184 910 l 1,1,-1
 184 1022 l 1,2,3
 250 1031 250 1031 290 1038 c 128,-1,4
 330 1045 330 1045 366.5 1058.5 c 128,-1,5
 403 1072 403 1072 423 1087 c 128,-1,6
 443 1102 443 1102 462 1130.5 c 128,-1,7
 481 1159 481 1159 493.5 1191.5 c 128,-1,8
 506 1224 506 1224 521 1277 c 1,9,-1
 624 1277 l 1,10,-1
 624 0 l 1,11,-1
 466 0 l 1,12,-1
 466 910 l 1,0,-1
EndSplineSet
EndChar
StartChar: two
Encoding: 50 50 20
Width: 1000
GlyphClass: 2
Flags: W
HStem: 0 156<61 911> 1138 139<396 631>
VStem: 758 162<823 1013>
Fore
90 833 m 1,0,1
 103 1277 103 1277 511 1277 c 0,2,3
 692 1277 692 1277 805.5 1172.5 c 128,-1,4
 919 1068 919 1068 919 902 c 0,5,6
 919 664 919 664 650 516 c 2,7,-1
 470 420 l 2,8,9
 353 357 353 357 302.5 297.5 c 128,-1,10
 252 238 252 238 240 156 c 1,11,-1
 911 156 l 1,12,-1
 911 0 l 1,13,-1
 61 0 l 1,14,15
 72 211 72 211 146.5 325 c 128,-1,16
 221 439 221 439 420 552 c 2,17,-1
 586 646 l 2,18,19
 758 744 758 744 758 898 c 0,20,21
 758 1000 758 1000 686 1069 c 128,-1,22
 614 1138 614 1138 506 1138 c 0,23,24
 443 1138 443 1138 395.5 1117 c 128,-1,25
 348 1096 348 1096 322 1066 c 128,-1,26
 296 1036 296 1036 279 991 c 128,-1,27
 262 946 262 946 256.5 911.5 c 128,-1,28
 251 877 251 877 248 833 c 1,29,-1
 90 833 l 1,0,1
EndSplineSet
EndChar
StartChar: three
Encoding: 51 51 21
Width: 1000
GlyphClass: 2
Flags: W
HStem: -41 140<346 610> 586 134<398 418> 1138 139<355 606>
VStem: 710 162<838 1034> 749 162<235 437>
Fore
486 1138 m 0,0,1
 427 1138 427 1138 383.5 1122.5 c 128,-1,2
 340 1107 340 1107 314 1082 c 128,-1,3
 288 1057 288 1057 272 1020 c 128,-1,4
 256 983 256 983 250 946.5 c 128,-1,5
 244 910 244 910 242 864 c 1,6,-1
 84 864 l 1,7,8
 89 1067 89 1067 190.5 1172 c 128,-1,9
 292 1277 292 1277 485 1277 c 0,10,11
 667 1277 667 1277 770.5 1183.5 c 128,-1,12
 874 1090 874 1090 874 925 c 0,13,14
 874 732 874 732 695 660 c 1,15,16
 809 621 809 621 860 549 c 128,-1,17
 911 477 911 477 911 356 c 0,18,19
 911 175 911 175 793.5 67 c 128,-1,20
 676 -41 676 -41 479 -41 c 0,21,22
 279 -41 279 -41 175.5 61 c 128,-1,23
 72 163 72 163 58 371 c 1,24,-1
 216 371 l 1,25,26
 224 231 224 231 289.5 164.5 c 128,-1,27
 355 98 355 98 485 98 c 0,28,29
 609 98 609 98 679 166 c 128,-1,30
 749 234 749 234 749 355 c 0,31,32
 749 470 749 470 682.5 528.5 c 128,-1,33
 616 587 616 587 485 587 c 2,34,-1
 418 586 l 1,35,-1
 398 586 l 1,36,-1
 398 720 l 1,37,38
 568 723 568 723 639 762.5 c 128,-1,39
 710 802 710 802 710 919 c 0,40,41
 710 1021 710 1021 650.5 1079.5 c 128,-1,42
 591 1138 591 1138 486 1138 c 0,0,1
EndSplineSet
EndChar
StartChar: four
Encoding: 52 52 22
Width: 1000
GlyphClass: 2
Flags: W
HStem: 0 38G<588 746> 306 142<50 588 746 936> 1241 36G<630 746>
VStem: 588 158<0 306 449 1277>
Fore
588 306 m 1,0,-1
 50 306 l 1,1,-1
 50 473 l 1,2,-1
 630 1277 l 1,3,-1
 746 1277 l 1,4,-1
 746 449 l 1,5,-1
 936 449 l 1,6,-1
 936 306 l 1,7,-1
 746 306 l 1,8,-1
 746 0 l 1,9,-1
 588 0 l 1,10,-1
 588 306 l 1,0,-1
588 449 m 1,11,-1
 588 1006 l 1,12,-1
 190 449 l 1,13,-1
 588 449 l 1,11,-1
EndSplineSet
EndChar
StartChar: five
Encoding: 53 53 23
Width: 1000
GlyphClass: 2
Flags: W
HStem: -41 140<306 614> 701 140<433 634> 1120 156<198 857>
VStem: 761 162<281 542>
Fore
857 1277 m 1,0,-1
 857 1120 l 1,1,-1
 326 1120 l 1,2,-1
 276 763 l 1,3,4
 380 840 380 840 511 840 c 0,5,6
 695 840 695 840 809.5 722 c 128,-1,7
 924 604 924 604 924 415 c 0,8,9
 924 213 924 213 802 86 c 128,-1,10
 680 -41 680 -41 486 -41 c 0,11,12
 428 -41 428 -41 377 -31 c 128,-1,13
 326 -21 326 -21 289 -6.5 c 128,-1,14
 252 8 252 8 219.5 33 c 128,-1,15
 187 58 187 58 166.5 78.5 c 128,-1,16
 146 99 146 99 127.5 132 c 128,-1,17
 109 165 109 165 99.5 183.5 c 128,-1,18
 90 202 90 202 80.5 235.5 c 128,-1,19
 71 269 71 269 69 278.5 c 128,-1,20
 67 288 67 288 62 313 c 1,21,-1
 221 313 l 1,22,23
 278 98 278 98 482 98 c 0,24,25
 612 98 612 98 686.5 177.5 c 128,-1,26
 761 257 761 257 761 394 c 0,27,28
 761 536 761 536 685.5 618.5 c 128,-1,29
 610 701 610 701 482 701 c 0,30,31
 408 701 408 701 355.5 674 c 128,-1,32
 303 647 303 647 248 581 c 1,33,-1
 103 581 l 1,34,-1
 198 1277 l 1,35,-1
 857 1277 l 1,0,-1
EndSplineSet
EndChar
StartChar: six
Encoding: 54 54 24
Width: 1000
GlyphClass: 2
Flags: W
HStem: -41 140<347 628> 653 140<434 647> 943 38G<738 896> 1135 140<433 631>
VStem: 77 170<304 876> 761 162<264 508>
Fore
77 581 m 0,0,1
 77 703 77 703 93 805 c 128,-1,2
 109 907 109 907 135 977.5 c 128,-1,3
 161 1048 161 1048 198.5 1102.5 c 128,-1,4
 236 1157 236 1157 276 1189.5 c 128,-1,5
 316 1222 316 1222 363 1242 c 128,-1,6
 410 1262 410 1262 450.5 1269.5 c 128,-1,7
 491 1277 491 1277 535 1277 c 0,8,9
 681 1277 681 1277 777.5 1188.5 c 128,-1,10
 874 1100 874 1100 896 943 c 1,11,-1
 738 943 l 1,12,13
 719 1035 719 1035 663.5 1085 c 128,-1,14
 608 1135 608 1135 523 1135 c 0,15,16
 387 1135 387 1135 314 1010 c 128,-1,17
 241 885 241 885 240 652 c 1,18,19
 342 794 342 794 533 794 c 0,20,21
 704 794 704 794 814 680.5 c 128,-1,22
 924 567 924 567 924 389 c 0,23,24
 924 202 924 202 806 80.5 c 128,-1,25
 688 -41 688 -41 506 -41 c 0,26,27
 77 -41 77 -41 77 581 c 0,0,1
514 653 m 0,28,29
 396 653 396 653 322 578.5 c 128,-1,30
 248 504 248 504 248 385 c 0,31,32
 248 262 248 262 322.5 180 c 128,-1,33
 397 98 397 98 508 98 c 0,34,35
 617 98 617 98 689 177 c 128,-1,36
 761 256 761 256 761 377 c 0,37,38
 761 504 761 504 694.5 578.5 c 128,-1,39
 628 653 628 653 514 653 c 0,28,29
EndSplineSet
EndChar
StartChar: seven
Encoding: 55 55 25
Width: 1000
GlyphClass: 2
Flags: W
HStem: 0 38G<248 418> 1120 156<83 936>
Fore
936 1277 m 1,0,-1
 936 1142 l 1,1,2
 719 855 719 855 594.5 580 c 128,-1,3
 470 305 470 305 418 0 c 1,4,-1
 248 0 l 1,5,6
 319 315 319 315 431.5 554.5 c 128,-1,7
 544 794 544 794 773 1120 c 1,8,-1
 83 1120 l 1,9,-1
 83 1277 l 1,10,-1
 936 1277 l 1,0,-1
EndSplineSet
EndChar
StartChar: eight
Encoding: 56 56 26
Width: 1000
GlyphClass: 2
Flags: W
HStem: -41 140<370 622> 601 133<415 574> 1135 140<383 608>
VStem: 67 162<238 426> 112 162<874 1036> 716 162<874 1036> 761 162<236 426>
Fore
703 672 m 1,0,1
 924 567 924 567 924 353 c 0,2,3
 924 179 924 179 803.5 69 c 128,-1,4
 683 -41 683 -41 494 -41 c 128,-1,5
 305 -41 305 -41 186 69 c 128,-1,6
 67 179 67 179 67 355 c 0,7,8
 67 566 67 566 284 672 c 1,9,10
 187 732 187 732 149.5 789.5 c 128,-1,11
 112 847 112 847 112 936 c 0,12,13
 112 1085 112 1085 219 1181 c 128,-1,14
 326 1277 326 1277 494 1277 c 0,15,16
 664 1277 664 1277 771 1181.5 c 128,-1,17
 878 1086 878 1086 878 936 c 0,18,19
 878 846 878 846 840 788.5 c 128,-1,20
 802 731 802 731 703 672 c 1,0,1
494 1135 m 0,21,22
 395 1135 395 1135 334.5 1080 c 128,-1,23
 274 1025 274 1025 274 934 c 0,24,25
 274 844 274 844 334.5 789 c 128,-1,26
 395 734 395 734 494 734 c 0,27,28
 595 734 595 734 655.5 788.5 c 128,-1,29
 716 843 716 843 716 932 c 0,30,31
 716 1025 716 1025 656 1080 c 128,-1,32
 596 1135 596 1135 494 1135 c 0,21,22
494 601 m 128,-1,34
 375 601 375 601 301.5 531.5 c 128,-1,35
 228 462 228 462 228 350 c 0,36,37
 228 239 228 239 301.5 168.5 c 128,-1,38
 375 98 375 98 492 98 c 0,39,40
 613 98 613 98 687 167.5 c 128,-1,41
 761 237 761 237 761 350 c 0,42,43
 761 462 761 462 687 531.5 c 128,-1,33
 613 601 613 601 494 601 c 128,-1,34
EndSplineSet
EndChar
StartChar: nine
Encoding: 57 57 27
Width: 1000
GlyphClass: 2
Flags: W
HStem: -41 140<360 559> 442 140<346 557> 1138 139<365 644>
VStem: 68 162<727 971> 744 173<358 932>
Fore
917 653 m 0,0,1
 917 483 917 483 886.5 354.5 c 128,-1,2
 856 226 856 226 809.5 152.5 c 128,-1,3
 763 79 763 79 699 33.5 c 128,-1,4
 635 -12 635 -12 577.5 -26.5 c 128,-1,5
 520 -41 520 -41 457 -41 c 0,6,7
 311 -41 311 -41 214.5 47.5 c 128,-1,8
 118 136 118 136 96 292 c 1,9,-1
 254 292 l 1,10,11
 272 200 272 200 328 149 c 128,-1,12
 384 98 384 98 468 98 c 0,13,14
 604 98 604 98 677.5 223.5 c 128,-1,15
 751 349 751 349 752 583 c 1,16,17
 691 510 691 510 621 476 c 128,-1,18
 551 442 551 442 461 442 c 0,19,20
 288 442 288 442 178 555 c 128,-1,21
 68 668 68 668 68 846 c 0,22,23
 68 1034 68 1034 185.5 1155.5 c 128,-1,24
 303 1277 303 1277 486 1277 c 0,25,26
 602 1277 602 1277 686.5 1231.5 c 128,-1,27
 771 1186 771 1186 821 1101 c 128,-1,28
 871 1016 871 1016 894 905 c 128,-1,29
 917 794 917 794 917 653 c 0,0,1
485 1138 m 128,-1,31
 375 1138 375 1138 302.5 1059 c 128,-1,32
 230 980 230 980 230 859 c 0,33,34
 230 731 230 731 297 656 c 128,-1,35
 364 581 364 581 479 581 c 0,36,37
 595 581 595 581 669.5 657 c 128,-1,38
 744 733 744 733 744 850 c 0,39,40
 744 973 744 973 669.5 1055.5 c 128,-1,30
 595 1138 595 1138 485 1138 c 128,-1,31
EndSplineSet
EndChar
StartChar: colon
Encoding: 58 58 28
Width: 500
GlyphClass: 2
Flags: W
HStem: 0 38G<198 385> 907 36G<198 385>
Fore
385 187 m 1,0,-1
 385 0 l 1,1,-1
 198 0 l 1,2,-1
 198 187 l 1,3,-1
 385 187 l 1,0,-1
385 943 m 1,4,-1
 385 756 l 1,5,-1
 198 756 l 1,6,-1
 198 943 l 1,7,-1
 385 943 l 1,4,-1
EndSplineSet
EndChar
StartChar: semicolon
Encoding: 59 59 29
Width: 500
GlyphClass: 2
Flags: W
HStem: -36 36G<198 306> 907 36G<199 386>
VStem: 306 82<-106 0>
Fore
386 943 m 1,0,-1
 386 756 l 1,1,-1
 199 756 l 1,2,-1
 199 943 l 1,3,-1
 386 943 l 1,0,-1
198 187 m 1,4,-1
 386 187 l 1,5,-1
 386 -29 l 2,6,7
 386 -264 386 -264 198 -264 c 1,8,-1
 198 -197 l 1,9,10
 262 -193 262 -193 284 -159 c 128,-1,11
 306 -125 306 -125 306 -32 c 2,12,-1
 306 0 l 1,13,-1
 198 0 l 1,14,-1
 198 187 l 1,4,-1
EndSplineSet
EndChar
StartChar: less
Encoding: 60 60 30
Width: 1051
GlyphClass: 2
Flags: W
Fore
82 356 m 1,0,-1
 82 480 l 1,1,-1
 961 853 l 1,2,-1
 961 710 l 1,3,-1
 252 421 l 1,4,-1
 961 126 l 1,5,-1
 961 -17 l 1,6,-1
 82 356 l 1,0,-1
EndSplineSet
EndChar
StartChar: equal
Encoding: 61 61 31
Width: 1051
GlyphClass: 2
Flags: W
HStem: 199 126<90 961> 509 126<90 961>
Fore
961 636 m 1,0,-1
 961 509 l 1,1,-1
 90 509 l 1,2,-1
 90 636 l 1,3,-1
 961 636 l 1,0,-1
961 326 m 1,4,-1
 961 199 l 1,5,-1
 90 199 l 1,6,-1
 90 326 l 1,7,-1
 961 326 l 1,4,-1
EndSplineSet
EndChar
StartChar: greater
Encoding: 62 62 32
Width: 1051
GlyphClass: 2
Flags: W
Fore
970 480 m 1,0,-1
 970 356 l 1,1,-1
 90 -17 l 1,2,-1
 90 126 l 1,3,-1
 799 415 l 1,4,-1
 90 710 l 1,5,-1
 90 853 l 1,6,-1
 970 480 l 1,0,-1
EndSplineSet
EndChar
StartChar: question
Encoding: 63 63 33
Width: 1000
GlyphClass: 2
Flags: W
HStem: 0 38G<432 594> 1193 140<403 650>
VStem: 432 162<0 187 358 580> 754 162<840 1093>
Fore
917 989 m 0,0,1
 917 929 917 929 899 877 c 128,-1,2
 881 825 881 825 852.5 787.5 c 128,-1,3
 824 750 824 750 790 717 c 128,-1,4
 756 684 756 684 721.5 654 c 128,-1,5
 687 624 687 624 658.5 593.5 c 128,-1,6
 630 563 630 563 612 524.5 c 128,-1,7
 594 486 594 486 594 443 c 2,8,-1
 594 358 l 1,9,-1
 432 358 l 1,10,-1
 432 457 l 2,11,12
 432 507 432 507 450 551.5 c 128,-1,13
 468 596 468 596 496 630 c 128,-1,14
 524 664 524 664 558.5 697 c 128,-1,15
 593 730 593 730 627.5 761.5 c 128,-1,16
 662 793 662 793 690 826 c 128,-1,17
 718 859 718 859 736 901 c 128,-1,18
 754 943 754 943 754 989 c 0,19,20
 754 1081 754 1081 690.5 1137 c 128,-1,21
 627 1193 627 1193 523 1193 c 0,22,23
 455 1193 455 1193 408.5 1172.5 c 128,-1,24
 362 1152 362 1152 337 1112 c 128,-1,25
 312 1072 312 1072 302 1024.5 c 128,-1,26
 292 977 292 977 292 912 c 1,27,-1
 139 912 l 1,28,29
 139 1120 139 1120 239 1227 c 128,-1,30
 339 1334 339 1334 533 1334 c 0,31,32
 708 1334 708 1334 812.5 1240.5 c 128,-1,33
 917 1147 917 1147 917 989 c 0,0,1
594 187 m 1,34,-1
 594 0 l 1,35,-1
 432 0 l 1,36,-1
 432 187 l 1,37,-1
 594 187 l 1,34,-1
EndSplineSet
EndChar
StartChar: at
Encoding: 64 64 34
Width: 1826
GlyphClass: 2
Flags: W
HStem: -256 139<653 947> 103 126<1165 1330> 824 115<817 988> 1195 139<732 1154>
VStem: 61 154<264 680> 475 162<348 571> 1097 67<286 708> 1555 156<538 847>
Fore
1198 902 m 1,0,-1
 1346 902 l 1,1,-1
 1184 398 l 2,2,3
 1163 335 1163 335 1163 307 c 0,4,5
 1163 275 1163 275 1190 251.5 c 0,6,7
 1217 228 1217 228 1253 228 c 0,8,9
 1328 228 1328 228 1398.5 287 c 0,10,11
 1469 346 1469 346 1512 443 c 0,12,13
 1555 540 1555 540 1555 643 c 0,14,15
 1555 790 1555 790 1469 917.5 c 0,16,17
 1383 1045 1383 1045 1237 1120 c 0,18,19
 1091 1195 1091 1195 922 1195 c 0,20,21
 782 1195 782 1195 651.5 1137.5 c 0,22,23
 521 1080 521 1080 425 985 c 0,24,25
 329 890 329 890 271.5 760.5 c 0,26,27
 214 631 214 631 214 492 c 0,28,29
 214 365 214 365 266.5 252 c 0,30,31
 319 139 319 139 408.5 58 c 0,32,33
 498 -23 498 -23 623 -70.5 c 0,34,35
 748 -118 748 -118 889 -118 c 0,36,37
 1029 -118 1029 -118 1236 -60 c 1,38,-1
 1286 -180 l 1,39,40
 1082 -256 1082 -256 881 -256 c 0,41,42
 713 -256 713 -256 561 -199 c 0,43,44
 409 -142 409 -142 299.5 -46 c 0,45,46
 190 50 190 50 125.5 183.5 c 0,47,48
 61 317 61 317 61 464 c 0,49,50
 61 641 61 641 137 811 c 0,51,52
 213 981 213 981 346 1102 c 0,53,54
 465 1210 465 1210 625 1272 c 0,55,56
 785 1334 785 1334 946 1334 c 0,57,58
 1151 1334 1151 1334 1327.5 1243.5 c 0,59,60
 1504 1153 1504 1153 1607.5 998.5 c 0,61,62
 1711 844 1711 844 1711 665 c 0,63,64
 1711 558 1711 558 1671 453.5 c 0,65,66
 1631 349 1631 349 1558 263 c 0,67,68
 1420 103 1420 103 1222 103 c 0,69,70
 1048 103 1048 103 1025 241 c 1,71,72
 962 173 962 173 901 142.5 c 0,73,74
 840 112 840 112 768 112 c 0,75,76
 643 112 643 112 559 206.5 c 0,77,78
 475 301 475 301 475 442 c 0,79,80
 475 537 475 537 513.5 629 c 0,81,82
 552 721 552 721 615.5 789 c 0,83,84
 679 857 679 857 764 898.5 c 0,85,86
 849 940 849 940 938 940 c 0,87,88
 1089 940 1089 940 1157 782 c 1,89,-1
 1198 902 l 1,0,-1
816 227 m 0,42,43
 876 227 876 227 931 273 c 0,44,45
 986 319 986 319 1021 386.5 c 0,46,47
 1056 454 1056 454 1076.5 528 c 0,48,49
 1097 602 1097 602 1097 662 c 0,50,51
 1097 731 1097 731 1048.5 777.5 c 0,52,53
 1000 824 1000 824 926 824 c 0,54,55
 813 824 813 824 725 707 c 0,56,57
 637 590 637 590 637 439 c 0,58,59
 637 350 637 350 689 288.5 c 0,60,61
 741 227 741 227 816 227 c 0,42,43
EndSplineSet
EndChar
StartChar: A
Encoding: 65 65 35
Width: 1200
GlyphClass: 2
Flags: W
HStem: 0 38G<31 209 989 1176> 394 140<348 853> 1277 36G<499 715>
AnchorPoint: "above" 603 1312.2 basechar 0
Fore
853 394 m 1,0,-1
 348 394 l 1,1,-1
 209 0 l 1,2,-1
 31 0 l 1,3,-1
 499 1313 l 1,4,-1
 715 1313 l 1,5,-1
 1176 0 l 1,6,-1
 989 0 l 1,7,-1
 853 394 l 1,0,-1
806 535 m 1,8,-1
 605 1133 l 1,9,-1
 389 535 l 1,10,-1
 806 535 l 1,8,-1
EndSplineSet
EndChar
StartChar: B
Encoding: 66 66 36
Width: 1200
GlyphClass: 2
Flags: W
HStem: 0 148<142 851> 600 148<310 718> 1164 148<142 830>
VStem: 142 168<0 1313> 896 168<877 1046> 954 168<262 454>
AnchorPoint: "above" 552.6 1312.2 basechar 0
AnchorPoint: "below" 565.2 0 basechar 0
Fore
1121 374 m 0,0,1
 1121 205 1121 205 1015 102.5 c 128,-1,2
 909 0 909 0 734 0 c 2,3,-1
 142 0 l 1,4,-1
 142 1313 l 1,5,-1
 674 1313 l 2,6,7
 764 1313 764 1313 834 1290.5 c 128,-1,8
 904 1268 904 1268 946 1234 c 128,-1,9
 988 1200 988 1200 1015.5 1154 c 128,-1,10
 1043 1108 1043 1108 1053 1065.5 c 128,-1,11
 1063 1023 1063 1023 1063 979 c 0,12,13
 1063 778 1063 778 882 694 c 1,14,15
 1007 645 1007 645 1064 569 c 128,-1,16
 1121 493 1121 493 1121 374 c 0,0,1
896 955 m 0,17,18
 896 1017 896 1017 875.5 1059.5 c 128,-1,19
 855 1102 855 1102 816.5 1124 c 128,-1,20
 778 1146 778 1146 734.5 1155 c 128,-1,21
 691 1164 691 1164 634 1164 c 2,22,-1
 310 1164 l 1,23,-1
 310 746 l 1,24,-1
 634 746 l 2,25,26
 760 746 760 746 828 794.5 c 128,-1,27
 896 843 896 843 896 955 c 0,17,18
718 148 m 2,28,29
 785 148 785 148 834 169.5 c 128,-1,30
 883 191 883 191 907.5 226.5 c 128,-1,31
 932 262 932 262 943 298 c 128,-1,32
 954 334 954 334 954 372 c 0,33,34
 954 476 954 476 893 538 c 128,-1,35
 832 600 832 600 718 600 c 2,36,-1
 310 600 l 1,37,-1
 310 148 l 1,38,-1
 718 148 l 2,28,29
EndSplineSet
EndChar
StartChar: C
Encoding: 67 67 37
Width: 1299
GlyphClass: 2
Flags: W
HStem: -41 148<442 839> 1186 148<446 830>
VStem: 86 168<479 811>
AnchorPoint: "above" 685.8 1312.2 basechar 0
Fore
86 641 m 0,0,1
 86 703 86 703 94 765.5 c 128,-1,2
 102 828 102 828 121.5 897.5 c 128,-1,3
 141 967 141 967 171 1028.5 c 128,-1,4
 201 1090 201 1090 248.5 1147 c 128,-1,5
 296 1204 296 1204 356.5 1244.5 c 128,-1,6
 417 1285 417 1285 501.5 1309.5 c 128,-1,7
 586 1334 586 1334 686 1334 c 0,8,9
 1115 1334 1115 1334 1192 905 c 1,10,-1
 1020 905 l 1,11,12
 992 1047 992 1047 907 1116.5 c 128,-1,13
 822 1186 822 1186 666 1186 c 0,14,15
 476 1186 476 1186 365 1040.5 c 128,-1,16
 254 895 254 895 254 643 c 0,17,18
 254 396 254 396 369.5 251 c 128,-1,19
 485 106 485 106 680 106 c 0,20,21
 842 106 842 106 928.5 197.5 c 128,-1,22
 1015 289 1015 289 1046 479 c 1,23,-1
 1219 479 l 1,24,25
 1158 -41 1158 -41 679 -41 c 0,26,27
 565 -41 565 -41 471 -9.5 c 128,-1,28
 377 22 377 22 314 76.5 c 128,-1,29
 251 131 251 131 205 198.5 c 128,-1,30
 159 266 159 266 134 345 c 128,-1,31
 109 424 109 424 97.5 496.5 c 128,-1,32
 86 569 86 569 86 641 c 0,0,1
EndSplineSet
EndChar
StartChar: D
Encoding: 68 68 38
Width: 1299
GlyphClass: 2
Flags: W
HStem: 0 148<161 832> 1164 148<161 833>
VStem: 161 168<0 1313> 1033 168<452 860>
AnchorPoint: "above" 624.6 1312.2 basechar 0
AnchorPoint: "below" 637.2 0 basechar 0
Fore
161 0 m 1,0,-1
 161 1313 l 1,1,-1
 666 1313 l 2,2,3
 915 1313 915 1313 1057.5 1137.5 c 128,-1,4
 1200 962 1200 962 1200 658 c 0,5,6
 1200 351 1200 351 1057.5 175.5 c 128,-1,7
 915 0 915 0 666 0 c 2,8,-1
 161 0 l 1,0,-1
328 148 m 1,9,-1
 637 148 l 2,10,11
 831 148 831 148 932 277.5 c 128,-1,12
 1033 407 1033 407 1033 655 c 0,13,14
 1033 906 1033 906 932.5 1035 c 128,-1,15
 832 1164 832 1164 637 1164 c 2,16,-1
 328 1164 l 1,17,-1
 328 148 l 1,9,-1
EndSplineSet
EndChar
StartChar: E
Encoding: 69 69 39
Width: 1200
GlyphClass: 2
Flags: W
HStem: 0 148<162 1104> 598 148<329 1044> 1164 148<162 1070>
VStem: 162 168<0 1313>
AnchorPoint: "below" 619.2 0 basechar 0
AnchorPoint: "above" 619.2 1312.2 basechar 0
Fore
329 598 m 1,0,-1
 329 148 l 1,1,-1
 1104 148 l 1,2,-1
 1104 0 l 1,3,-1
 162 0 l 1,4,-1
 162 1313 l 1,5,-1
 1070 1313 l 1,6,-1
 1070 1164 l 1,7,-1
 329 1164 l 1,8,-1
 329 745 l 1,9,-1
 1044 745 l 1,10,-1
 1044 598 l 1,11,-1
 329 598 l 1,0,-1
EndSplineSet
EndChar
StartChar: F
Encoding: 70 70 40
Width: 1099
GlyphClass: 2
Flags: W
HStem: 0 38G<162 329> 598 148<329 955> 1164 148<162 1042>
VStem: 162 168<0 1313>
AnchorPoint: "above" 619.2 1312.2 basechar 0
AnchorPoint: "below" 619.2 0 basechar 0
Fore
329 598 m 1,0,-1
 329 0 l 1,1,-1
 162 0 l 1,2,-1
 162 1313 l 1,3,-1
 1042 1313 l 1,4,-1
 1042 1164 l 1,5,-1
 329 1164 l 1,6,-1
 329 745 l 1,7,-1
 955 745 l 1,8,-1
 955 598 l 1,9,-1
 329 598 l 1,0,-1
EndSplineSet
EndChar
StartChar: G
Encoding: 71 71 41
Width: 1400
GlyphClass: 2
Flags: W
HStem: -41 148<503 836> 545 148<730 1277> 1186 148<457 859>
VStem: 79 168<442 812> 1128 148<392 545 694 694>
AnchorPoint: "below" 725.4 0 basechar 0
AnchorPoint: "above" 725.4 1312.2 basechar 0
Fore
247 652 m 0,0,1
 247 583 247 583 259 514 c 128,-1,2
 271 445 271 445 304.5 369.5 c 128,-1,3
 338 294 338 294 388.5 237 c 128,-1,4
 439 180 439 180 524 143 c 128,-1,5
 609 106 609 106 716 106 c 0,6,7
 895 106 895 106 1011.5 220 c 128,-1,8
 1128 334 1128 334 1128 509 c 2,9,-1
 1128 545 l 1,10,-1
 730 545 l 1,11,-1
 730 694 l 1,12,-1
 1277 694 l 1,13,-1
 1277 -7 l 1,14,-1
 1170 -7 l 1,15,-1
 1128 168 l 1,16,17
 1033 61 1033 61 923.5 10 c 128,-1,18
 814 -41 814 -41 680 -41 c 0,19,20
 505 -41 505 -41 368 45.5 c 128,-1,21
 231 132 231 132 155 288 c 128,-1,22
 79 444 79 444 79 643 c 0,23,24
 79 729 79 729 95.5 816 c 128,-1,25
 112 903 112 903 156.5 998.5 c 128,-1,26
 201 1094 201 1094 269 1166.5 c 128,-1,27
 337 1239 337 1239 451 1286.5 c 128,-1,28
 565 1334 565 1334 709 1334 c 0,29,30
 935 1334 935 1334 1079.5 1224 c 128,-1,31
 1224 1114 1224 1114 1258 914 c 1,32,-1
 1087 914 l 1,33,34
 1060 1041 1060 1041 959 1113.5 c 128,-1,35
 858 1186 858 1186 708 1186 c 0,36,37
 500 1186 500 1186 373.5 1040 c 128,-1,38
 247 894 247 894 247 652 c 0,0,1
EndSplineSet
EndChar
StartChar: H
Encoding: 72 72 42
Width: 1299
GlyphClass: 2
Flags: W
HStem: 0 38G<149 317 991 1159> 598 148<317 991> 1277 36G<149 317 991 1159>
VStem: 149 168<0 1313> 991 168<0 1313>
AnchorPoint: "below" 653.4 0 basechar 0
AnchorPoint: "above" 653.4 1312.2 basechar 0
Fore
991 598 m 1,0,-1
 317 598 l 1,1,-1
 317 0 l 1,2,-1
 149 0 l 1,3,-1
 149 1313 l 1,4,-1
 317 1313 l 1,5,-1
 317 745 l 1,6,-1
 991 745 l 1,7,-1
 991 1313 l 1,8,-1
 1159 1313 l 1,9,-1
 1159 0 l 1,10,-1
 991 0 l 1,11,-1
 991 598 l 1,0,-1
EndSplineSet
EndChar
StartChar: I
Encoding: 73 73 43
Width: 500
GlyphClass: 2
Flags: W
HStem: 0 38G<180 349> 1277 36G<180 349>
VStem: 180 169<0 1313>
AnchorPoint: "below" 255.6 0 basechar 0
AnchorPoint: "above" 255.6 1312.2 basechar 0
Fore
349 1313 m 5,0,-1
 349 0 l 1,1,-1
 180 0 l 1,2,-1
 180 1313 l 1,3,-1
 349 1313 l 5,0,-1
EndSplineSet
EndChar
StartChar: J
Encoding: 74 74 44
Width: 900
GlyphClass: 2
Flags: W
HStem: -41 140<283 510> 1277 36G<600 767>
VStem: 31 170<199 421> 600 168<214 1313>
AnchorPoint: "below" 396 0 basechar 0
AnchorPoint: "above" 682.2 1312.2 basechar 0
Fore
398 98 m 0,0,1
 512 98 512 98 556 174 c 128,-1,2
 600 250 600 250 600 389 c 2,3,-1
 600 1313 l 1,4,-1
 767 1313 l 1,5,-1
 767 328 l 2,6,7
 767 158 767 158 667 58.5 c 128,-1,8
 567 -41 567 -41 396 -41 c 0,9,10
 227 -41 227 -41 129 52.5 c 128,-1,11
 31 146 31 146 31 306 c 2,12,-1
 31 421 l 1,13,-1
 202 421 l 1,14,-1
 202 336 l 2,15,16
 202 222 202 222 252.5 160 c 128,-1,17
 303 98 303 98 398 98 c 0,0,1
EndSplineSet
EndChar
StartChar: K
Encoding: 75 75 45
Width: 1200
GlyphClass: 2
Flags: W
HStem: 0 38G<142 310 986 1184> 1277 36G<142 310 962 1178>
VStem: 142 168<0 1313>
AnchorPoint: "above" 619.2 1312.2 basechar 0
AnchorPoint: "below" 619.2 0 basechar 0
Fore
310 458 m 1,0,-1
 310 0 l 1,1,-1
 142 0 l 1,2,-1
 142 1313 l 1,3,-1
 310 1313 l 1,4,-1
 310 648 l 1,5,-1
 962 1313 l 1,6,-1
 1178 1313 l 1,7,-1
 644 778 l 1,8,-1
 1184 0 l 1,9,-1
 986 0 l 1,10,-1
 523 673 l 1,11,-1
 310 458 l 1,0,-1
EndSplineSet
EndChar
StartChar: L
Encoding: 76 76 46
Width: 1000
GlyphClass: 2
Flags: W
HStem: 0 148<144 960> 1277 36G<144 312>
VStem: 144 168<0 1313>
AnchorPoint: "below" 543.6 0 basechar 0
AnchorPoint: "above" 252 1326.6 basechar 0
Fore
312 1313 m 1,0,-1
 312 148 l 1,1,-1
 960 148 l 1,2,-1
 960 0 l 1,3,-1
 144 0 l 1,4,-1
 144 1313 l 1,5,-1
 312 1313 l 1,0,-1
EndSplineSet
EndChar
StartChar: M
Encoding: 77 77 47
Width: 1498
GlyphClass: 2
Flags: W
HStem: 0 38G<134 293 666 842 1212 1370> 1277 36G<134 367 1138 1370>
VStem: 134 158<0 1313> 1212 158<0 1313>
AnchorPoint: "below" 756 -3.59961 basechar 0
AnchorPoint: "above" 756 1308.6 basechar 0
Fore
842 0 m 1,0,-1
 666 0 l 1,1,-1
 293 1099 l 1,2,-1
 293 0 l 1,3,-1
 134 0 l 1,4,-1
 134 1313 l 1,5,-1
 367 1313 l 1,6,-1
 756 169 l 1,7,-1
 1138 1313 l 1,8,-1
 1370 1313 l 1,9,-1
 1370 0 l 1,10,-1
 1212 0 l 1,11,-1
 1212 1099 l 1,12,-1
 842 0 l 1,0,-1
EndSplineSet
EndChar
StartChar: N
Encoding: 78 78 48
Width: 1299
GlyphClass: 2
Flags: W
HStem: 0 38G<137 295 974 1163> 1277 36G<137 319 1004 1163>
VStem: 137 158<0 1313> 1004 158<0 1313>
AnchorPoint: "below" 617.4 0 basechar 0
AnchorPoint: "above" 662.4 1326.6 basechar 0
Fore
1163 1313 m 1,0,-1
 1163 0 l 1,1,-1
 974 0 l 1,2,-1
 295 1063 l 1,3,-1
 295 0 l 1,4,-1
 137 0 l 1,5,-1
 137 1313 l 1,6,-1
 319 1313 l 1,7,-1
 1004 240 l 1,8,-1
 1004 1313 l 1,9,-1
 1163 1313 l 1,0,-1
EndSplineSet
EndChar
StartChar: O
Encoding: 79 79 49
Width: 1400
GlyphClass: 2
Flags: W
HStem: -41 148<514 898> 1186 148<512 893>
VStem: 68 168<442 852> 1169 168<446 847>
AnchorPoint: "below" 702 0 basechar 0
AnchorPoint: "above" 702 1312.2 basechar 0
Fore
1336 636 m 0,0,1
 1336 494 1336 494 1291.5 370.5 c 128,-1,2
 1247 247 1247 247 1166.5 155.5 c 128,-1,3
 1086 64 1086 64 966 11.5 c 128,-1,4
 846 -41 846 -41 702 -41 c 0,5,6
 418 -41 418 -41 243 148.5 c 128,-1,7
 68 338 68 338 68 646 c 0,8,9
 68 953 68 953 243 1143.5 c 128,-1,10
 418 1334 418 1334 701 1334 c 0,11,12
 989 1334 989 1334 1162.5 1143.5 c 128,-1,13
 1336 953 1336 953 1336 636 c 0,0,1
701 1186 m 0,14,15
 492 1186 492 1186 363.5 1037.5 c 128,-1,16
 235 889 235 889 235 646 c 128,-1,17
 235 403 235 403 363.5 254.5 c 128,-1,18
 492 106 492 106 702 106 c 0,19,20
 910 106 910 106 1039.5 253.5 c 128,-1,21
 1169 401 1169 401 1169 638 c 0,22,23
 1169 887 1169 887 1041 1036.5 c 128,-1,24
 913 1186 913 1186 701 1186 c 0,14,15
EndSplineSet
EndChar
StartChar: P
Encoding: 80 80 50
Width: 1200
GlyphClass: 2
Flags: W
HStem: 0 38G<163 331> 557 148<331 852> 1164 148<163 835>
VStem: 163 168<0 1313> 936 175<815 1050>
AnchorPoint: "below" 565.2 0 basechar 0
AnchorPoint: "above" 552.6 1312.2 basechar 0
Fore
1111 926 m 0,0,1
 1111 759 1111 759 1009 658 c 128,-1,2
 907 557 907 557 744 557 c 2,3,-1
 331 557 l 1,4,-1
 331 0 l 1,5,-1
 163 0 l 1,6,-1
 163 1313 l 1,7,-1
 706 1313 l 2,8,9
 900 1313 900 1313 1005.5 1212.5 c 128,-1,10
 1111 1112 1111 1112 1111 926 c 0,0,1
331 703 m 1,11,-1
 680 703 l 2,12,13
 800 703 800 703 868 764.5 c 128,-1,14
 936 826 936 826 936 934 c 128,-1,15
 936 1042 936 1042 868 1103 c 128,-1,16
 800 1164 800 1164 680 1164 c 2,17,-1
 331 1164 l 1,18,-1
 331 703 l 1,11,-1
EndSplineSet
EndChar
StartChar: Q
Encoding: 81 81 51
Width: 1400
GlyphClass: 2
Flags: W
HStem: -41 148<514 767> 1186 148<514 890>
VStem: 68 168<442 852> 1169 168<546 853>
AnchorPoint: "above" 702 1312.2 basechar 0
AnchorPoint: "below" 702 0 basechar 0
Fore
1320 -2 m 1,0,-1
 1235 -106 l 1,1,-1
 1046 50 l 1,2,3
 890 -41 890 -41 702 -41 c 0,4,5
 418 -41 418 -41 243 148.5 c 128,-1,6
 68 338 68 338 68 646 c 128,-1,7
 68 954 68 954 243.5 1144 c 128,-1,8
 419 1334 419 1334 702 1334 c 128,-1,9
 985 1334 985 1334 1160.5 1144.5 c 128,-1,10
 1336 955 1336 955 1336 650 c 0,11,12
 1336 342 1336 342 1150 137 c 1,13,-1
 1320 -2 l 1,0,-1
866 370 m 1,14,-1
 1026 238 l 1,15,16
 1169 400 1169 400 1169 648 c 0,17,18
 1169 890 1169 890 1040.5 1038 c 128,-1,19
 912 1186 912 1186 702 1186 c 128,-1,20
 492 1186 492 1186 363.5 1037.5 c 128,-1,21
 235 889 235 889 235 646 c 128,-1,22
 235 403 235 403 363 254.5 c 128,-1,23
 491 106 491 106 701 106 c 0,24,25
 809 106 809 106 917 156 c 1,26,-1
 782 269 l 1,27,-1
 866 370 l 1,14,-1
EndSplineSet
EndChar
StartChar: R
Encoding: 82 82 52
Width: 1299
GlyphClass: 2
Flags: W
HStem: 0 38G<168 335 1019 1222> 565 148<335 841> 1164 148<168 901>
VStem: 168 168<0 1313> 983 240<0 214> 997 175<860 1075>
AnchorPoint: "below" 655.2 0 basechar 0
AnchorPoint: "above" 642.6 1312.2 basechar 0
Fore
965 648 m 1,0,1
 1031 620 1031 620 1071.5 577.5 c 128,-1,2
 1112 535 1112 535 1126 488.5 c 128,-1,3
 1140 442 1140 442 1143 391 c 128,-1,4
 1146 340 1146 340 1144.5 289.5 c 128,-1,5
 1143 239 1143 239 1145 193.5 c 128,-1,6
 1147 148 1147 148 1165.5 107.5 c 128,-1,7
 1184 67 1184 67 1222 41 c 1,8,-1
 1222 0 l 1,9,-1
 1019 0 l 1,10,11
 983 85 983 85 983 214 c 2,12,-1
 983 331 l 2,13,14
 983 453 983 453 931 509 c 128,-1,15
 879 565 879 565 767 565 c 2,16,-1
 335 565 l 1,17,-1
 335 0 l 1,18,-1
 168 0 l 1,19,-1
 168 1313 l 1,20,-1
 773 1313 l 2,21,22
 966 1313 966 1313 1068.5 1222 c 128,-1,23
 1171 1131 1171 1131 1171 961 c 0,24,25
 1171 848 1171 848 1123 775 c 128,-1,26
 1075 702 1075 702 965 648 c 1,0,1
997 938 m 0,27,28
 997 1006 997 1006 977.5 1052 c 128,-1,29
 958 1098 958 1098 920.5 1121.5 c 128,-1,30
 883 1145 883 1145 840 1154.5 c 128,-1,31
 797 1164 797 1164 739 1164 c 2,32,-1
 335 1164 l 1,33,-1
 335 713 l 1,34,-1
 739 713 l 2,35,36
 873 713 873 713 935 767 c 128,-1,37
 997 821 997 821 997 938 c 0,27,28
EndSplineSet
EndChar
StartChar: S
Encoding: 83 83 53
Width: 1200
GlyphClass: 2
Flags: W
HStem: -41 148<467 810> 1193 140<449 744>
VStem: 86 158<342 418> 126 168<869 1068> 950 168<280 442>
AnchorPoint: "below" 604.8 0 basechar 0
AnchorPoint: "above" 603 1312.2 basechar 0
Fore
616 106 m 0,0,1
 697 106 697 106 759 122 c 128,-1,2
 821 138 821 138 856.5 162 c 128,-1,3
 892 186 892 186 914 219.5 c 128,-1,4
 936 253 936 253 943 282 c 128,-1,5
 950 311 950 311 950 343 c 0,6,7
 950 421 950 421 891.5 473 c 128,-1,8
 833 525 833 525 709 557 c 2,9,-1
 384 643 l 2,10,11
 126 710 126 710 126 948 c 0,12,13
 126 1127 126 1127 251.5 1230.5 c 128,-1,14
 377 1334 377 1334 593 1334 c 0,15,16
 819 1334 819 1334 945 1227 c 128,-1,17
 1071 1120 1071 1120 1073 926 c 1,18,-1
 914 926 l 1,19,20
 912 1055 912 1055 828 1124 c 128,-1,21
 744 1193 744 1193 587 1193 c 0,22,23
 454 1193 454 1193 373.5 1132.5 c 128,-1,24
 293 1072 293 1072 293 972 c 0,25,26
 293 896 293 896 341 853 c 128,-1,27
 389 810 389 810 509 778 c 2,28,-1
 839 689 l 2,29,30
 973 653 973 653 1045.5 567.5 c 128,-1,31
 1118 482 1118 482 1118 360 c 0,32,33
 1118 307 1118 307 1104.5 256 c 128,-1,34
 1091 205 1091 205 1055 150 c 128,-1,35
 1019 95 1019 95 963.5 53.5 c 128,-1,36
 908 12 908 12 815.5 -14.5 c 128,-1,37
 723 -41 723 -41 605 -41 c 0,38,39
 531 -41 531 -41 463.5 -29.5 c 128,-1,40
 396 -18 396 -18 326 14 c 128,-1,41
 256 46 256 46 205 95.5 c 128,-1,42
 154 145 154 145 120.5 228 c 128,-1,43
 87 311 87 311 86 418 c 1,44,-1
 245 418 l 1,45,-1
 245 408 l 2,46,47
 245 353 245 353 262 304 c 128,-1,48
 279 255 279 255 318 208.5 c 128,-1,49
 357 162 357 162 433.5 134 c 128,-1,50
 510 106 510 106 616 106 c 0,0,1
EndSplineSet
EndChar
StartChar: T
Encoding: 84 84 54
Width: 1099
GlyphClass: 2
Flags: W
HStem: 0 38G<470 637> 1164 148<38 1068>
VStem: 470 168<0 1164>
AnchorPoint: "below" 549 0 basechar 0
AnchorPoint: "above" 554.4 1312.2 basechar 0
Fore
637 1164 m 1,0,-1
 637 0 l 1,1,-1
 470 0 l 1,2,-1
 470 1164 l 1,3,-1
 38 1164 l 1,4,-1
 38 1313 l 1,5,-1
 1068 1313 l 1,6,-1
 1068 1164 l 1,7,-1
 637 1164 l 1,0,-1
EndSplineSet
EndChar
StartChar: U
Encoding: 85 85 55
Width: 1299
GlyphClass: 2
Flags: W
HStem: -41 148<499 809> 1277 36G<154 320 994 1162>
VStem: 154 168<257 1313> 994 168<259 1313>
AnchorPoint: "below" 657 0 basechar 0
AnchorPoint: "above" 657 1312.2 basechar 0
Fore
994 1313 m 1,0,-1
 1162 1313 l 1,1,-1
 1162 391 l 2,2,3
 1162 193 1162 193 1024 76 c 128,-1,4
 886 -41 886 -41 655 -41 c 0,5,6
 422 -41 422 -41 288 75 c 128,-1,7
 154 191 154 191 154 391 c 2,8,-1
 154 1313 l 1,9,-1
 320 1313 l 1,10,-1
 320 391 l 2,11,12
 320 248 320 248 411.5 177 c 128,-1,13
 503 106 503 106 655 106 c 0,14,15
 813 106 813 106 903.5 182 c 128,-1,16
 994 258 994 258 994 391 c 2,17,-1
 994 1313 l 1,0,-1
EndSplineSet
EndChar
StartChar: V
Encoding: 86 86 56
Width: 1200
GlyphClass: 2
Flags: W
HStem: 0 38G<526 706> 1277 36G<54 234 983 1162>
AnchorPoint: "above" 619.2 1312.2 basechar 0
AnchorPoint: "below" 619.2 0 basechar 0
Fore
706 0 m 1,0,-1
 526 0 l 1,1,-1
 54 1313 l 1,2,-1
 234 1313 l 1,3,-1
 619 202 l 1,4,-1
 983 1313 l 1,5,-1
 1162 1313 l 1,6,-1
 706 0 l 1,0,-1
EndSplineSet
EndChar
StartChar: W
Encoding: 87 87 57
Width: 1699
GlyphClass: 2
Flags: W
HStem: 0 38G<377 559 1156 1339> 1277 36G<40 227 766 946 1486 1673>
AnchorPoint: "below" 855 0 basechar 0
AnchorPoint: "above" 855 1312.2 basechar 0
Fore
1339 0 m 1,0,-1
 1156 0 l 1,1,-1
 853 1078 l 1,2,-1
 559 0 l 1,3,-1
 377 0 l 1,4,-1
 40 1313 l 1,5,-1
 227 1313 l 1,6,-1
 473 247 l 1,7,-1
 766 1313 l 1,8,-1
 946 1313 l 1,9,-1
 1243 247 l 1,10,-1
 1486 1313 l 1,11,-1
 1673 1313 l 1,12,-1
 1339 0 l 1,0,-1
EndSplineSet
EndChar
StartChar: X
Encoding: 88 88 58
Width: 1200
GlyphClass: 2
Flags: W
HStem: 0 38G<40 242 961 1169> 1277 36G<68 271 947 1147>
AnchorPoint: "above" 599.4 1312.2 basechar 0
AnchorPoint: "below" 599.4 0 basechar 0
Fore
703 673 m 1,0,-1
 1169 0 l 1,1,-1
 961 0 l 1,2,-1
 602 547 l 1,3,-1
 242 0 l 1,4,-1
 40 0 l 1,5,-1
 504 673 l 1,6,-1
 68 1313 l 1,7,-1
 271 1313 l 1,8,-1
 608 797 l 1,9,-1
 947 1313 l 1,10,-1
 1147 1313 l 1,11,-1
 703 673 l 1,0,-1
EndSplineSet
EndChar
StartChar: Y
Encoding: 89 89 59
Width: 1200
GlyphClass: 2
Flags: W
HStem: 0 38G<529 696> 1277 36G<24 230 990 1190>
VStem: 529 168<0 515>
AnchorPoint: "below" 617.4 3.59961 basechar 0
AnchorPoint: "above" 617.4 1315.8 basechar 0
Fore
696 515 m 1,0,-1
 696 0 l 1,1,-1
 529 0 l 1,2,-1
 529 515 l 1,3,-1
 24 1313 l 1,4,-1
 230 1313 l 1,5,-1
 616 673 l 1,6,-1
 990 1313 l 1,7,-1
 1190 1313 l 1,8,-1
 696 515 l 1,0,-1
EndSplineSet
EndChar
StartChar: Z
Encoding: 90 90 60
Width: 1099
GlyphClass: 2
Flags: W
HStem: 0 148<50 1049> 1164 148<101 1046>
AnchorPoint: "above" 574.2 1312.2 basechar 0
Fore
1046 1313 m 1,0,-1
 1046 1162 l 1,1,-1
 262 148 l 1,2,-1
 1049 148 l 1,3,-1
 1049 0 l 1,4,-1
 50 0 l 1,5,-1
 50 148 l 1,6,-1
 839 1164 l 1,7,-1
 101 1164 l 1,8,-1
 101 1313 l 1,9,-1
 1046 1313 l 1,0,-1
EndSplineSet
EndChar
StartChar: bracketleft
Encoding: 91 91 61
Width: 500
GlyphClass: 2
Flags: W
HStem: -382 130<115 450> 1183 130<115 450>
VStem: 115 149<-382 1313>
Fore
450 1313 m 1,0,-1
 450 1183 l 1,1,-1
 264 1183 l 1,2,-1
 264 -252 l 1,3,-1
 450 -252 l 1,4,-1
 450 -382 l 1,5,-1
 115 -382 l 1,6,-1
 115 1313 l 1,7,-1
 450 1313 l 1,0,-1
EndSplineSet
EndChar
StartChar: backslash
Encoding: 92 92 62
Width: 500
GlyphClass: 2
Flags: W
HStem: -36 38G<413 511> 1277 36G<-14 84>
Fore
84 1313 m 1,0,-1
 511 -36 l 1,1,-1
 413 -36 l 1,2,-1
 -14 1313 l 1,3,-1
 84 1313 l 1,0,-1
EndSplineSet
EndChar
StartChar: bracketright
Encoding: 93 93 63
Width: 500
GlyphClass: 2
Flags: W
HStem: -382 130<41 377> 1183 130<41 377>
VStem: 227 149<-382 1313>
Fore
41 -382 m 1,0,-1
 41 -252 l 1,1,-1
 227 -252 l 1,2,-1
 227 1183 l 1,3,-1
 41 1183 l 1,4,-1
 41 1313 l 1,5,-1
 377 1313 l 1,6,-1
 377 -382 l 1,7,-1
 41 -382 l 1,0,-1
EndSplineSet
EndChar
StartChar: asciicircum
Encoding: 94 94 64
Width: 843
GlyphClass: 2
Flags: W
HStem: 1241 36G<355 486>
Fore
355 1277 m 1,0,-1
 486 1277 l 1,1,-1
 766 593 l 1,2,-1
 641 593 l 1,3,-1
 421 1133 l 1,4,-1
 204 593 l 1,5,-1
 79 593 l 1,6,-1
 355 1277 l 1,0,-1
EndSplineSet
EndChar
StartChar: underscore
Encoding: 95 95 65
Width: 1000
GlyphClass: 2
Flags: W
HStem: -317 90<-40 1040>
Fore
1040 -227 m 1,0,-1
 1040 -317 l 1,1,-1
 -40 -317 l 1,2,-1
 -40 -227 l 1,3,-1
 1040 -227 l 1,0,-1
EndSplineSet
EndChar
StartChar: grave
Encoding: 96 96 66
Width: 598
GlyphClass: 2
Flags: W
HStem: 1296 36G<40 242>
Fore
242 1332 m 1,0,-1
 415 1066 l 1,1,-1
 307 1066 l 1,2,-1
 40 1332 l 1,3,-1
 242 1332 l 1,0,-1
EndSplineSet
EndChar
StartChar: a
Encoding: 97 97 67
Width: 1000
GlyphClass: 2
Flags: W
HStem: -41 132<290 506> 832 139<410 611>
VStem: 76 156<152 364> 701 149<158 797>
AnchorPoint: "below" 493.2 0 basechar 0
AnchorPoint: "above" 493.2 968.4 basechar 0
Fore
118 665 m 1,0,1
 120 738 120 738 144.5 794 c 128,-1,2
 169 850 169 850 205 882.5 c 128,-1,3
 241 915 241 915 292 935.5 c 128,-1,4
 343 956 343 956 391 963 c 128,-1,5
 439 970 439 970 494 970 c 0,6,7
 669 970 669 970 759.5 904.5 c 128,-1,8
 850 839 850 839 850 713 c 2,9,-1
 850 158 l 2,10,11
 850 123 850 123 871 103.5 c 128,-1,12
 892 84 892 84 931 84 c 0,13,14
 947 84 947 84 962 89 c 1,15,-1
 962 -25 l 1,16,17
 903 -41 903 -41 860 -41 c 0,18,19
 787 -41 787 -41 750.5 -7.5 c 128,-1,20
 714 26 714 26 706 97 c 1,21,22
 627 24 627 24 550.5 -8.5 c 128,-1,23
 474 -41 474 -41 385 -41 c 0,24,25
 242 -41 242 -41 159 34 c 128,-1,26
 76 109 76 109 76 238 c 0,27,28
 76 395.894 76 395.894 186.449 462.311 c 0,29,30
 261.739 507.586 261.739 507.586 445.336 533.78 c 0,31,32
 471.195 537.469 471.195 537.469 544 547 c 0,33,34
 633 558 633 558 667 581 c 128,-1,35
 701 604 701 604 701 652 c 2,36,-1
 701 691 l 2,37,38
 701 758 701 758 646 795 c 128,-1,39
 591 832 591 832 490 832 c 0,40,41
 384 832 384 832 331 791.5 c 128,-1,42
 278 751 278 751 269 665 c 1,43,-1
 118 665 l 1,0,1
418 90 m 0,44,45
 542 90 542 90 621.5 156 c 128,-1,46
 701 222 701 222 701 298 c 2,47,-1
 701 466 l 1,48,49
 662 448 662 448 594.5 436.5 c 128,-1,50
 527 425 527 425 468.5 416 c 128,-1,51
 410 407 410 407 354.5 390.5 c 128,-1,52
 299 374 299 374 266 337 c 128,-1,53
 233 300 233 300 233 241 c 0,54,55
 233 170 233 170 281.5 130 c 128,-1,56
 330 90 330 90 418 90 c 0,44,45
EndSplineSet
EndChar
StartChar: b
Encoding: 98 98 68
Width: 1000
GlyphClass: 2
Flags: W
HStem: -41 140<430 655> 830 140<430 662> 1277 36G<97 247>
VStem: 97 134<0 120> 97 149<354 575 816 1313> 785 156<319 629>
AnchorPoint: "below" 493.2 0 basechar 0
Fore
97 1313 m 1,0,-1
 247 1313 l 1,1,-1
 247 816 l 1,2,3
 299 895 299 895 369.5 932.5 c 128,-1,4
 440 970 440 970 538 970 c 0,5,6
 725 970 725 970 833 837 c 128,-1,7
 941 704 941 704 941 475 c 0,8,9
 941 240 941 240 829 99.5 c 128,-1,10
 717 -41 717 -41 530 -41 c 0,11,12
 339 -41 339 -41 233 120 c 1,13,-1
 233 0 l 1,14,-1
 97 0 l 1,15,-1
 97 1313 l 1,0,-1
509 830 m 0,16,17
 390 830 390 830 318.5 730.5 c 128,-1,18
 247 631 247 631 247 464 c 128,-1,19
 247 297 247 297 318.5 197.5 c 128,-1,20
 390 98 390 98 509 98 c 0,21,22
 632 98 632 98 708.5 198 c 128,-1,23
 785 298 785 298 785 458 c 0,24,25
 785 628 785 628 710 729 c 128,-1,26
 635 830 635 830 509 830 c 0,16,17
EndSplineSet
EndChar
StartChar: c
Encoding: 99 99 69
Width: 900
GlyphClass: 2
Flags: W
HStem: -41 139<346 586> 832 139<348 583>
VStem: 55 156<304 612>
AnchorPoint: "below" 493.2 0 basechar 0
AnchorPoint: "above" 477 968.4 basechar 0
Fore
847 626 m 1,0,-1
 696 626 l 1,1,2
 683 725 683 725 625.5 778.5 c 128,-1,3
 568 832 568 832 473 832 c 0,4,5
 351 832 351 832 281.5 732 c 128,-1,6
 212 632 212 632 212 456 c 0,7,8
 212 289 212 289 283 193 c 128,-1,9
 354 97 354 97 478 97 c 0,10,11
 669 97 669 97 708 324 c 1,12,-1
 859 324 l 1,13,14
 845 151 845 151 743.5 55 c 128,-1,15
 642 -41 642 -41 473 -41 c 0,16,17
 281 -41 281 -41 168 93.5 c 128,-1,18
 55 228 55 228 55 456 c 0,19,20
 55 690 55 690 169.5 830 c 128,-1,21
 284 970 284 970 475 970 c 0,22,23
 639 970 639 970 736.5 881.5 c 128,-1,24
 834 793 834 793 847 626 c 1,0,-1
EndSplineSet
EndChar
StartChar: d
Encoding: 100 100 70
Width: 1000
GlyphClass: 2
Flags: W
HStem: -41 140<330 558> 830 140<329 558> 1277 36G<742 890>
VStem: 47 156<314 624> 742 149<352 574 824 1313> 758 133<0 125>
AnchorPoint: "below" 493.2 0 basechar 0
Fore
890 1313 m 1,0,-1
 890 0 l 1,1,-1
 758 0 l 1,2,-1
 758 125 l 1,3,4
 698 37 698 37 626.5 -2 c 128,-1,5
 555 -41 555 -41 457 -41 c 0,6,7
 267 -41 267 -41 157 97 c 128,-1,8
 47 235 47 235 47 473 c 0,9,10
 47 699 47 699 157 834.5 c 128,-1,11
 267 970 267 970 451 970 c 0,12,13
 645 970 645 970 742 824 c 1,14,-1
 742 1313 l 1,15,-1
 890 1313 l 1,0,-1
478 830 m 0,16,17
 354 830 354 830 279 729.5 c 128,-1,18
 204 629 204 629 204 464 c 128,-1,19
 204 299 204 299 279.5 198.5 c 128,-1,20
 355 98 355 98 479 98 c 0,21,22
 598 98 598 98 670 197.5 c 128,-1,23
 742 297 742 297 742 461 c 0,24,25
 742 630 742 630 670 730 c 128,-1,26
 598 830 598 830 478 830 c 0,16,17
EndSplineSet
EndChar
StartChar: e
Encoding: 101 101 71
Width: 1000
GlyphClass: 2
Flags: W
HStem: -41 139<368 608> 421 122<228 924> 832 139<372 593>
VStem: 763 161<421 631>
AnchorPoint: "below" 493.2 0 basechar 0
AnchorPoint: "above" 513 968.4 basechar 0
Fore
924 421 m 1,0,-1
 228 421 l 1,1,2
 230 350 230 350 240.5 305 c 128,-1,3
 251 260 251 260 278 220 c 0,4,5
 356 97 356 97 506 97 c 0,6,7
 688 97 688 97 752 286 c 1,8,-1
 904 286 l 1,9,10
 875 133 875 133 768.5 46 c 128,-1,11
 662 -41 662 -41 500 -41 c 0,12,13
 301 -41 301 -41 186.5 92.5 c 128,-1,14
 72 226 72 226 72 458 c 0,15,16
 72 691 72 691 189.5 830.5 c 128,-1,17
 307 970 307 970 504 970 c 0,18,19
 636 970 636 970 737.5 904 c 128,-1,20
 839 838 839 838 886 722 c 0,21,22
 924 620 924 620 924 421 c 1,0,-1
233 544 m 5,23,-1
 761 544 l 1,24,25
 763 547 763 547 763 554 c 0,26,27
 763 671 763 671 688 751.5 c 128,-1,28
 613 832 613 832 502 832 c 0,29,30
 388 832 388 832 315 753.5 c 128,-1,31
 242 675 242 675 233 544 c 5,23,-1
EndSplineSet
EndChar
StartChar: f
Encoding: 102 102 72
Width: 500
GlyphClass: 2
Flags: W
HStem: 0 38G<158 307> 821 122<32 158 307 464> 1186 132<311 419>
VStem: 158 149<0 821 943 1104>
AnchorPoint: "below" 241.2 3.59961 basechar 0
Fore
464 943 m 1,0,-1
 464 821 l 1,1,-1
 307 821 l 1,2,-1
 307 0 l 1,3,-1
 158 0 l 1,4,-1
 158 821 l 1,5,-1
 32 821 l 1,6,-1
 32 943 l 1,7,-1
 158 943 l 1,8,-1
 158 1104 l 2,9,10
 158 1204 158 1204 216.5 1261 c 128,-1,11
 275 1318 275 1318 379 1318 c 0,12,13
 415 1318 415 1318 464 1308 c 1,14,-1
 464 1184 l 1,15,16
 430 1186 430 1186 413 1186 c 0,17,18
 307 1186 307 1186 307 1091 c 2,19,-1
 307 943 l 1,20,-1
 464 943 l 1,0,-1
EndSplineSet
EndChar
StartChar: g
Encoding: 103 103 73
Width: 1000
GlyphClass: 2
Flags: W
HStem: -392 126<348 638> -41 139<334 551> 832 139<334 551>
VStem: 53 156<301 608> 727 154<-29 155 -10 577> 742 139<806 943>
AnchorPoint: "below" 468 -360 basechar 0
AnchorPoint: "above" 450 968.4 basechar 0
Fore
442 -41 m 0,0,1
 276 -41 276 -41 164.5 95 c 128,-1,2
 53 231 53 231 53 456 c 0,3,4
 53 685 53 685 163.5 827.5 c 128,-1,5
 274 970 274 970 454 970 c 0,6,7
 631 970 631 970 742 806 c 1,8,-1
 742 943 l 1,9,-1
 881 943 l 1,10,-1
 881 155 l 2,11,12
 881 49 881 49 871.5 -28.5 c 128,-1,13
 862 -106 862 -106 835 -178 c 128,-1,14
 808 -250 808 -250 762 -294.5 c 128,-1,15
 716 -339 716 -339 639.5 -365.5 c 128,-1,16
 563 -392 563 -392 458 -392 c 0,17,18
 293 -392 293 -392 193.5 -316.5 c 128,-1,19
 94 -241 94 -241 83 -108 c 1,20,-1
 235 -108 l 1,21,22
 243 -152 243 -152 265.5 -183.5 c 128,-1,23
 288 -215 288 -215 313 -230.5 c 128,-1,24
 338 -246 338 -246 372 -254.5 c 128,-1,25
 406 -263 406 -263 424.5 -264.5 c 128,-1,26
 443 -266 443 -266 464 -266 c 0,27,28
 542 -266 542 -266 594.5 -243.5 c 128,-1,29
 647 -221 647 -221 675.5 -174 c 128,-1,30
 704 -127 704 -127 715.5 -67 c 128,-1,31
 727 -7 727 -7 727 79 c 2,32,-1
 727 127 l 1,33,34
 664 39 664 39 596.5 -1 c 128,-1,35
 529 -41 529 -41 442 -41 c 0,0,1
470 832 m 0,36,37
 350 832 350 832 279.5 733 c 128,-1,38
 209 634 209 634 209 464 c 0,39,40
 209 292 209 292 278.5 194.5 c 128,-1,41
 348 97 348 97 472 97 c 0,42,43
 591 97 591 97 659 193.5 c 128,-1,44
 727 290 727 290 727 458 c 0,45,46
 727 635 727 635 659 733.5 c 128,-1,47
 591 832 591 832 470 832 c 0,36,37
EndSplineSet
EndChar
StartChar: h
Encoding: 104 104 74
Width: 1000
GlyphClass: 2
Flags: W
HStem: 0 38G<126 276 725 875> 839 132<454 670> 1277 36G<126 276>
VStem: 126 149<0 1313> 725 149<0 792>
AnchorPoint: "below" 493.2 0 basechar 0
AnchorPoint: "above" 198 1288.8 basechar 0
Fore
725 653 m 2,0,1
 725 706 725 706 706 744.5 c 128,-1,2
 687 783 687 783 656 802.5 c 128,-1,3
 625 822 625 822 594 830.5 c 128,-1,4
 563 839 563 839 530 839 c 0,5,6
 415 839 415 839 345.5 752 c 128,-1,7
 276 665 276 665 276 521 c 2,8,-1
 276 0 l 1,9,-1
 126 0 l 1,10,-1
 126 1313 l 1,11,-1
 276 1313 l 1,12,-1
 276 814 l 1,13,14
 342 900 342 900 409.5 935 c 128,-1,15
 477 970 477 970 578 970 c 0,16,17
 715 970 715 970 795 901 c 128,-1,18
 875 832 875 832 875 713 c 2,19,-1
 875 0 l 1,20,-1
 725 0 l 1,21,-1
 725 653 l 2,0,1
EndSplineSet
EndChar
StartChar: i
Encoding: 105 105 75
Width: 399
GlyphClass: 2
Flags: W
HStem: 0 38<120 270> 907 36<120 270> 1277 36G<119 270>
VStem: 119 151<1123 1313> 120 149<0 943>
AnchorPoint: "below" 198 0 basechar 0
AnchorPoint: "above" 199.8 1337.4 basechar 0
Fore
270 1313 m 1,0,-1
 270 1123 l 1,1,-1
 119 1123 l 1,2,-1
 119 1313 l 1,3,-1
 270 1313 l 1,0,-1
EndSplineSet
Refer: 201 305 N 1 0 0 1 -48 0 0
EndChar
StartChar: j
Encoding: 106 106 76
Width: 399
GlyphClass: 2
Flags: W
HStem: -392 132<1 103> 907 36<126 276> 1277 36G<126 276>
VStem: 126 149<-260 943 1123 1313>
AnchorPoint: "below" 158.4 -360 basechar 0
AnchorPoint: "above" 197.1 1337.4 basechar 0
Fore
126 943 m 1,0,-1
 276 943 l 1,1,-1
 276 -197 l 2,2,3
 276 -292 276 -292 210.5 -342 c 128,-1,4
 145 -392 145 -392 18 -392 c 0,5,6
 -10 -392 -10 -392 -32 -386 c 1,7,-1
 -32 -259 l 1,8,9
 -2 -262 -2 -262 4 -262 c 0,10,11
 73 -262 73 -262 99.5 -234.5 c 128,-1,12
 126 -207 126 -207 126 -137 c 2,13,-1
 126 943 l 1,0,-1
276 1313 m 1,0,-1
 276 1123 l 1,1,-1
 126 1123 l 1,2,-1
 126 1313 l 1,3,-1
 276 1313 l 1,0,-1
EndSplineSet
EndChar
StartChar: k
Encoding: 107 107 77
Width: 900
GlyphClass: 2
Flags: W
HStem: 0 38G<104 254 718 904> 907 36G<653 846> 1277 36G<104 254>
VStem: 104 149<0 1313>
AnchorPoint: "above" 183.6 1288.8 basechar 0
AnchorPoint: "below" 471.6 0 basechar 0
Fore
254 1313 m 1,0,-1
 254 544 l 1,1,-1
 653 943 l 1,2,-1
 846 943 l 1,3,-1
 518 617 l 1,4,-1
 904 0 l 1,5,-1
 718 0 l 1,6,-1
 400 511 l 1,7,-1
 254 367 l 1,8,-1
 254 0 l 1,9,-1
 104 0 l 1,10,-1
 104 1313 l 1,11,-1
 254 1313 l 1,0,-1
EndSplineSet
EndChar
StartChar: l
Encoding: 108 108 78
Width: 399
GlyphClass: 2
Flags: W
HStem: 0 38G<122 274> 1277 36G<122 274>
VStem: 122 151<0 1313>
AnchorPoint: "above" 199.8 1337.4 basechar 0
AnchorPoint: "below" 194.4 0 basechar 0
Fore
274 1313 m 5,0,-1
 274 0 l 1,1,-1
 122 0 l 1,2,-1
 122 1313 l 1,3,-1
 274 1313 l 5,0,-1
EndSplineSet
EndChar
StartChar: m
Encoding: 109 109 79
Width: 1498
GlyphClass: 2
Flags: W
HStem: 0 38G<126 277 673 824 1220 1372> 839 132<437 616 984 1186>
VStem: 126 151<0 660> 126 139<810 943> 673 151<0 710> 1220 151<0 792>
AnchorPoint: "above" 749.7 968.4 basechar 0
AnchorPoint: "below" 741.6 -3.59961 basechar 0
Fore
126 943 m 1,0,-1
 264 943 l 1,1,-1
 264 810 l 1,2,3
 326 896 326 896 393 933 c 128,-1,4
 460 970 460 970 554 970 c 0,5,6
 646 970 646 970 706 935.5 c 128,-1,7
 766 901 766 901 809 826 c 1,8,9
 874 906 874 906 939 938 c 128,-1,10
 1004 970 1004 970 1098 970 c 0,11,12
 1230 970 1230 970 1301 902 c 128,-1,13
 1372 834 1372 834 1372 708 c 2,14,-1
 1372 0 l 1,15,-1
 1220 0 l 1,16,-1
 1220 650 l 2,17,18
 1220 739 1220 739 1174 789 c 128,-1,19
 1128 839 1128 839 1046 839 c 0,20,21
 954 839 954 839 889 767 c 128,-1,22
 824 695 824 695 824 593 c 2,23,-1
 824 0 l 1,24,-1
 673 0 l 1,25,-1
 673 650 l 2,26,27
 673 740 673 740 627.5 789.5 c 128,-1,28
 582 839 582 839 499 839 c 0,29,30
 407 839 407 839 342 767 c 128,-1,31
 277 695 277 695 277 593 c 2,32,-1
 277 0 l 1,33,-1
 126 0 l 1,34,-1
 126 943 l 1,0,-1
EndSplineSet
EndChar
StartChar: n
Encoding: 110 110 80
Width: 1000
GlyphClass: 2
Flags: W
HStem: 0 38G<126 277 727 876> 839 132<456 668>
VStem: 126 151<0 617> 126 139<785 943> 727 149<0 791>
AnchorPoint: "below" 493.2 0 basechar 0
AnchorPoint: "above" 500.4 968.4 basechar 0
Fore
126 943 m 1,0,-1
 264 943 l 1,1,-1
 264 785 l 1,2,3
 327 884 327 884 399.5 927 c 128,-1,4
 472 970 472 970 578 970 c 0,5,6
 714 970 714 970 795 900 c 128,-1,7
 876 830 876 830 876 713 c 2,8,-1
 876 0 l 1,9,-1
 727 0 l 1,10,-1
 727 653 l 2,11,12
 727 739 727 739 674.5 789 c 128,-1,13
 622 839 622 839 533 839 c 0,14,15
 417 839 417 839 347 752 c 128,-1,16
 277 665 277 665 277 521 c 2,17,-1
 277 0 l 1,18,-1
 126 0 l 1,19,-1
 126 943 l 1,0,-1
EndSplineSet
EndChar
StartChar: o
Encoding: 111 111 81
Width: 1000
GlyphClass: 2
Flags: W
HStem: -41 139<358 624> 832 139<358 625>
VStem: 65 156<306 623> 761 156<302 620>
AnchorPoint: "below" 491.4 0 basechar 0
AnchorPoint: "above" 489.6 968.4 basechar 0
Fore
490 970 m 0,0,1
 693 970 693 970 805.5 835.5 c 128,-1,2
 918 701 918 701 918 457 c 0,3,4
 918 225 918 225 804 92 c 128,-1,5
 690 -41 690 -41 492 -41 c 0,6,7
 291 -41 291 -41 178 93 c 128,-1,8
 65 227 65 227 65 464 c 128,-1,9
 65 701 65 701 178.5 835.5 c 128,-1,10
 292 970 292 970 490 970 c 0,0,1
492 832 m 128,-1,12
 366 832 366 832 293.5 733 c 128,-1,13
 221 634 221 634 221 464 c 0,14,15
 221 293 221 293 293.5 195 c 128,-1,16
 366 97 366 97 492 97 c 0,17,18
 616 97 616 97 688.5 194.5 c 128,-1,19
 761 292 761 292 761 458 c 0,20,21
 761 635 761 635 689.5 733.5 c 128,-1,11
 618 832 618 832 492 832 c 128,-1,12
EndSplineSet
EndChar
StartChar: p
Encoding: 112 112 82
Width: 1000
GlyphClass: 2
Flags: W
HStem: -41 140<432 660> 830 140<432 661>
VStem: 97 139<802 943> 97 151<-392 98 354 575> 785 156<305 614>
AnchorPoint: "below" 489.6 -360 basechar 0
AnchorPoint: "above" 489.6 968.4 basechar 0
Fore
97 -392 m 1,0,-1
 97 943 l 1,1,-1
 235 943 l 1,2,-1
 235 802 l 1,3,4
 343 970 343 970 536 970 c 0,5,6
 724 970 724 970 832.5 832 c 128,-1,7
 941 694 941 694 941 456 c 0,8,9
 941 230 941 230 830.5 94.5 c 128,-1,10
 720 -41 720 -41 538 -41 c 0,11,12
 446 -41 446 -41 377 -7.5 c 128,-1,13
 308 26 308 26 248 98 c 1,14,-1
 248 -392 l 1,15,-1
 97 -392 l 1,0,-1
511 830 m 0,16,17
 392 830 392 830 320 730 c 128,-1,18
 248 630 248 630 248 464 c 128,-1,19
 248 298 248 298 320 198 c 128,-1,20
 392 98 392 98 511 98 c 0,21,22
 633 98 633 98 709 198 c 128,-1,23
 785 298 785 298 785 458 c 0,24,25
 785 627 785 627 710.5 728.5 c 128,-1,26
 636 830 636 830 511 830 c 0,16,17
EndSplineSet
EndChar
StartChar: q
Encoding: 113 113 83
Width: 1000
GlyphClass: 2
Flags: W
HStem: -41 140<326 558> 830 140<334 559>
VStem: 47 156<300 610> 742 149<-392 108 350 572> 758 133<817 943>
AnchorPoint: "below" 489.6 -360 basechar 0
AnchorPoint: "above" 489.6 968.4 basechar 0
Fore
890 -392 m 1,0,-1
 742 -392 l 1,1,-1
 742 108 l 1,2,3
 690 31 690 31 619 -5 c 128,-1,4
 548 -41 548 -41 450 -41 c 0,5,6
 264 -41 264 -41 155.5 92 c 128,-1,7
 47 225 47 225 47 454 c 0,8,9
 47 689 47 689 159 829.5 c 128,-1,10
 271 970 271 970 457 970 c 0,11,12
 551 970 551 970 628.5 931 c 128,-1,13
 706 892 706 892 758 817 c 1,14,-1
 758 943 l 1,15,-1
 890 943 l 1,16,-1
 890 -392 l 1,0,-1
479 830 m 0,17,18
 355 830 355 830 279.5 729 c 128,-1,19
 204 628 204 628 204 464 c 0,20,21
 204 299 204 299 279.5 198.5 c 128,-1,22
 355 98 355 98 479 98 c 0,23,24
 597 98 597 98 669.5 197 c 128,-1,25
 742 296 742 296 742 458 c 0,26,27
 742 628 742 628 670.5 729 c 128,-1,28
 599 830 599 830 479 830 c 0,17,18
EndSplineSet
EndChar
StartChar: r
Encoding: 114 114 84
Width: 598
GlyphClass: 2
Flags: W
HStem: 0 38G<125 276> 811 158<472 578>
VStem: 125 139<773 943> 125 151<0 622>
AnchorPoint: "below" 198 0 basechar 0
AnchorPoint: "above" 343.8 968.4 basechar 0
Fore
578 811 m 1,0,1
 504 810 504 810 453 796.5 c 128,-1,2
 402 783 402 783 359.5 749 c 128,-1,3
 317 715 317 715 296.5 650.5 c 128,-1,4
 276 586 276 586 276 490 c 2,5,-1
 276 0 l 1,6,-1
 125 0 l 1,7,-1
 125 943 l 1,8,-1
 263 943 l 1,9,-1
 263 773 l 1,10,11
 328 878 328 878 387.5 924 c 128,-1,12
 447 970 447 970 521 970 c 0,13,14
 535 970 535 970 578 965 c 1,15,-1
 578 811 l 1,0,1
EndSplineSet
EndChar
StartChar: s
Encoding: 115 115 85
Width: 900
GlyphClass: 2
Flags: W
HStem: -41 139<314 557> 832 139<336 556>
VStem: 84 156<608 769> 670 156<167 328>
AnchorPoint: "below" 435.6 0 basechar 0
AnchorPoint: "above" 442.8 968.4 basechar 0
Fore
220 281 m 1,0,1
 224 250 224 250 231 226.5 c 128,-1,2
 238 203 238 203 254 177 c 128,-1,3
 270 151 270 151 293.5 135 c 128,-1,4
 317 119 317 119 357 108 c 128,-1,5
 397 97 397 97 450 97 c 0,6,7
 548 97 548 97 609 137.5 c 128,-1,8
 670 178 670 178 670 245 c 0,9,10
 670 296 670 296 636 326.5 c 128,-1,11
 602 357 602 357 523 377 c 2,12,-1
 384 410 l 2,13,14
 217 450 217 450 150.5 511 c 128,-1,15
 84 572 84 572 84 682 c 0,16,17
 84 813 84 813 183 891.5 c 128,-1,18
 282 970 282 970 446 970 c 128,-1,19
 610 970 610 970 698.5 895 c 128,-1,20
 787 820 787 820 788 680 c 1,21,-1
 630 680 l 1,22,23
 624 832 624 832 442 832 c 0,24,25
 350 832 350 832 295.5 793 c 128,-1,26
 241 754 241 754 241 689 c 0,27,28
 241 640 241 640 282 608 c 128,-1,29
 323 576 323 576 415 554 c 2,30,-1
 559 521 l 2,31,32
 700 486 700 486 763 424 c 128,-1,33
 826 362 826 362 826 257 c 0,34,35
 826 121 826 121 720.5 40 c 128,-1,36
 615 -41 615 -41 437 -41 c 0,37,38
 252 -41 252 -41 159 38 c 128,-1,39
 66 117 66 117 61 281 c 1,40,-1
 220 281 l 1,0,1
EndSplineSet
EndChar
StartChar: t
Encoding: 116 116 86
Width: 500
GlyphClass: 2
Flags: W
HStem: -41 132<276 400> 821 122<25 154 302 457>
VStem: 154 149<108 821 943 1202>
AnchorPoint: "below" 280.8 0 basechar 0
Fore
457 943 m 5,0,-1
 457 821 l 1,1,-1
 302 821 l 1,2,-1
 302 175 l 2,3,4
 302 125 302 125 319 107.5 c 128,-1,5
 336 90 336 90 385 90 c 128,-1,6
 434 90 434 90 457 97 c 1,7,-1
 457 -29 l 1,8,9
 390 -41 390 -41 335 -41 c 0,10,11
 247 -41 247 -41 200.5 -2.5 c 128,-1,12
 154 36 154 36 154 108 c 2,13,-1
 154 821 l 1,14,-1
 25 821 l 1,15,-1
 25 943 l 1,16,-1
 154 943 l 1,17,-1
 154 1202 l 1,18,-1
 302 1202 l 1,19,-1
 302 943 l 1,20,-1
 457 943 l 5,0,-1
EndSplineSet
EndChar
StartChar: u
Encoding: 117 117 87
Width: 1000
GlyphClass: 2
Flags: W
HStem: -41 132<326 539> 907 36G<118 266 718 868>
VStem: 118 149<138 943> 718 149<312 943> 732 134<0 132>
AnchorPoint: "above" 491.4 968.4 basechar 0
Fore
868 0 m 1,0,-1
 732 0 l 1,1,-1
 732 132 l 1,2,3
 666 38 666 38 594 -1.5 c 128,-1,4
 522 -41 522 -41 418 -41 c 0,5,6
 280 -41 280 -41 199 29 c 128,-1,7
 118 99 118 99 118 216 c 2,8,-1
 118 943 l 1,9,-1
 266 943 l 1,10,-1
 266 276 l 2,11,12
 266 191 266 191 319 140.5 c 128,-1,13
 372 90 372 90 461 90 c 0,14,15
 578 90 578 90 648 177 c 128,-1,16
 718 264 718 264 718 408 c 2,17,-1
 718 943 l 1,18,-1
 868 943 l 1,19,-1
 868 0 l 1,0,-1
EndSplineSet
EndChar
StartChar: v
Encoding: 118 118 88
Width: 900
GlyphClass: 2
Flags: W
HStem: 0 38G<349 514> 907 36G<18 187 706 875>
Fore
514 0 m 1,0,-1
 349 0 l 1,1,-1
 18 943 l 1,2,-1
 187 943 l 1,3,-1
 439 178 l 1,4,-1
 706 943 l 1,5,-1
 875 943 l 1,6,-1
 514 0 l 1,0,-1
EndSplineSet
EndChar
StartChar: w
Encoding: 119 119 89
Width: 1299
GlyphClass: 2
Flags: W
HStem: 0 38G<284 454 826 997> 907 36G<11 176 550 732 1105 1274>
AnchorPoint: "above" 640.8 968.4 basechar 0
Fore
997 0 m 1,0,-1
 826 0 l 1,1,-1
 636 739 l 1,2,-1
 454 0 l 1,3,-1
 284 0 l 1,4,-1
 11 943 l 1,5,-1
 176 943 l 1,6,-1
 370 209 l 1,7,-1
 550 943 l 1,8,-1
 732 943 l 1,9,-1
 918 209 l 1,10,-1
 1105 943 l 1,11,-1
 1274 943 l 1,12,-1
 997 0 l 1,0,-1
EndSplineSet
EndChar
StartChar: x
Encoding: 120 120 90
Width: 900
GlyphClass: 2
Flags: W
HStem: 0 38G<31 202 677 852> 907 36G<48 220 673 842>
Fore
526 487 m 1,0,-1
 852 0 l 1,1,-1
 677 0 l 1,2,-1
 442 362 l 1,3,-1
 202 0 l 1,4,-1
 31 0 l 1,5,-1
 364 480 l 1,6,-1
 48 943 l 1,7,-1
 220 943 l 1,8,-1
 446 601 l 1,9,-1
 673 943 l 1,10,-1
 842 943 l 1,11,-1
 526 487 l 1,0,-1
EndSplineSet
EndChar
StartChar: y
Encoding: 121 121 91
Width: 900
GlyphClass: 2
Flags: W
HStem: -392 148<166 250> 907 36G<36 197 698 860>
AnchorPoint: "above" 446.4 968.4 basechar 0
Fore
698 943 m 1,0,-1
 860 943 l 1,1,-1
 442 -198 l 2,2,3
 367 -392 367 -392 198 -392 c 0,4,5
 141 -392 141 -392 97 -370 c 1,6,-1
 97 -234 l 1,7,8
 149 -245 149 -245 176 -245 c 0,9,10
 224 -245 224 -245 251 -224.5 c 128,-1,11
 278 -204 278 -204 298 -154 c 2,12,-1
 355 -4 l 1,13,-1
 36 943 l 1,14,-1
 197 943 l 1,15,-1
 437 209 l 1,16,-1
 698 943 l 1,0,-1
EndSplineSet
EndChar
StartChar: z
Encoding: 122 122 92
Width: 900
GlyphClass: 2
Flags: W
HStem: 0 132<55 823> 811 132<94 797>
AnchorPoint: "above" 450 968.4 basechar 0
Fore
797 943 m 1,0,-1
 797 810 l 1,1,-1
 238 132 l 1,2,-1
 823 132 l 1,3,-1
 823 0 l 1,4,-1
 55 0 l 1,5,-1
 55 134 l 1,6,-1
 619 811 l 1,7,-1
 94 811 l 1,8,-1
 94 943 l 1,9,-1
 797 943 l 1,0,-1
EndSplineSet
EndChar
StartChar: braceleft
Encoding: 123 123 93
Width: 601
GlyphClass: 2
Flags: W
HStem: -382 118<352 497 414 497> 1195 118<352 497 414 497>
VStem: 218 139<-146 257 749 1151>
Fore
497 1313 m 1,0,-1
 497 1195 l 1,1,-1
 470 1195 l 2,2,3
 404 1195 404 1195 380 1170 c 0,4,5
 356 1145 356 1145 356 1075 c 2,6,-1
 356 749 l 2,7,8
 356 624 356 624 323.5 561 c 0,9,10
 291 498 291 498 209 466 c 1,11,12
 285 432 285 432 320.5 363 c 0,13,14
 356 294 356 294 356 182 c 2,15,-1
 356 -144 l 2,16,17
 356 -214 356 -214 380 -239 c 0,18,19
 404 -264 404 -264 470 -264 c 2,20,-1
 497 -264 l 1,21,-1
 497 -382 l 1,22,-1
 414 -382 l 2,23,24
 321 -382 321 -382 269.5 -320 c 0,25,26
 218 -258 218 -258 218 -146 c 2,27,-1
 218 155 l 2,28,29
 218 279 218 279 187.5 333 c 0,30,31
 157 387 157 387 77 403 c 1,32,-1
 77 528 l 1,33,34
 157 545 157 545 187.5 597.5 c 0,35,36
 218 650 218 650 218 775 c 2,37,-1
 218 1076 l 2,38,39
 218 1188 218 1188 269.5 1250.5 c 0,40,41
 321 1313 321 1313 414 1313 c 2,42,-1
 497 1313 l 1,0,-1
EndSplineSet
EndChar
StartChar: bar
Encoding: 124 124 94
Width: 468
GlyphClass: 2
Flags: W
HStem: 1277 36G<180 288>
VStem: 180 108<-382 1313>
Fore
180 1313 m 5,0,-1
 288 1313 l 1,1,-1
 288 -382 l 1,2,-1
 180 -382 l 1,3,-1
 180 1313 l 5,0,-1
EndSplineSet
EndChar
StartChar: braceright
Encoding: 125 125 95
Width: 601
GlyphClass: 2
Flags: W
HStem: -382 118<53 199> 1195 118<53 199>
VStem: 197 139<-221 182 674 1076>
Fore
53 -382 m 1,0,-1
 53 -264 l 1,1,-1
 82 -264 l 2,2,3
 148 -264 148 -264 172.5 -239 c 0,4,5
 197 -214 197 -214 197 -144 c 2,6,-1
 197 182 l 2,7,8
 197 294 197 294 232.5 362.5 c 0,9,10
 268 431 268 431 343 464 c 1,11,12
 268 499 268 499 232.5 568.5 c 0,13,14
 197 638 197 638 197 749 c 2,15,-1
 197 1075 l 2,16,17
 197 1145 197 1145 172.5 1170 c 0,18,19
 148 1195 148 1195 82 1195 c 2,20,-1
 53 1195 l 1,21,-1
 53 1313 l 1,22,-1
 137 1313 l 2,23,24
 231 1313 231 1313 283 1251 c 0,25,26
 335 1189 335 1189 335 1076 c 2,27,-1
 335 775 l 2,28,29
 335 652 335 652 365 598.5 c 0,30,31
 395 545 395 545 472 528 c 1,32,-1
 472 403 l 1,33,34
 395 387 395 387 365 332.5 c 0,35,36
 335 278 335 278 335 155 c 2,37,-1
 335 -146 l 2,38,39
 335 -258 335 -258 283 -320 c 0,40,41
 231 -382 231 -382 137 -382 c 2,42,-1
 53 -382 l 1,0,-1
EndSplineSet
EndChar
StartChar: asciitilde
Encoding: 126 126 96
Width: 1051
GlyphClass: 2
Flags: W
HStem: 482 122<703 782> 667 120<271 346>
VStem: 818 96<642 739 686 739>
Fore
326 667 m 0,0,1
 242 667 242 667 230 528 c 1,2,-1
 134 528 l 1,3,4
 142 654 142 654 191.5 721 c 128,-1,5
 241 788 241 788 329 788 c 0,6,7
 379 788 379 788 427 760 c 2,8,-1
 637 636 l 2,9,10
 688 605 688 605 727 605 c 0,11,12
 775 605 775 605 796.5 635 c 128,-1,13
 818 665 818 665 818 731 c 2,14,-1
 818 739 l 1,15,-1
 914 739 l 1,16,-1
 914 710 l 2,17,18
 914 606 914 606 862.5 544 c 128,-1,19
 811 482 811 482 725 482 c 0,20,21
 655 482 655 482 580 529 c 2,22,-1
 403 643 l 2,23,24
 389 651 389 651 363.5 659 c 128,-1,25
 338 667 338 667 326 667 c 0,0,1
EndSplineSet
EndChar
StartChar: cent
Encoding: 162 162 99
Width: 1000
GlyphClass: 2
Flags: W
VStem: 94 156<312 602> 486 76<-216 -40 96 832 968 1130>
Fore
562 832 m 1,0,-1
 562 96 l 1,1,2
 734 114 734 114 767 324 c 1,3,-1
 918 324 l 1,4,5
 908 162 908 162 813 64 c 0,6,7
 718 -34 718 -34 562 -41 c 1,8,-1
 562 -216 l 1,9,-1
 486 -216 l 1,10,-1
 486 -40 l 1,11,12
 303 -23 303 -23 198.5 109 c 0,13,14
 94 241 94 241 94 456 c 0,15,16
 94 676 94 676 198.5 812.5 c 0,17,18
 303 949 303 949 486 968 c 1,19,-1
 486 1130 l 1,20,-1
 562 1130 l 1,21,-1
 562 970 l 1,22,23
 720 959 720 959 809.5 870 c 0,24,25
 899 781 899 781 907 626 c 1,26,-1
 756 626 l 1,27,28
 747 716 747 716 695.5 770.5 c 0,29,30
 644 825 644 825 562 832 c 1,0,-1
486 98 m 1,21,-1
 486 830 l 1,22,23
 370 809 370 809 310 714 c 0,24,25
 250 619 250 619 250 456 c 0,26,27
 250 303 250 303 311.5 209.5 c 0,28,29
 373 116 373 116 486 98 c 1,21,-1
EndSplineSet
EndChar
StartChar: sterling
Encoding: 163 163 100
Width: 1000
GlyphClass: 2
Flags: W
HStem: -41 166<652 774> 41 139<314 506> 578 98<47 245 371 659> 1171 140<406 602>
VStem: 97 168<886 1036> 288 154<383 467>
Fore
264 941 m 0,0,1
 264 891 264 891 278 851.5 c 0,2,3
 292 812 292 812 325.5 757 c 0,4,5
 359 702 359 702 371 677 c 1,6,-1
 659 677 l 1,7,-1
 659 578 l 1,8,-1
 414 578 l 1,9,10
 442 497 442 497 442 450 c 0,11,12
 442 379 442 379 396 306 c 0,13,14
 350 233 350 233 228 110 c 1,15,16
 336 180 336 180 449 180 c 0,17,18
 509 180 509 180 601.5 152.5 c 0,19,20
 694 125 694 125 738 125 c 0,21,22
 810 125 810 125 888 178 c 1,23,-1
 962 60 l 1,24,25
 908 7 908 7 852.5 -17 c 0,26,27
 797 -41 797 -41 727 -41 c 0,28,29
 649 -41 649 -41 529.5 0 c 0,30,31
 410 41 410 41 346 41 c 0,32,33
 252 41 252 41 149 -25 c 1,34,-1
 62 94 l 1,35,36
 186 199 186 199 237 277 c 0,37,38
 288 355 288 355 288 437 c 0,39,40
 288 504 288 504 245 578 c 1,41,-1
 47 578 l 1,42,-1
 47 677 l 1,43,-1
 192 677 l 1,44,45
 130 780 130 780 113.5 823.5 c 0,46,47
 97 867 97 867 97 926 c 0,48,49
 97 1090 97 1090 220.5 1201.5 c 0,50,51
 344 1313 344 1313 526 1313 c 0,52,53
 578 1313 578 1313 626 1304.5 c 0,54,55
 674 1296 674 1296 729.5 1269 c 0,56,57
 785 1242 785 1242 825 1198 c 0,58,59
 865 1154 865 1154 893 1076 c 0,60,61
 921 998 921 998 922 895 c 1,62,-1
 763 895 l 1,63,64
 756 1171 756 1171 518 1171 c 0,65,66
 403 1171 403 1171 333.5 1108 c 0,67,68
 264 1045 264 1045 264 941 c 0,0,1
EndSplineSet
EndChar
StartChar: currency
Encoding: 164 164 101
Width: 1000
GlyphClass: 2
Flags: W
HStem: 286 139<442 546> 802 139<442 547>
VStem: 161 142<560 665> 686 142<559 664>
Fore
874 342 m 1,0,-1
 768 245 l 1,1,-1
 673 341 l 1,2,3
 598 286 598 286 493 286 c 0,4,5
 397 286 397 286 324 331 c 1,6,-1
 233 240 l 1,7,-1
 132 342 l 1,8,-1
 218 430 l 1,9,10
 161 508 161 508 161 614 c 0,11,12
 161 716 161 716 218 797 c 1,13,-1
 120 896 l 1,14,-1
 221 991 l 1,15,-1
 320 893 l 1,16,17
 399 940 399 940 494 940 c 0,18,19
 598 940 598 940 672 889 c 1,20,-1
 778 984 l 1,21,-1
 881 881 l 1,22,-1
 781 781 l 1,23,24
 828 710 828 710 828 614 c 0,25,26
 828 522 828 522 775 439 c 1,27,-1
 874 342 l 1,0,-1
493 802 m 0,28,29
 415 802 415 802 358.5 746 c 0,30,31
 302 690 302 690 302 612 c 0,32,33
 302 535 302 535 358.5 480 c 0,34,35
 415 425 415 425 494 425 c 0,36,37
 572 425 572 425 629 479.5 c 0,38,39
 686 534 686 534 686 610 c 0,40,41
 686 690 686 690 630 746 c 0,42,43
 574 802 574 802 493 802 c 0,28,29
EndSplineSet
EndChar
StartChar: yen
Encoding: 165 165 102
Width: 1000
GlyphClass: 2
Flags: W
HStem: 0 38G<427 586> 314 91<118 427 586 890> 545 91<118 427 586 890> 1241 36G<19 173 828 982>
VStem: 427 158<0 314 407 545>
Fore
890 637 m 1,0,-1
 890 545 l 1,1,-1
 586 545 l 1,2,-1
 586 407 l 1,3,-1
 890 407 l 1,4,-1
 890 314 l 1,5,-1
 586 314 l 1,6,-1
 586 0 l 1,7,-1
 427 0 l 1,8,-1
 427 314 l 1,9,-1
 118 314 l 1,10,-1
 118 407 l 1,11,-1
 427 407 l 1,12,-1
 427 545 l 1,13,-1
 118 545 l 1,14,-1
 118 637 l 1,15,-1
 389 637 l 1,16,-1
 19 1277 l 1,17,-1
 173 1277 l 1,18,-1
 506 696 l 1,19,-1
 828 1277 l 1,20,-1
 982 1277 l 1,21,-1
 619 637 l 1,22,-1
 890 637 l 1,0,-1
EndSplineSet
EndChar
StartChar: brokenbar
Encoding: 166 166 103
Width: 468
GlyphClass: 2
Flags: W
HStem: 1277 36G<180 288>
VStem: 180 108<-382 341 590 1313>
Fore
180 1313 m 1,0,-1
 288 1313 l 1,1,-1
 288 590 l 1,2,-1
 180 590 l 1,3,-1
 180 1313 l 1,0,-1
180 341 m 1,4,-1
 288 341 l 1,5,-1
 288 -382 l 1,6,-1
 180 -382 l 1,7,-1
 180 341 l 1,4,-1
EndSplineSet
EndChar
StartChar: section
Encoding: 167 167 104
Width: 1000
GlyphClass: 2
Flags: W
HStem: -384 139<408 570> -61 36G<139 292> 943 38G<684 835> 1174 139<427 614>
VStem: 77 142<503 626> 187 162<982 1098> 648 162<-168 -42> 684 151<943 1090> 768 142<338 478>
Fore
292 -25 m 1,0,1
 292 -91 292 -91 309.5 -137.5 c 0,2,3
 327 -184 327 -184 356.5 -206 c 0,4,5
 386 -228 386 -228 414.5 -236.5 c 0,6,7
 443 -245 443 -245 475 -245 c 0,8,9
 552 -245 552 -245 600 -202 c 0,10,11
 648 -159 648 -159 648 -90 c 0,12,13
 648 -42 648 -42 625 -5.5 c 0,14,15
 602 31 602 31 550 68 c 2,16,-1
 242 278 l 2,17,18
 155 340 155 340 116 407 c 0,19,20
 77 474 77 474 77 562 c 0,21,22
 77 651 77 651 121.5 715 c 0,23,24
 166 779 166 779 266 832 c 1,25,26
 224 881 224 881 205.5 923 c 0,27,28
 187 965 187 965 187 1015 c 0,29,30
 187 1140 187 1140 284 1226.5 c 0,31,32
 381 1313 381 1313 521 1313 c 0,33,34
 661 1313 661 1313 748 1224.5 c 0,35,36
 835 1136 835 1136 835 994 c 2,37,-1
 835 943 l 1,38,-1
 684 943 l 1,39,-1
 684 990 l 2,40,41
 684 1074 684 1074 636.5 1124 c 0,42,43
 589 1174 589 1174 509 1174 c 0,44,45
 440 1174 440 1174 394.5 1130.5 c 0,46,47
 349 1087 349 1087 349 1020 c 0,48,49
 349 981 349 981 372 950.5 c 0,50,51
 395 920 395 920 451 882 c 2,52,-1
 715 713 l 2,53,54
 824 642 824 642 867.5 576 c 0,55,56
 911 510 911 510 911 413 c 0,57,58
 911 204 911 204 715 132 c 1,59,60
 769 71 769 71 789.5 24 c 0,61,62
 810 -23 810 -23 810 -82 c 0,63,64
 810 -211 810 -211 714 -297.5 c 0,65,66
 618 -384 618 -384 473 -384 c 0,67,68
 429 -384 429 -384 388 -376.5 c 0,69,70
 347 -369 347 -369 300 -345 c 0,71,72
 253 -321 253 -321 218.5 -283 c 0,73,74
 184 -245 184 -245 161.5 -178.5 c 0,75,76
 139 -112 139 -112 139 -25 c 1,77,-1
 292 -25 l 1,0,1
338 413 m 2,38,-1
 637 191 l 1,39,40
 700 224 700 224 734 271.5 c 0,41,42
 768 319 768 319 768 374 c 0,43,44
 768 485 768 485 637 576 c 2,45,-1
 348 773 l 1,46,47
 277 726 277 726 248.5 685 c 0,48,49
 220 644 220 644 220 590 c 0,50,51
 220 535 220 535 243.5 499.5 c 0,52,53
 267 464 267 464 338 413 c 2,38,-1
EndSplineSet
EndChar
StartChar: dieresis
Encoding: 168 168 105
Width: 598
GlyphClass: 2
Flags: W
AnchorPoint: "abovemk" 300.6 1312.2 basemark 0
Fore
241 1286 m 1,0,-1
 241 1102 l 1,1,-1
 54 1102 l 1,2,-1
 54 1286 l 1,3,-1
 241 1286 l 1,0,-1
533 1286 m 1,4,-1
 533 1102 l 1,5,-1
 346 1102 l 1,6,-1
 346 1286 l 1,7,-1
 533 1286 l 1,4,-1
EndSplineSet
EndChar
StartChar: copyright
Encoding: 169 169 106
Width: 1326
GlyphClass: 2
Flags: W
HStem: -40 112<470 850> 227 112<571 803> 954 112<574 761> 1224 112<474 854>
VStem: -24 122<461 838> 326 125<521 768> 1229 122<457 839>
Fore
994 562 m 1,0,1
 994 560 994 560 992.5 554.76 c 0,2,3
 986 524 986 524 981.5 504.5 c 0,4,5
 977 485 977 485 964 446.5 c 0,6,7
 951 408 951 408 937 382.5 c 0,8,9
 923 357 923 357 898 325 c 0,10,11
 873 293 873 293 843 273.5 c 0,12,13
 813 254 813 254 769.5 240.5 c 0,14,15
 726 227 726 227 674 227 c 0,16,17
 520 227 520 227 423 343 c 0,18,19
 326 459 326 459 326 643 c 0,20,21
 326 832 326 832 423.5 949 c 0,22,23
 521 1066 521 1066 680 1066 c 0,24,25
 800 1066 800 1066 873.5 997.5 c 0,26,27
 947 929 947 929 979 787 c 1,28,-1
 852 787 l 1,29,30
 829 876 829 876 787.5 915 c 0,31,32
 746 954 746 954 674 954 c 0,33,34
 572 954 572 954 511 870 c 0,35,36
 450 786 450 786 450 644 c 0,37,38
 450 515 450 515 511.5 426.5 c 0,39,40
 573 338 573 338 674 338 c 0,41,42
 750 338 750 338 799 395 c 0,43,44
 848 452 848 452 866 562 c 1,45,-1
 994 562 l 1,0,1
665 1336 m 0,18,19
 805 1336 805 1336 932 1281.5 c 0,20,21
 1059 1227 1059 1227 1150.5 1135 c 0,22,23
 1242 1043 1242 1043 1296.5 916 c 0,24,25
 1351 789 1351 789 1351 650 c 0,26,27
 1351 508 1351 508 1296.5 380 c 0,28,29
 1242 252 1242 252 1149 160 c 0,30,31
 1056 68 1056 68 927 14 c 0,32,33
 798 -40 798 -40 655 -40 c 0,34,35
 474 -40 474 -40 317 53.5 c 0,36,37
 160 147 160 147 68 305.5 c 0,38,39
 -24 464 -24 464 -24 648 c 0,40,41
 -24 788 -24 788 30.5 915 c 0,42,43
 85 1042 85 1042 177 1134.5 c 0,44,45
 269 1227 269 1227 397 1281.5 c 0,46,47
 525 1336 525 1336 665 1336 c 0,18,19
665 1224 m 0,26,27
 512 1224 512 1224 381 1146.5 c 0,28,29
 250 1069 250 1069 174 936.5 c 0,30,31
 98 804 98 804 98 648 c 0,32,33
 98 494 98 494 174 361 c 0,34,35
 250 228 250 228 379 150 c 0,36,37
 508 72 508 72 658 72 c 0,38,39
 815 72 815 72 946.5 149 c 0,40,41
 1078 226 1078 226 1153.5 358.5 c 0,42,43
 1229 491 1229 491 1229 650 c 0,44,45
 1229 766 1229 766 1184.5 872 c 0,46,47
 1140 978 1140 978 1064 1055.5 c 0,48,49
 988 1133 988 1133 883.5 1178.5 c 0,50,51
 779 1224 779 1224 665 1224 c 0,26,27
EndSplineSet
EndChar
StartChar: ordfeminine
Encoding: 170 170 107
Width: 666
GlyphClass: 2
Flags: W
HStem: 545 91<77 576> 718 94<197 318> 1242 94<247 394>
VStem: 67 104<838 955> 437 103<845 1223>
Fore
576 637 m 1,0,-1
 576 545 l 1,1,-1
 77 545 l 1,2,-1
 77 637 l 1,3,-1
 576 637 l 1,0,-1
600 809 m 1,4,-1
 600 730 l 1,5,6
 571 718 571 718 542 718 c 0,7,8
 497 718 497 718 474 735.5 c 0,9,10
 451 753 451 753 443 796 c 1,11,12
 354 718 354 718 254 718 c 0,13,14
 168 718 168 718 117.5 764.5 c 0,15,16
 67 811 67 811 67 890 c 0,17,18
 67 979 67 979 127.5 1023.5 c 0,19,20
 188 1068 188 1068 349 1080 c 0,21,22
 400 1084 400 1084 418.5 1096.5 c 0,23,24
 437 1109 437 1109 437 1140 c 2,25,-1
 437 1163 l 2,26,27
 437 1201 437 1201 406 1221.5 c 0,28,29
 375 1242 375 1242 317 1242 c 0,30,31
 255 1242 255 1242 229 1220.5 c 0,32,33
 203 1199 203 1199 194 1141 c 1,34,-1
 89 1141 l 1,35,36
 90 1237 90 1237 149.5 1286.5 c 0,37,38
 209 1336 209 1336 320 1336 c 0,39,40
 540 1336 540 1336 540 1166 c 2,41,-1
 540 845 l 2,42,43
 540 803 540 803 581 803 c 0,44,45
 592 803 592 803 600 809 c 1,4,-1
437 1022 m 1,32,33
 411 1011 411 1011 371 1004 c 0,34,35
 331 997 331 997 298.5 993 c 0,36,37
 266 989 266 989 235.5 980 c 0,38,39
 205 971 205 971 187.5 950.5 c 0,40,41
 170 930 170 930 170 896 c 0,42,43
 170 856 170 856 197.5 833.5 c 0,44,45
 225 811 225 811 274 811 c 0,46,47
 340 811 340 811 388.5 847 c 0,48,49
 437 883 437 883 437 931 c 2,50,-1
 437 1022 l 1,32,33
EndSplineSet
EndChar
StartChar: guillemotleft
Encoding: 171 171 108
Width: 1000
GlyphClass: 2
Flags: W
Fore
176 408 m 1,0,-1
 176 569 l 1,1,-1
 450 788 l 1,2,-1
 450 638 l 1,3,-1
 259 490 l 1,4,-1
 450 341 l 1,5,-1
 450 191 l 1,6,-1
 176 408 l 1,0,-1
545 408 m 1,7,-1
 545 569 l 1,8,-1
 818 788 l 1,9,-1
 818 638 l 1,10,-1
 629 490 l 1,11,-1
 818 341 l 1,12,-1
 818 191 l 1,13,-1
 545 408 l 1,7,-1
EndSplineSet
EndChar
StartChar: logicalnot
Encoding: 172 172 109
Width: 1051
GlyphClass: 2
Flags: W
HStem: 550 126<72 853>
VStem: 853 126<155 674>
Fore
72 674 m 1,0,-1
 979 674 l 1,1,-1
 979 155 l 1,2,-1
 853 155 l 1,3,-1
 853 550 l 1,4,-1
 72 550 l 1,5,-1
 72 674 l 1,0,-1
EndSplineSet
EndChar
StartChar: sfthyphen
Encoding: 173 173 110
Width: 598
GlyphClass: 2
Flags: W
HStem: 432 130<83 511>
Fore
511 562 m 1,0,-1
 511 432 l 1,1,-1
 83 432 l 1,2,-1
 83 562 l 1,3,-1
 511 562 l 1,0,-1
EndSplineSet
EndChar
StartChar: registered
Encoding: 174 174 111
Width: 1326
GlyphClass: 2
Flags: W
HStem: -40 112<470 850> 586 113<490 772> 940 113<364 820> 1224 112<474 854>
VStem: -24 122<461 838> 364 126<252 1054> 845 169<252 391> 857 132<778 902> 1229 122<457 839>
Fore
890 648 m 1,0,1
 933 620 933 620 952.5 580.5 c 0,2,3
 972 541 972 541 972.5 501.5 c 0,4,5
 973 462 973 462 971 424 c 0,6,7
 969 386 969 386 977.5 352 c 0,8,9
 986 318 986 318 1013 298 c 1,10,-1
 1013 252 l 1,11,-1
 871 252 l 1,12,13
 841 320 841 320 845 391 c 2,14,-1
 846 463 l 2,15,16
 846 528 846 528 818.5 557 c 0,17,18
 791 586 791 586 731 586 c 2,19,-1
 490 586 l 1,20,-1
 490 252 l 1,21,-1
 364 252 l 1,22,-1
 364 1054 l 1,23,-1
 734 1054 l 2,24,25
 989 1054 989 1054 989 826 c 0,26,27
 989 765 989 765 967.5 727 c 0,28,29
 946 689 946 689 890 648 c 1,0,1
490 698 m 1,18,-1
 722 698 l 2,19,20
 792 698 792 698 824.5 727.5 c 0,21,22
 857 757 857 757 857 818 c 0,23,24
 857 882 857 882 825 911 c 0,25,26
 793 940 793 940 722 940 c 2,27,-1
 490 940 l 1,28,-1
 490 698 l 1,18,-1
665 1336 m 0,25,26
 805 1336 805 1336 932 1281.5 c 0,27,28
 1059 1227 1059 1227 1150.5 1135 c 0,29,30
 1242 1043 1242 1043 1296.5 916 c 0,31,32
 1351 789 1351 789 1351 650 c 0,33,34
 1351 508 1351 508 1296.5 380 c 0,35,36
 1242 252 1242 252 1149 160 c 0,37,38
 1056 68 1056 68 927 14 c 0,39,40
 798 -40 798 -40 655 -40 c 0,41,42
 474 -40 474 -40 317 53.5 c 0,43,44
 160 147 160 147 68 305.5 c 0,45,46
 -24 464 -24 464 -24 648 c 0,47,48
 -24 788 -24 788 30.5 915 c 0,49,50
 85 1042 85 1042 177 1134.5 c 0,51,52
 269 1227 269 1227 397 1281.5 c 0,53,54
 525 1336 525 1336 665 1336 c 0,25,26
665 1224 m 0,33,34
 512 1224 512 1224 381 1146.5 c 0,35,36
 250 1069 250 1069 174 936.5 c 0,37,38
 98 804 98 804 98 648 c 0,39,40
 98 494 98 494 174 361 c 0,41,42
 250 228 250 228 379 150 c 0,43,44
 508 72 508 72 658 72 c 0,45,46
 815 72 815 72 946.5 149 c 0,47,48
 1078 226 1078 226 1153.5 358.5 c 0,49,50
 1229 491 1229 491 1229 650 c 0,51,52
 1229 766 1229 766 1184.5 872 c 0,53,54
 1140 978 1140 978 1064 1055.5 c 0,55,56
 988 1133 988 1133 883.5 1178.5 c 0,57,58
 779 1224 779 1224 665 1224 c 0,33,34
EndSplineSet
EndChar
StartChar: macron
Encoding: 175 175 112
Width: 598
GlyphClass: 2
Flags: W
HStem: 1135 126<50 544>
Fore
544 1262 m 1,0,-1
 544 1135 l 1,1,-1
 50 1135 l 1,2,-1
 50 1262 l 1,3,-1
 544 1262 l 1,0,-1
EndSplineSet
EndChar
StartChar: degree
Encoding: 176 176 113
Width: 1090
GlyphClass: 2
Flags: W
HStem: 689 103<468 618> 1133 103<470 620>
VStem: 271 103<888 1038> 715 103<887 1038>
Fore
545 1235 m 0,0,1
 657 1235 657 1235 737 1155 c 0,2,3
 817 1075 817 1075 817 962 c 0,4,5
 817 848 817 848 737 768.5 c 0,6,7
 657 689 657 689 542 689 c 0,8,9
 431 689 431 689 351 770 c 0,10,11
 271 851 271 851 271 962 c 0,12,13
 271 1075 271 1075 351.5 1155 c 0,14,15
 432 1235 432 1235 545 1235 c 0,0,1
545 1133 m 0,8,9
 475 1133 475 1133 424.5 1082.5 c 0,10,11
 374 1032 374 1032 374 962 c 0,12,13
 374 892 374 892 424 842 c 0,14,15
 474 792 474 792 542 792 c 0,16,17
 614 792 614 792 664.5 841.5 c 0,18,19
 715 891 715 891 715 962 c 0,20,21
 715 1032 715 1032 665 1082.5 c 0,22,23
 615 1133 615 1133 545 1133 c 0,8,9
EndSplineSet
EndChar
StartChar: plusminus
Encoding: 177 177 114
Width: 1051
GlyphClass: 2
Flags: W
HStem: -19 126<90 961> 623 126<90 463 588 961>
VStem: 463 126<250 623 749 1121>
Fore
961 749 m 1,0,-1
 961 623 l 1,1,-1
 588 623 l 1,2,-1
 588 250 l 1,3,-1
 463 250 l 1,4,-1
 463 623 l 1,5,-1
 90 623 l 1,6,-1
 90 749 l 1,7,-1
 463 749 l 1,8,-1
 463 1121 l 1,9,-1
 588 1121 l 1,10,-1
 588 749 l 1,11,-1
 961 749 l 1,0,-1
961 106 m 1,12,-1
 961 -19 l 1,13,-1
 90 -19 l 1,14,-1
 90 106 l 1,15,-1
 961 106 l 1,12,-1
EndSplineSet
EndChar
StartChar: twosuperior
Encoding: 178 178 115
Width: 631
GlyphClass: 2
Flags: W
HStem: 511 104<34 581> 1181 96<235 401>
VStem: 473 113<1002 1116>
Fore
320 1181 m 0,0,1
 273 1181 273 1181 241 1165 c 128,-1,2
 209 1149 209 1149 193.5 1119.5 c 128,-1,3
 178 1090 178 1090 172 1064.5 c 128,-1,4
 166 1039 166 1039 163 1003 c 1,5,-1
 53 1003 l 1,6,7
 57 1142 57 1142 124 1209.5 c 128,-1,8
 191 1277 191 1277 324 1277 c 0,9,10
 440 1277 440 1277 513.5 1213.5 c 128,-1,11
 587 1150 587 1150 587 1049 c 0,12,13
 587 904 587 904 414 817 c 2,14,-1
 300 760 l 2,15,16
 242 728 242 728 213.5 697.5 c 128,-1,17
 185 667 185 667 169 616 c 1,18,-1
 581 616 l 1,19,-1
 581 511 l 1,20,-1
 34 511 l 1,21,22
 41 642 41 642 87 710.5 c 128,-1,23
 133 779 133 779 263 847 c 2,24,-1
 367 904 l 2,25,26
 473 960 473 960 473 1046 c 0,27,28
 473 1104 473 1104 429 1142.5 c 128,-1,29
 385 1181 385 1181 320 1181 c 0,0,1
EndSplineSet
EndChar
StartChar: threesuperior
Encoding: 179 179 116
Width: 631
GlyphClass: 2
Flags: W
HStem: 486 96<214 385> 1181 96<221 382>
VStem: 442 113<1016 1127> 466 113<654 773>
Fore
305 1181 m 0,0,1
 221 1181 221 1181 189.5 1140 c 128,-1,2
 158 1099 158 1099 158 1020 c 1,3,-1
 46 1020 l 1,4,5
 47 1147 47 1147 113 1212 c 128,-1,6
 179 1277 179 1277 305 1277 c 0,7,8
 420 1277 420 1277 487 1218.5 c 128,-1,9
 554 1160 554 1160 554 1061 c 0,10,11
 554 955 554 955 451 907 c 1,12,13
 580 864 580 864 580 727 c 0,14,15
 580 617 580 617 503.5 551.5 c 128,-1,16
 427 486 427 486 300 486 c 0,17,18
 171 486 171 486 100 553 c 128,-1,19
 29 620 29 620 29 742 c 1,20,-1
 140 742 l 1,21,22
 144 658 144 658 184 619.5 c 128,-1,23
 224 581 224 581 305 581 c 0,24,25
 381 581 381 581 423.5 620 c 128,-1,26
 466 659 466 659 466 727 c 0,27,28
 466 776 466 776 437.5 810.5 c 128,-1,29
 409 845 409 845 362 853 c 0,30,31
 335 857 335 857 242 857 c 1,32,-1
 242 948 l 1,33,34
 358 948 358 948 400 971.5 c 128,-1,35
 442 995 442 995 442 1058 c 0,36,37
 442 1115 442 1115 405 1148 c 128,-1,38
 368 1181 368 1181 305 1181 c 0,0,1
EndSplineSet
EndChar
StartChar: acute
Encoding: 180 180 117
Width: 598
GlyphClass: 2
Flags: W
HStem: 1296 36G<338 542>
Fore
338 1332 m 1,0,-1
 542 1332 l 1,1,-1
 274 1066 l 1,2,-1
 166 1066 l 1,3,-1
 338 1332 l 1,0,-1
EndSplineSet
EndChar
StartChar: mu
Encoding: 181 181 118
Width: 1033
GlyphClass: 2
Flags: W
HStem: -22 144<464 578>
VStem: 140 158<-360 932> 742 155<475 932>
Fore
518 -22 m 0,0,1
 441 -22 441 -22 392.5 5.5 c 0,2,3
 344 33 344 33 299 94 c 1,4,-1
 299 -360 l 1,5,-1
 140 -360 l 1,6,-1
 140 932 l 1,7,-1
 299 932 l 1,8,-1
 299 540 l 2,9,10
 299 322 299 322 320 262 c 0,11,12
 340 198 340 198 391 160 c 0,13,14
 442 122 442 122 515 122 c 0,15,16
 591 122 591 122 646 166 c 0,17,18
 701 210 701 210 710 247 c 0,19,20
 742 343 742 343 742 536 c 2,21,-1
 742 932 l 1,22,-1
 896 932 l 1,23,-1
 896 0 l 1,24,-1
 752 0 l 1,25,-1
 752 112 l 1,26,27
 711 45 711 45 657 11.5 c 0,28,29
 603 -22 603 -22 518 -22 c 0,0,1
EndSplineSet
EndChar
StartChar: paragraph
Encoding: 182 182 119
Width: 966
GlyphClass: 2
Flags: W
HStem: 1198 115<490 940>
VStem: 86 487<773 1198> 458 115<-319 466> 722 115<-319 1198>
Fore
458 466 m 1,0,1
 341 472 341 472 255 531 c 0,2,3
 169 590 169 590 127.5 681 c 0,4,5
 86 772 86 772 86 881 c 0,6,7
 86 1063 86 1063 203 1188 c 0,8,9
 320 1313 320 1313 490 1313 c 2,10,-1
 940 1313 l 1,11,-1
 940 1198 l 1,12,-1
 838 1198 l 1,13,-1
 838 -319 l 1,14,-1
 722 -319 l 1,15,-1
 722 1198 l 1,16,-1
 574 1198 l 1,17,-1
 574 -319 l 1,18,-1
 458 -319 l 1,19,-1
 458 466 l 1,0,1
EndSplineSet
EndChar
StartChar: periodcentered
Encoding: 183 183 120
Width: 500
GlyphClass: 2
Flags: W
Fore
379 768 m 1,0,-1
 379 544 l 1,1,-1
 156 544 l 1,2,-1
 156 768 l 1,3,-1
 379 768 l 1,0,-1
EndSplineSet
EndChar
StartChar: cedilla
Encoding: 184 184 121
Width: 598
GlyphClass: 2
Flags: W
HStem: -385 74<251 364> -163 163<288 325>
VStem: 382 134<-269 -179>
Fore
108 -252 m 1,0,1
 153 -275 153 -275 197.5 -293.5 c 128,-1,2
 242 -312 242 -312 284 -312 c 0,3,4
 327 -312 327 -312 354.5 -288.5 c 128,-1,5
 382 -265 382 -265 382 -230 c 0,6,7
 382 -200 382 -200 359.5 -181.5 c 128,-1,8
 337 -163 337 -163 299 -163 c 0,9,10
 275 -163 275 -163 242 -178 c 1,11,-1
 221 -166 l 1,12,-1
 298 0 l 1,13,-1
 365 0 l 1,14,-1
 324 -101 l 1,15,16
 348 -97 348 -97 374 -97 c 0,17,18
 442 -97 442 -97 479 -128.5 c 128,-1,19
 516 -160 516 -160 516 -218 c 0,20,21
 516 -295 516 -295 456.5 -340 c 128,-1,22
 397 -385 397 -385 295 -385 c 0,23,24
 244 -385 244 -385 199.5 -373 c 128,-1,25
 155 -361 155 -361 70 -324 c 1,26,-1
 108 -252 l 1,0,1
EndSplineSet
EndChar
StartChar: onesuperior
Encoding: 185 185 122
Width: 631
GlyphClass: 2
Flags: W
HStem: 1241 36G<322 400>
VStem: 288 112<511 1277>
Fore
288 1044 m 1,0,-1
 110 1044 l 1,1,-1
 110 1127 l 1,2,-1
 137 1128 l 2,3,4
 234 1138 234 1138 266.5 1164.5 c 128,-1,5
 299 1191 299 1191 322 1277 c 1,6,-1
 400 1277 l 1,7,-1
 400 511 l 1,8,-1
 288 511 l 1,9,-1
 288 1044 l 1,0,-1
EndSplineSet
EndChar
StartChar: ordmasculine
Encoding: 186 186 123
Width: 656
GlyphClass: 2
Flags: W
HStem: 545 91<91 565> 718 94<247 408> 1242 94<247 409>
VStem: 72 104<930 1126> 479 104<926 1123>
Fore
565 637 m 1,0,-1
 565 545 l 1,1,-1
 91 545 l 1,2,-1
 91 637 l 1,3,-1
 565 637 l 1,0,-1
328 1336 m 0,4,5
 451 1336 451 1336 517 1254.5 c 0,6,7
 583 1173 583 1173 583 1022 c 0,8,9
 583 880 583 880 515 799 c 0,10,11
 447 718 447 718 328 718 c 0,12,13
 207 718 207 718 139.5 799.5 c 0,14,15
 72 881 72 881 72 1027 c 0,16,17
 72 1173 72 1173 139.5 1254.5 c 0,18,19
 207 1336 207 1336 328 1336 c 0,4,5
328 1242 m 0,12,13
 257 1242 257 1242 216.5 1185 c 0,14,15
 176 1128 176 1128 176 1027 c 0,16,17
 176 927 176 927 216.5 869 c 0,18,19
 257 811 257 811 328 811 c 0,20,21
 398 811 398 811 438.5 868.5 c 0,22,23
 479 926 479 926 479 1025 c 0,24,25
 479 1127 479 1127 439 1184.5 c 0,26,27
 399 1242 399 1242 328 1242 c 0,12,13
EndSplineSet
EndChar
StartChar: guillemotright
Encoding: 187 187 124
Width: 1000
GlyphClass: 2
Flags: W
Fore
454 571 m 1,0,-1
 454 410 l 1,1,-1
 176 191 l 1,2,-1
 176 341 l 1,3,-1
 371 490 l 1,4,-1
 176 638 l 1,5,-1
 176 788 l 1,6,-1
 454 571 l 1,0,-1
811 571 m 1,7,-1
 811 410 l 1,8,-1
 535 191 l 1,9,-1
 535 341 l 1,10,-1
 730 490 l 1,11,-1
 535 638 l 1,12,-1
 535 788 l 1,13,-1
 811 571 l 1,7,-1
EndSplineSet
EndChar
StartChar: onequarter
Encoding: 188 188 125
Width: 1563
GlyphClass: 2
Flags: W
HStem: -36 38G<343 449> 180 96<958 1296 1408 1529> 1241 36G<322 400 1157 1262>
VStem: 288 112<511 1277> 1296 112<0 180 276 766>
Fore
288 1044 m 1,0,-1
 110 1044 l 1,1,-1
 110 1127 l 1,2,-1
 137 1128 l 2,3,4
 234 1138 234 1138 266.5 1164.5 c 0,5,6
 299 1191 299 1191 322 1277 c 1,7,-1
 400 1277 l 1,8,-1
 400 511 l 1,9,-1
 288 511 l 1,10,-1
 288 1044 l 1,0,-1
1157 1277 m 1,9,-1
 1262 1277 l 1,10,-1
 449 -36 l 1,11,-1
 343 -36 l 1,12,-1
 1157 1277 l 1,9,-1
1296 180 m 1,13,-1
 958 180 l 1,14,-1
 958 286 l 1,15,-1
 1325 766 l 1,16,-1
 1408 766 l 1,17,-1
 1408 276 l 1,18,-1
 1529 276 l 1,19,-1
 1529 180 l 1,20,-1
 1408 180 l 1,21,-1
 1408 0 l 1,22,-1
 1296 0 l 1,23,-1
 1296 180 l 1,13,-1
1296 276 m 1,24,-1
 1296 581 l 1,25,-1
 1063 276 l 1,26,-1
 1296 276 l 1,24,-1
EndSplineSet
EndChar
StartChar: onehalf
Encoding: 189 189 126
Width: 1563
GlyphClass: 2
Flags: W
HStem: 0 104<967 1514> 670 96<1168 1334> 1241 36G<322 400 1114 1219>
VStem: 288 112<511 1277> 1406 113<491 605>
Fore
288 1044 m 1,0,-1
 110 1044 l 1,1,-1
 110 1127 l 1,2,-1
 137 1128 l 2,3,4
 234 1138 234 1138 266.5 1164.5 c 0,5,6
 299 1191 299 1191 322 1277 c 1,7,-1
 400 1277 l 1,8,-1
 400 511 l 1,9,-1
 288 511 l 1,10,-1
 288 1044 l 1,0,-1
1114 1277 m 1,9,-1
 1219 1277 l 1,10,-1
 406 -36 l 1,11,-1
 300 -36 l 1,12,-1
 1114 1277 l 1,9,-1
1253 670 m 0,13,14
 1206 670 1206 670 1174 654 c 0,15,16
 1142 638 1142 638 1126.5 608.5 c 0,17,18
 1111 579 1111 579 1105 553 c 0,19,20
 1099 527 1099 527 1097 492 c 1,21,-1
 984 492 l 1,22,23
 989 631 989 631 1056 698.5 c 0,24,25
 1123 766 1123 766 1256 766 c 0,26,27
 1372 766 1372 766 1445.5 702.5 c 0,28,29
 1519 639 1519 639 1519 538 c 0,30,31
 1519 392 1519 392 1346 306 c 2,32,-1
 1234 248 l 2,33,34
 1174 216 1174 216 1145.5 185.5 c 0,35,36
 1117 155 1117 155 1102 104 c 1,37,-1
 1514 104 l 1,38,-1
 1514 0 l 1,39,-1
 967 0 l 1,40,41
 974 132 974 132 1020 200 c 0,42,43
 1066 268 1066 268 1195 336 c 2,44,-1
 1300 392 l 2,45,46
 1406 450 1406 450 1406 535 c 0,47,48
 1406 593 1406 593 1362 631.5 c 0,49,50
 1318 670 1318 670 1253 670 c 0,13,14
EndSplineSet
EndChar
StartChar: threequarters
Encoding: 190 190 127
Width: 1563
GlyphClass: 2
Flags: W
HStem: -36 38G<362 466> 180 96<958 1296 1408 1529> 486 96<214 385> 1181 96<221 382>
VStem: 442 113<1016 1127> 466 113<654 773> 1296 112<0 180 276 766>
Fore
305 1181 m 0,0,1
 221 1181 221 1181 189.5 1140 c 0,2,3
 158 1099 158 1099 158 1020 c 1,4,-1
 46 1020 l 1,5,6
 47 1147 47 1147 113 1212 c 0,7,8
 179 1277 179 1277 305 1277 c 0,9,10
 420 1277 420 1277 487 1218.5 c 0,11,12
 554 1160 554 1160 554 1061 c 0,13,14
 554 955 554 955 451 907 c 1,15,16
 580 864 580 864 580 727 c 0,17,18
 580 617 580 617 503.5 551.5 c 0,19,20
 427 486 427 486 300 486 c 0,21,22
 171 486 171 486 100 553 c 0,23,24
 29 620 29 620 29 742 c 1,25,-1
 140 742 l 1,26,27
 144 658 144 658 184 619.5 c 0,28,29
 224 581 224 581 305 581 c 0,30,31
 381 581 381 581 423.5 620 c 0,32,33
 466 659 466 659 466 727 c 0,34,35
 466 776 466 776 437.5 810.5 c 0,36,37
 409 845 409 845 362 853 c 0,38,39
 335 857 335 857 242 857 c 1,40,-1
 242 948 l 1,41,42
 358 948 358 948 400 971.5 c 0,43,44
 442 995 442 995 442 1058 c 0,45,46
 442 1115 442 1115 405 1148 c 0,47,48
 368 1181 368 1181 305 1181 c 0,0,1
1176 1277 m 1,29,-1
 1279 1277 l 1,30,-1
 466 -36 l 1,31,-1
 362 -36 l 1,32,-1
 1176 1277 l 1,29,-1
1296 180 m 1,33,-1
 958 180 l 1,34,-1
 958 286 l 1,35,-1
 1325 766 l 1,36,-1
 1408 766 l 1,37,-1
 1408 276 l 1,38,-1
 1529 276 l 1,39,-1
 1529 180 l 1,40,-1
 1408 180 l 1,41,-1
 1408 0 l 1,42,-1
 1296 0 l 1,43,-1
 1296 180 l 1,33,-1
1296 276 m 1,44,-1
 1296 581 l 1,45,-1
 1063 276 l 1,46,-1
 1296 276 l 1,44,-1
EndSplineSet
EndChar
StartChar: Agrave
Encoding: 192 192 129
Width: 1200
GlyphClass: 2
Flags: W
HStem: 0 38<31 209 989 1176> 394 140<348 853> 1277 36<499 715> 1654 36<342 545>
Fore
544 1690 m 1,0,-1
 717 1424 l 1,1,-1
 609 1424 l 1,2,-1
 342 1690 l 1,3,-1
 544 1690 l 1,0,-1
EndSplineSet
Refer: 35 65 N 1 0 0 1 0 0 1
EndChar
StartChar: Aacute
Encoding: 193 193 130
Width: 1200
GlyphClass: 2
Flags: W
HStem: 0 38<31 209 989 1176> 394 140<348 853> 1277 36<499 715> 1654 36<666 869>
Fore
666 1690 m 1,0,-1
 870 1690 l 1,1,-1
 602 1424 l 1,2,-1
 494 1424 l 1,3,-1
 666 1690 l 1,0,-1
EndSplineSet
Refer: 35 65 N 1 0 0 1 0 0 1
EndChar
StartChar: Acircumflex
Encoding: 194 194 131
Width: 1200
GlyphClass: 2
Flags: W
HStem: 0 38<31 209 989 1176> 394 140<348 853> 1277 36<499 715> 1656 36<518 689>
Fore
519 1692 m 1,0,-1
 689 1692 l 1,1,-1
 862 1421 l 1,2,-1
 749 1421 l 1,3,-1
 603 1594 l 1,4,-1
 461 1421 l 1,5,-1
 346 1421 l 1,6,-1
 519 1692 l 1,0,-1
EndSplineSet
Refer: 35 65 N 1 0 0 1 0 0 1
EndChar
StartChar: Atilde
Encoding: 195 195 132
Width: 1200
GlyphClass: 2
Flags: W
HStem: 0 38<31 209 989 1176> 394 140<348 853> 1277 36<499 715> 1442 120<682 773> 1510 119<439 523>
Fore
477 1629 m 0,0,1
 523 1629 523 1629 602.5 1595.5 c 128,-1,2
 682 1562 682 1562 717 1562 c 0,3,4
 763 1562 763 1562 784 1629 c 1,5,-1
 888 1629 l 1,6,7
 863 1442 863 1442 728 1442 c 0,8,9
 693 1442 693 1442 602.5 1475.5 c 128,-1,10
 512 1509 512 1509 487 1509 c 0,11,12
 446 1509 446 1509 427 1443 c 1,13,-1
 324 1443 l 1,14,15
 338 1532 338 1532 378 1580.5 c 128,-1,16
 418 1629 418 1629 477 1629 c 0,0,1
EndSplineSet
Refer: 35 65 N 1 0 0 1 0 0 1
EndChar
StartChar: Aring
Encoding: 197 197 134
Width: 1200
GlyphClass: 2
Flags: W
HStem: 0 38<31 209 989 1176> 394 140<348 853> 1277 36<499 715> 1400 79<559 646> 1637 79<559 647>
VStem: 444 79<1516 1601> 682 79<1514 1601>
Fore
602 1715 m 4,0,1
 668 1715 668 1715 714 1669 c 128,-1,2
 760 1623 760 1623 760 1557 c 0,3,4
 760 1492 760 1492 713.5 1446 c 128,-1,5
 667 1400 667 1400 602 1400 c 0,6,7
 538 1400 538 1400 491 1447 c 128,-1,8
 444 1494 444 1494 444 1558 c 128,-1,9
 444 1622 444 1622 491 1668.5 c 128,-1,10
 538 1715 538 1715 602 1715 c 4,0,1
602 1636 m 4,11,12
 570 1636 570 1636 546.5 1613 c 128,-1,13
 523 1590 523 1590 523 1558 c 128,-1,14
 523 1526 523 1526 546.5 1502.5 c 128,-1,15
 570 1479 570 1479 602 1479 c 128,-1,16
 634 1479 634 1479 657.5 1502 c 128,-1,17
 681 1525 681 1525 681 1557 c 0,18,19
 681 1590 681 1590 658.5 1613 c 128,-1,20
 636 1636 636 1636 602 1636 c 4,11,12
EndSplineSet
Refer: 35 65 N 1 0 0 1 0 0 1
EndChar
StartChar: AE
Encoding: 198 198 135
Width: 1800
GlyphClass: 2
Flags: W
HStem: 0 148<842 1710> 385 148<358 842> 598 148<1010 1644> 1164 148<558 1678>
VStem: 842 168<0 1164>
AnchorPoint: "below" 1112.4 0 basechar 0
AnchorPoint: "above" 1112.4 1326.6 basechar 0
Fore
842 385 m 1,0,-1
 358 385 l 1,1,-1
 205 0 l 1,2,-1
 19 0 l 1,3,-1
 558 1313 l 1,4,-1
 1678 1313 l 1,5,-1
 1678 1164 l 1,6,-1
 1010 1164 l 1,7,-1
 1010 745 l 1,8,-1
 1644 745 l 1,9,-1
 1644 598 l 1,10,-1
 1010 598 l 1,11,-1
 1010 148 l 1,12,-1
 1710 148 l 1,13,-1
 1710 0 l 1,14,-1
 842 0 l 1,15,-1
 842 385 l 1,0,-1
842 533 m 1,16,-1
 842 1164 l 1,17,-1
 662 1164 l 1,18,-1
 414 533 l 1,19,-1
 842 533 l 1,16,-1
EndSplineSet
EndChar
StartChar: Ccedilla
Encoding: 199 199 136
Width: 1299
GlyphClass: 2
Flags: W
HStem: -385 74<584 698> -163 67<623 754> -41 146<550 840> 1186 148<446 830>
VStem: 86 168<478 811> 716 134<-269 -179>
Fore
680 104 m 0,0,1
 842 104 842 104 928 195 c 128,-1,2
 1014 286 1014 286 1046 479 c 1,3,-1
 1219 479 l 1,4,5
 1157 -41 1157 -41 682 -41 c 1,6,-1
 659 -101 l 1,7,8
 682 -97 682 -97 709 -97 c 0,9,10
 777 -97 777 -97 814.5 -128.5 c 128,-1,11
 852 -160 852 -160 852 -218 c 0,12,13
 852 -295 852 -295 792 -340 c 128,-1,14
 732 -385 732 -385 630 -385 c 0,15,16
 579 -385 579 -385 533.5 -372.5 c 128,-1,17
 488 -360 488 -360 406 -324 c 1,18,-1
 443 -252 l 1,19,20
 456 -258 456 -258 483.5 -271.5 c 128,-1,21
 511 -285 511 -285 527.5 -292 c 128,-1,22
 544 -299 544 -299 569.5 -305.5 c 128,-1,23
 595 -312 595 -312 619 -312 c 0,24,25
 660 -312 660 -312 688 -288.5 c 128,-1,26
 716 -265 716 -265 716 -230 c 0,27,28
 716 -200 716 -200 694 -181.5 c 128,-1,29
 672 -163 672 -163 634 -163 c 0,30,31
 611 -163 611 -163 578 -178 c 1,32,-1
 558 -166 l 1,33,-1
 614 -41 l 1,34,35
 512 -27 512 -27 457.5 -7.5 c 128,-1,36
 403 12 403 12 346 53 c 0,37,38
 223 140 223 140 154.5 294.5 c 128,-1,39
 86 449 86 449 86 641 c 0,40,41
 86 703 86 703 94 765.5 c 128,-1,42
 102 828 102 828 121.5 897.5 c 128,-1,43
 141 967 141 967 171 1028.5 c 128,-1,44
 201 1090 201 1090 248.5 1147 c 128,-1,45
 296 1204 296 1204 356.5 1244.5 c 128,-1,46
 417 1285 417 1285 501.5 1309.5 c 128,-1,47
 586 1334 586 1334 686 1334 c 0,48,49
 1115 1334 1115 1334 1192 905 c 1,50,-1
 1020 905 l 1,51,52
 992 1045 992 1045 909 1115.5 c 128,-1,53
 826 1186 826 1186 667 1186 c 0,54,55
 476 1186 476 1186 365 1040.5 c 128,-1,56
 254 895 254 895 254 643 c 0,57,58
 254 396 254 396 369.5 250 c 128,-1,59
 485 104 485 104 680 104 c 0,0,1
EndSplineSet
EndChar
StartChar: Egrave
Encoding: 200 200 137
Width: 1200
GlyphClass: 2
Flags: W
HStem: 0 148<162 1104> 598 148<329 1044> 1164 148<162 1070> 1654 36<372 576>
VStem: 162 168<0 1313>
Fore
576 1690 m 1,0,-1
 749 1424 l 1,1,-1
 641 1424 l 1,2,-1
 374 1690 l 1,3,-1
 576 1690 l 1,0,-1
EndSplineSet
Refer: 39 69 N 1 0 0 1 0 0 1
EndChar
StartChar: Eacute
Encoding: 201 201 138
Width: 1200
GlyphClass: 2
Flags: W
HStem: 0 148<162 1104> 598 148<329 1044> 1164 148<162 1070> 1654 36<659 862>
VStem: 162 168<0 1313>
Fore
658 1690 m 1,0,-1
 862 1690 l 1,1,-1
 594 1424 l 1,2,-1
 486 1424 l 1,3,-1
 658 1690 l 1,0,-1
EndSplineSet
Refer: 39 69 N 1 0 0 1 0 0 1
EndChar
StartChar: Ecircumflex
Encoding: 202 202 139
Width: 1200
GlyphClass: 2
Flags: W
HStem: 0 148<162 1104> 598 148<329 1044> 1164 148<162 1070> 1654 36<535 706>
VStem: 162 168<0 1313>
Fore
535 1690 m 1,0,-1
 705 1690 l 1,1,-1
 878 1419 l 1,2,-1
 765 1419 l 1,3,-1
 619 1592 l 1,4,-1
 477 1419 l 1,5,-1
 362 1419 l 1,6,-1
 535 1690 l 1,0,-1
EndSplineSet
Refer: 39 69 N 1 0 0 1 0 0 1
EndChar
StartChar: Igrave
Encoding: 204 204 141
Width: 500
GlyphClass: 2
Flags: W
HStem: 0 38<180 349> 1277 36<180 349> 1654 36<0 204>
VStem: 180 169<0 1313>
Fore
202 1690 m 1,0,-1
 375 1424 l 1,1,-1
 267 1424 l 1,2,-1
 0 1690 l 1,3,-1
 202 1690 l 1,0,-1
EndSplineSet
Refer: 43 73 N 1 0 0 1 0 0 1
EndChar
StartChar: Iacute
Encoding: 205 205 142
Width: 500
GlyphClass: 2
Flags: W
HStem: 0 38<180 349> 1277 36<180 349> 1654 36<300 504>
VStem: 180 169<0 1313>
Fore
300 1690 m 1,0,-1
 504 1690 l 1,1,-1
 236 1424 l 1,2,-1
 128 1424 l 1,3,-1
 300 1690 l 1,0,-1
EndSplineSet
Refer: 43 73 N 1 0 0 1 0 0 1
EndChar
StartChar: Icircumflex
Encoding: 206 206 143
Width: 500
GlyphClass: 2
Flags: W
HStem: 0 38<180 349> 1277 36<180 349> 1656 36<170 342>
VStem: 180 169<0 1313>
Fore
171 1692 m 1,0,-1
 341 1692 l 1,1,-1
 514 1421 l 1,2,-1
 401 1421 l 1,3,-1
 255 1594 l 1,4,-1
 113 1421 l 1,5,-1
 -2 1421 l 1,6,-1
 171 1692 l 1,0,-1
EndSplineSet
Refer: 43 73 N 1 0 0 1 0 0 1
EndChar
StartChar: Eth
Encoding: 208 208 145
Width: 1299
GlyphClass: 2
Flags: W
HStem: 0 148<161 833> 610 120<36 161 328 636> 1164 148<161 833>
VStem: 161 168<0 610 731 1313> 1033 168<452 860>
Fore
161 610 m 5,0,-1
 36 610 l 1,1,-1
 36 731 l 1,2,-1
 161 731 l 1,3,-1
 161 1313 l 1,4,-1
 667 1313 l 2,5,6
 915 1313 915 1313 1057.5 1137.5 c 128,-1,7
 1200 962 1200 962 1200 658 c 0,8,9
 1200 351 1200 351 1057.5 175.5 c 128,-1,10
 915 0 915 0 667 0 c 2,11,-1
 161 0 l 1,12,-1
 161 610 l 5,0,-1
328 610 m 5,13,-1
 328 148 l 1,14,-1
 638 148 l 2,15,16
 832 148 832 148 932.5 277.5 c 128,-1,17
 1033 407 1033 407 1033 658 c 0,18,19
 1033 907 1033 907 932.5 1035.5 c 128,-1,20
 832 1164 832 1164 638 1164 c 2,21,-1
 328 1164 l 1,22,-1
 328 731 l 1,23,-1
 636 731 l 1,24,-1
 636 610 l 1,25,-1
 328 610 l 5,13,-1
EndSplineSet
EndChar
StartChar: Ntilde
Encoding: 209 209 146
Width: 1299
GlyphClass: 2
Flags: W
HStem: 0 38<137 295 974 1163> 1277 36<137 319 1004 1163> 1442 120<725 816> 1510 119<482 566>
VStem: 137 158<0 1313> 1004 158<0 1313>
Fore
521 1629 m 0,0,1
 567 1629 567 1629 646.5 1595.5 c 128,-1,2
 726 1562 726 1562 761 1562 c 0,3,4
 807 1562 807 1562 828 1629 c 1,5,-1
 932 1629 l 1,6,7
 907 1442 907 1442 772 1442 c 0,8,9
 737 1442 737 1442 646.5 1475.5 c 128,-1,10
 556 1509 556 1509 531 1509 c 0,11,12
 490 1509 490 1509 471 1443 c 1,13,-1
 368 1443 l 1,14,15
 382 1532 382 1532 422 1580.5 c 128,-1,16
 462 1629 462 1629 521 1629 c 0,0,1
EndSplineSet
Refer: 48 78 N 1 0 0 1 0 0 1
EndChar
StartChar: Ograve
Encoding: 210 210 147
Width: 1400
GlyphClass: 2
Flags: W
HStem: -41 148<514 898> 1186 148<512 893> 1654 36<443 646>
VStem: 68 168<442 852> 1169 168<446 847>
Fore
645 1690 m 1,0,-1
 818 1424 l 1,1,-1
 710 1424 l 1,2,-1
 443 1690 l 1,3,-1
 645 1690 l 1,0,-1
EndSplineSet
Refer: 49 79 N 1 0 0 1 0 0 1
EndChar
StartChar: Oacute
Encoding: 211 211 148
Width: 1400
GlyphClass: 2
Flags: W
HStem: -41 148<514 898> 1186 148<512 893> 1654 36<751 954>
VStem: 68 168<442 852> 1169 168<446 847>
Fore
751 1690 m 1,0,-1
 955 1690 l 1,1,-1
 687 1424 l 1,2,-1
 579 1424 l 1,3,-1
 751 1690 l 1,0,-1
EndSplineSet
Refer: 49 79 N 1 0 0 1 0 0 1
EndChar
StartChar: Ocircumflex
Encoding: 212 212 149
Width: 1400
GlyphClass: 2
Flags: W
HStem: -41 148<514 898> 1186 148<512 893> 1656 36<617 788>
VStem: 68 168<442 852> 1169 168<446 847>
Fore
617 1692 m 1,0,-1
 787 1692 l 1,1,-1
 960 1421 l 1,2,-1
 847 1421 l 1,3,-1
 701 1594 l 1,4,-1
 559 1421 l 1,5,-1
 444 1421 l 1,6,-1
 617 1692 l 1,0,-1
EndSplineSet
Refer: 49 79 N 1 0 0 1 0 0 1
EndChar
StartChar: Otilde
Encoding: 213 213 150
Width: 1400
GlyphClass: 2
Flags: W
HStem: -41 148<514 898> 1186 148<512 893> 1442 120<775 866> 1510 119<533 617>
VStem: 68 168<442 852> 1169 168<446 847>
Fore
571 1629 m 0,0,1
 617 1629 617 1629 696.5 1595.5 c 128,-1,2
 776 1562 776 1562 811 1562 c 0,3,4
 857 1562 857 1562 878 1629 c 1,5,-1
 982 1629 l 1,6,7
 957 1442 957 1442 822 1442 c 0,8,9
 787 1442 787 1442 696.5 1475.5 c 128,-1,10
 606 1509 606 1509 581 1509 c 0,11,12
 540 1509 540 1509 521 1443 c 1,13,-1
 418 1443 l 1,14,15
 432 1532 432 1532 472 1580.5 c 128,-1,16
 512 1629 512 1629 571 1629 c 0,0,1
EndSplineSet
Refer: 49 79 N 1 0 0 1 0 0 1
EndChar
StartChar: multiply
Encoding: 215 215 152
Width: 1051
GlyphClass: 2
Flags: W
Fore
788 768 m 1,0,-1
 876 679 l 1,1,-1
 614 415 l 1,2,-1
 878 151 l 1,3,-1
 788 61 l 1,4,-1
 523 326 l 1,5,-1
 262 62 l 1,6,-1
 170 151 l 1,7,-1
 436 415 l 1,8,-1
 173 679 l 1,9,-1
 262 767 l 1,10,-1
 523 506 l 1,11,-1
 788 768 l 1,0,-1
EndSplineSet
EndChar
StartChar: Oslash
Encoding: 216 216 153
Width: 1400
GlyphClass: 2
Flags: W
HStem: -41 148<610 886> 1186 148<508 779>
VStem: 62 168<560 852> 1163 168<440 737>
AnchorPoint: "above" 702 1312.2 basechar 0
Fore
54 34 m 1,0,-1
 199 194 l 1,1,2
 62 388 62 388 62 648 c 0,3,4
 62 850 62 850 141.5 1006 c 128,-1,5
 221 1162 221 1162 365.5 1248 c 128,-1,6
 510 1334 510 1334 696 1334 c 0,7,8
 941 1334 941 1334 1111 1188 c 1,9,-1
 1267 1358 l 1,10,-1
 1339 1294 l 1,11,-1
 1178 1120 l 1,12,13
 1330 931 1330 931 1330 644 c 0,14,15
 1330 337 1330 337 1155 148 c 128,-1,16
 980 -41 980 -41 696 -41 c 0,17,18
 439 -41 439 -41 263 120 c 1,19,-1
 125 -31 l 1,20,-1
 54 34 l 1,0,-1
313 317 m 1,21,-1
 1004 1070 l 1,22,23
 874 1186 874 1186 696 1186 c 0,24,25
 487 1186 487 1186 358.5 1037.5 c 128,-1,26
 230 889 230 889 230 648 c 0,27,28
 230 460 230 460 313 317 c 1,21,-1
1068 997 m 1,29,-1
 371 240 l 1,30,31
 502 106 502 106 696 106 c 0,32,33
 906 106 906 106 1034.5 254 c 128,-1,34
 1163 402 1163 402 1163 644 c 0,35,36
 1163 848 1163 848 1068 997 c 1,29,-1
EndSplineSet
EndChar
StartChar: Ugrave
Encoding: 217 217 154
Width: 1299
GlyphClass: 2
Flags: W
HStem: -41 148<499 809> 1277 36<154 320 994 1162> 1654 36<398 601>
VStem: 154 168<257 1313> 994 168<259 1313>
Fore
600 1690 m 1,0,-1
 773 1424 l 1,1,-1
 665 1424 l 1,2,-1
 398 1690 l 1,3,-1
 600 1690 l 1,0,-1
EndSplineSet
Refer: 55 85 N 1 0 0 1 0 0 1
EndChar
StartChar: Uacute
Encoding: 218 218 155
Width: 1299
GlyphClass: 2
Flags: W
HStem: -41 148<499 809> 1277 36<154 320 994 1162> 1654 36<696 900>
VStem: 154 168<257 1313> 994 168<259 1313>
Fore
696 1690 m 1,0,-1
 900 1690 l 1,1,-1
 632 1424 l 1,2,-1
 524 1424 l 1,3,-1
 696 1690 l 1,0,-1
EndSplineSet
Refer: 55 85 N 1 0 0 1 0 0 1
EndChar
StartChar: Ucircumflex
Encoding: 219 219 156
Width: 1299
GlyphClass: 2
Flags: W
HStem: -41 148<499 809> 1277 36<154 320 994 1162> 1654 36<572 744>
VStem: 154 168<257 1313> 994 168<259 1313>
Fore
573 1690 m 1,0,-1
 743 1690 l 1,1,-1
 916 1419 l 1,2,-1
 803 1419 l 1,3,-1
 657 1592 l 1,4,-1
 515 1419 l 1,5,-1
 400 1419 l 1,6,-1
 573 1690 l 1,0,-1
EndSplineSet
Refer: 55 85 N 1 0 0 1 0 0 1
EndChar
StartChar: Yacute
Encoding: 221 221 158
Width: 1200
GlyphClass: 2
Flags: W
HStem: 0 38<529 696> 1277 36<24 230 990 1190> 1654 36<658 860>
VStem: 529 168<0 515>
Fore
657 1690 m 1,0,-1
 861 1690 l 1,1,-1
 593 1424 l 1,2,-1
 485 1424 l 1,3,-1
 657 1690 l 1,0,-1
EndSplineSet
Refer: 59 89 N 1 0 0 1 0 0 1
EndChar
StartChar: Thorn
Encoding: 222 222 159
Width: 1198
GlyphClass: 2
Flags: W
HStem: 0 38G<163 331> 341 148<331 744> 948 148<331 706> 1277 36G<163 331>
VStem: 163 168<0 1313> 929 180<605 833>
Fore
331 341 m 1,0,-1
 331 0 l 1,1,-1
 163 0 l 1,2,-1
 163 1313 l 1,3,-1
 331 1313 l 1,4,-1
 331 1097 l 1,5,-1
 706 1097 l 2,6,7
 893 1097 893 1097 1001 995 c 0,8,9
 1109 893 1109 893 1109 715 c 0,10,11
 1109 550 1109 550 1007 445.5 c 0,12,13
 905 341 905 341 744 341 c 2,14,-1
 331 341 l 1,0,-1
331 487 m 1,11,-1
 680 487 l 2,12,13
 798 487 798 487 863.5 548.5 c 0,14,15
 929 610 929 610 929 718 c 0,16,17
 929 826 929 826 863.5 887 c 0,18,19
 798 948 798 948 680 948 c 2,20,-1
 331 948 l 1,21,-1
 331 487 l 1,11,-1
EndSplineSet
EndChar
StartChar: germandbls
Encoding: 223 223 160
Width: 1099
GlyphClass: 2
Flags: W
HStem: -26 142<545 703> 637 132<529 650> 1174 137<401 670>
VStem: 120 158<0 1061> 809 158<899 1085> 864 163<262 480>
AnchorPoint: "below" 565.2 0 basechar 0
AnchorPoint: "above" 552.6 1312.2 basechar 0
Fore
529 768 m 1,0,1
 679 768 679 768 744 825 c 128,-1,2
 809 882 809 882 809 972 c 0,3,4
 809 1063 809 1063 738 1118.5 c 128,-1,5
 667 1174 667 1174 535 1174 c 0,6,7
 391 1174 391 1174 334.5 1108.5 c 128,-1,8
 278 1043 278 1043 278 918 c 2,9,-1
 278 0 l 1,10,-1
 120 0 l 1,11,-1
 120 958 l 2,12,13
 120 1117 120 1117 229 1213.5 c 128,-1,14
 338 1310 338 1310 536 1310 c 0,15,16
 735 1310 735 1310 851 1222 c 128,-1,17
 967 1134 967 1134 967 986 c 0,18,19
 967 936 967 936 954.5 893 c 128,-1,20
 942 850 942 850 927.5 824.5 c 128,-1,21
 913 799 913 799 888 774.5 c 128,-1,22
 863 750 863 750 850.5 741 c 128,-1,23
 838 732 838 732 818 720 c 1,24,25
 912 695 912 695 969.5 603 c 128,-1,26
 1027 511 1027 511 1027 421 c 0,27,28
 1027 305 1027 305 993 217.5 c 128,-1,29
 959 130 959 130 897 77.5 c 128,-1,30
 835 25 835 25 754 -0.5 c 128,-1,31
 673 -26 673 -26 574 -26 c 0,32,33
 539 -26 539 -26 479 -14 c 1,34,-1
 479 120 l 1,35,36
 546 115 546 115 558 115 c 0,37,38
 707 115 707 115 785.5 183 c 128,-1,39
 864 251 864 251 864 385 c 0,40,41
 864 520 864 520 784.5 578.5 c 128,-1,42
 705 637 705 637 558 637 c 2,43,-1
 529 637 l 1,44,-1
 529 768 l 1,0,1
EndSplineSet
EndChar
StartChar: agrave
Encoding: 224 224 161
Width: 1000
GlyphClass: 2
Flags: W
HStem: -41 132<290 506> 832 139<410 611> 1296 36<247 450>
VStem: 76 156<152 364> 701 149<158 797>
Fore
448 1332 m 1,0,-1
 621 1066 l 1,1,-1
 513 1066 l 1,2,-1
 246 1332 l 1,3,-1
 448 1332 l 1,0,-1
EndSplineSet
Refer: 67 97 N 1 0 0 1 0 0 1
EndChar
StartChar: aacute
Encoding: 225 225 162
Width: 1000
GlyphClass: 2
Flags: W
HStem: -41 132<290 506> 832 139<410 611> 1294 36<545 749>
VStem: 76 156<152 364> 701 149<158 797>
Fore
544 1330 m 1,0,-1
 748 1330 l 1,1,-1
 480 1064 l 1,2,-1
 372 1064 l 1,3,-1
 544 1330 l 1,0,-1
EndSplineSet
Refer: 67 97 N 1 0 0 1 0 0 1
EndChar
StartChar: acircumflex
Encoding: 226 226 163
Width: 1000
GlyphClass: 2
Flags: W
HStem: -41 132<290 506> 832 139<410 611> 1298 36<410 581>
VStem: 76 156<152 364> 701 149<158 797>
Fore
411 1334 m 1,0,-1
 581 1334 l 1,1,-1
 754 1063 l 1,2,-1
 641 1063 l 1,3,-1
 495 1236 l 1,4,-1
 353 1063 l 1,5,-1
 238 1063 l 1,6,-1
 411 1334 l 1,0,-1
EndSplineSet
Refer: 67 97 N 1 0 0 1 0 0 1
EndChar
StartChar: atilde
Encoding: 227 227 164
Width: 1000
GlyphClass: 2
Flags: W
HStem: -41 132<290 506> 832 139<410 611> 1078 120<570 661> 1147 119<328 412>
VStem: 76 156<152 364> 701 149<158 797>
Fore
367 1266 m 0,0,1
 413 1266 413 1266 492.5 1232.5 c 128,-1,2
 572 1199 572 1199 607 1199 c 0,3,4
 653 1199 653 1199 674 1266 c 1,5,-1
 778 1266 l 1,6,7
 753 1079 753 1079 618 1079 c 0,8,9
 583 1079 583 1079 492.5 1112.5 c 128,-1,10
 402 1146 402 1146 377 1146 c 0,11,12
 336 1146 336 1146 317 1080 c 1,13,-1
 214 1080 l 1,14,15
 228 1169 228 1169 268 1217.5 c 128,-1,16
 308 1266 308 1266 367 1266 c 0,0,1
EndSplineSet
Refer: 67 97 N 1 0 0 1 0 0 1
EndChar
StartChar: aring
Encoding: 229 229 166
Width: 1000
GlyphClass: 2
Flags: W
HStem: -41 132<290 506> 832 139<410 611> 1042 79<451 538> 1278 79<451 539>
VStem: 76 156<152 364> 336 79<1157 1243> 574 79<1156 1243> 701 149<158 797>
Fore
494 1357 m 4,0,1
 560 1357 560 1357 606 1311 c 128,-1,2
 652 1265 652 1265 652 1199 c 0,3,4
 652 1134 652 1134 605.5 1088 c 128,-1,5
 559 1042 559 1042 494 1042 c 0,6,7
 430 1042 430 1042 383 1089 c 128,-1,8
 336 1136 336 1136 336 1200 c 128,-1,9
 336 1264 336 1264 383 1310.5 c 128,-1,10
 430 1357 430 1357 494 1357 c 4,0,1
494 1278 m 4,11,12
 462 1278 462 1278 438.5 1255 c 128,-1,13
 415 1232 415 1232 415 1200 c 128,-1,14
 415 1168 415 1168 438.5 1144.5 c 128,-1,15
 462 1121 462 1121 494 1121 c 128,-1,16
 526 1121 526 1121 549.5 1144 c 128,-1,17
 573 1167 573 1167 573 1199 c 0,18,19
 573 1232 573 1232 550.5 1255 c 128,-1,20
 528 1278 528 1278 494 1278 c 4,11,12
EndSplineSet
Refer: 67 97 N 1 0 0 1 0 0 1
EndChar
StartChar: ae
Encoding: 230 230 167
Width: 1599
GlyphClass: 2
Flags: W
HStem: -41 132<271 494> 421 122<826 1522> 832 139<395 553 1025 1190>
VStem: 61 156<154 355> 686 140<263 421> 1358 162<421 629>
AnchorPoint: "below" 784.8 0 basechar 0
AnchorPoint: "above" 784.8 968.4 basechar 0
Fore
826 421 m 1,0,1
 828 345 828 345 847 286.5 c 128,-1,2
 866 228 866 228 894 193 c 128,-1,3
 922 158 922 158 959.5 135.5 c 128,-1,4
 997 113 997 113 1032 105 c 128,-1,5
 1067 97 1067 97 1104 97 c 0,6,7
 1285 97 1285 97 1351 286 c 1,8,-1
 1502 286 l 1,9,10
 1474 133 1474 133 1367.5 46 c 128,-1,11
 1261 -41 1261 -41 1102 -41 c 0,12,13
 997 -41 997 -41 913 -2 c 128,-1,14
 829 37 829 37 781 108 c 0,15,16
 767 132 767 132 752 156 c 1,17,18
 651 52 651 52 560 5.5 c 128,-1,19
 469 -41 469 -41 364 -41 c 0,20,21
 226 -41 226 -41 143.5 35 c 128,-1,22
 61 111 61 111 61 238 c 0,23,24
 61 307 61 307 84.5 358 c 128,-1,25
 108 409 108 409 145.5 441 c 128,-1,26
 183 473 183 473 246 494.5 c 128,-1,27
 309 516 309 516 373.5 526.5 c 128,-1,28
 438 537 438 537 529 545 c 0,29,30
 621 554 621 554 653.5 576.5 c 128,-1,31
 686 599 686 599 686 652 c 2,32,-1
 686 691 l 2,33,34
 686 759 686 759 631.5 795.5 c 128,-1,35
 577 832 577 832 473 832 c 128,-1,36
 369 832 369 832 316 791.5 c 128,-1,37
 263 751 263 751 254 665 c 1,38,-1
 103 665 l 1,39,40
 106 738 106 738 130.5 794 c 128,-1,41
 155 850 155 850 191 882.5 c 128,-1,42
 227 915 227 915 277.5 935.5 c 128,-1,43
 328 956 328 956 376 963 c 128,-1,44
 424 970 424 970 478 970 c 0,45,46
 708 970 708 970 792 823 c 1,47,48
 841 891 841 891 924 930.5 c 128,-1,49
 1007 970 1007 970 1104 970 c 0,50,51
 1234 970 1234 970 1335.5 903.5 c 128,-1,52
 1437 837 1437 837 1483 722 c 0,53,54
 1522 621 1522 621 1522 421 c 1,55,-1
 826 421 l 1,0,1
398 90 m 0,56,57
 465 90 465 90 523 114 c 128,-1,58
 581 138 581 138 614.5 171.5 c 128,-1,59
 648 205 648 205 667 235.5 c 128,-1,60
 686 266 686 266 686 283 c 2,61,-1
 686 464 l 1,62,63
 640 444 640 444 570 431.5 c 128,-1,64
 500 419 500 419 443 411 c 128,-1,65
 386 403 386 403 332.5 387.5 c 128,-1,66
 279 372 279 372 248.5 336 c 128,-1,67
 218 300 218 300 218 241 c 0,68,69
 218 171 218 171 266 130.5 c 128,-1,70
 314 90 314 90 398 90 c 0,56,57
830 544 m 1,71,-1
 1358 544 l 1,72,73
 1358 672 1358 672 1286 752 c 128,-1,74
 1214 832 1214 832 1099 832 c 0,75,76
 986 832 986 832 912.5 753.5 c 128,-1,77
 839 675 839 675 830 544 c 1,71,-1
EndSplineSet
EndChar
StartChar: ccedilla
Encoding: 231 231 168
Width: 900
GlyphClass: 2
Flags: W
HStem: -385 74<377 492> -163 67<415 547> -41 137<394 586> 832 139<348 583>
VStem: 55 156<342 612> 509 134<-269 -180>
Fore
406 -38 m 1,0,1
 336 -25 336 -25 280 5 c 128,-1,2
 224 35 224 35 188 71.5 c 128,-1,3
 152 108 152 108 125.5 155.5 c 128,-1,4
 99 203 99 203 86 243.5 c 128,-1,5
 73 284 73 284 65.5 331 c 128,-1,6
 58 378 58 378 56.5 403.5 c 128,-1,7
 55 429 55 429 55 456 c 0,8,9
 55 690 55 690 169.5 830 c 128,-1,10
 284 970 284 970 475 970 c 0,11,12
 639 970 639 970 736.5 881.5 c 128,-1,13
 834 793 834 793 847 626 c 1,14,-1
 696 626 l 1,15,16
 683 725 683 725 625.5 778.5 c 128,-1,17
 568 832 568 832 473 832 c 0,18,19
 351 832 351 832 281.5 732 c 128,-1,20
 212 632 212 632 212 454 c 0,21,22
 212 286 212 286 282.5 191 c 128,-1,23
 353 96 353 96 478 96 c 0,24,25
 669 96 669 96 708 324 c 1,26,-1
 859 324 l 1,27,28
 849 155 849 155 745 57 c 128,-1,29
 641 -41 641 -41 475 -41 c 1,30,-1
 451 -101 l 1,31,32
 478 -97 478 -97 502 -97 c 0,33,34
 570 -97 570 -97 607 -129 c 128,-1,35
 644 -161 644 -161 644 -218 c 0,36,37
 644 -295 644 -295 584 -340 c 128,-1,38
 524 -385 524 -385 422 -385 c 0,39,40
 371 -385 371 -385 328 -373.5 c 128,-1,41
 285 -362 285 -362 198 -326 c 1,42,-1
 235 -252 l 1,43,44
 270 -271 270 -271 319 -291.5 c 128,-1,45
 368 -312 368 -312 413 -312 c 0,46,47
 454 -312 454 -312 481.5 -288.5 c 128,-1,48
 509 -265 509 -265 509 -230 c 0,49,50
 509 -200 509 -200 487 -181.5 c 128,-1,51
 465 -163 465 -163 427 -163 c 0,52,53
 402 -163 402 -163 371 -178 c 1,54,-1
 349 -166 l 1,55,-1
 406 -38 l 1,0,1
EndSplineSet
EndChar
StartChar: egrave
Encoding: 232 232 169
Width: 1000
GlyphClass: 2
Flags: W
HStem: -41 139<368 608> 421 122<228 924> 832 139<372 593> 1296 36<252 456>
VStem: 763 161<421 631>
Fore
454 1332 m 1,0,-1
 627 1066 l 1,1,-1
 519 1066 l 1,2,-1
 252 1332 l 1,3,-1
 454 1332 l 1,0,-1
EndSplineSet
Refer: 71 101 N 1 0 0 1 0 0 1
EndChar
StartChar: eacute
Encoding: 233 233 170
Width: 1000
GlyphClass: 2
Flags: W
HStem: -41 139<368 608> 421 122<228 924> 832 139<372 593> 1294 36<554 758>
VStem: 763 161<421 631>
Fore
554 1330 m 1,0,-1
 758 1330 l 1,1,-1
 490 1064 l 1,2,-1
 382 1064 l 1,3,-1
 554 1330 l 1,0,-1
EndSplineSet
Refer: 71 101 N 1 0 0 1 0 0 1
EndChar
StartChar: ecircumflex
Encoding: 234 234 171
Width: 1000
GlyphClass: 2
Flags: W
HStem: -41 139<368 608> 421 122<228 924> 832 139<372 593> 1300 36<430 601>
VStem: 763 161<421 631>
Fore
430 1336 m 1,0,-1
 600 1336 l 1,1,-1
 773 1065 l 1,2,-1
 660 1065 l 1,3,-1
 514 1238 l 1,4,-1
 372 1065 l 1,5,-1
 257 1065 l 1,6,-1
 430 1336 l 1,0,-1
EndSplineSet
Refer: 71 101 N 1 0 0 1 0 0 1
EndChar
StartChar: igrave
Encoding: 236 236 173
Width: 500
GlyphClass: 2
Flags: W
HStem: 0 38<169 319> 907 36<169 319> 1292 36<-7 197>
VStem: 169 149<0 943>
Fore
195 1328 m 1,0,-1
 368 1062 l 1,1,-1
 260 1062 l 1,2,-1
 -7 1328 l 1,3,-1
 195 1328 l 1,0,-1
EndSplineSet
Refer: 201 305 N 1 0 0 1 0 0 1
EndChar
StartChar: iacute
Encoding: 237 237 174
Width: 500
GlyphClass: 2
Flags: W
HStem: 0 38<169 319> 907 36<169 319> 1294 36<290 493>
VStem: 169 149<0 943>
Fore
290 1330 m 1,0,-1
 494 1330 l 1,1,-1
 226 1064 l 1,2,-1
 118 1064 l 1,3,-1
 290 1330 l 1,0,-1
EndSplineSet
Refer: 201 305 N 1 0 0 1 0 0 1
EndChar
StartChar: icircumflex
Encoding: 238 238 175
Width: 500
GlyphClass: 2
Flags: W
HStem: 0 38<169 319> 907 36<169 319> 1298 36<161 331>
VStem: 169 149<0 943>
Fore
161 1334 m 1,0,-1
 331 1334 l 1,1,-1
 504 1063 l 1,2,-1
 391 1063 l 1,3,-1
 245 1236 l 1,4,-1
 103 1063 l 1,5,-1
 -12 1063 l 1,6,-1
 161 1334 l 1,0,-1
EndSplineSet
Refer: 201 305 N 1 0 0 1 0 0 1
EndChar
StartChar: eth
Encoding: 240 240 177
Width: 1000
GlyphClass: 2
Flags: W
HStem: -41 139<355 628> 832 134<379 576>
VStem: 65 156<304 665> 761 156<305 662>
Fore
65 464 m 0,0,1
 65 579 65 579 91 670 c 0,2,3
 117 761 117 761 157.5 815.5 c 0,4,5
 198 870 198 870 251.5 905.5 c 0,6,7
 305 941 305 941 355.5 954 c 0,8,9
 406 967 406 967 457 967 c 0,10,11
 498 967 498 967 571 943 c 1,12,13
 500 1014 500 1014 394 1104 c 1,14,-1
 220 1022 l 1,15,-1
 155 1092 l 1,16,-1
 307 1164 l 1,17,18
 261 1201 261 1201 161 1258 c 1,19,-1
 240 1337 l 1,20,21
 306 1310 306 1310 439 1224 c 1,22,-1
 614 1306 l 1,23,-1
 686 1238 l 1,24,-1
 523 1164 l 1,25,26
 559 1137 559 1137 586 1115.5 c 0,27,28
 613 1094 613 1094 657 1052.5 c 0,29,30
 701 1011 701 1011 733.5 972 c 0,31,32
 766 933 766 933 802.5 875.5 c 0,33,34
 839 818 839 818 862.5 759 c 0,35,36
 886 700 886 700 902 623.5 c 0,37,38
 918 547 918 547 918 466 c 0,39,40
 918 223 918 223 806.5 91 c 0,41,42
 695 -41 695 -41 492 -41 c 0,43,44
 288 -41 288 -41 176.5 91 c 0,45,46
 65 223 65 223 65 464 c 0,0,1
492 832 m 0,23,24
 366 832 366 832 293.5 733 c 0,25,26
 221 634 221 634 221 464 c 0,27,28
 221 294 221 294 293.5 195.5 c 0,29,30
 366 97 366 97 492 97 c 0,31,32
 616 97 616 97 688.5 194.5 c 0,33,34
 761 292 761 292 761 458 c 0,35,36
 761 635 761 635 689.5 733.5 c 0,37,38
 618 832 618 832 492 832 c 0,23,24
EndSplineSet
EndChar
StartChar: ntilde
Encoding: 241 241 178
Width: 1000
GlyphClass: 2
Flags: W
HStem: 0 38<126 277 727 876> 839 132<456 668> 1078 120<575 667> 1147 119<334 416>
VStem: 126 139<785 943> 126 151<0 617> 727 149<0 791>
Fore
372 1266 m 0,0,1
 418 1266 418 1266 497.5 1232.5 c 128,-1,2
 577 1199 577 1199 612 1199 c 0,3,4
 658 1199 658 1199 679 1266 c 1,5,-1
 783 1266 l 1,6,7
 758 1079 758 1079 623 1079 c 0,8,9
 588 1079 588 1079 497.5 1112.5 c 128,-1,10
 407 1146 407 1146 382 1146 c 0,11,12
 341 1146 341 1146 322 1080 c 1,13,-1
 219 1080 l 1,14,15
 233 1169 233 1169 273 1217.5 c 128,-1,16
 313 1266 313 1266 372 1266 c 0,0,1
EndSplineSet
Refer: 80 110 N 1 0 0 1 0 0 1
EndChar
StartChar: ograve
Encoding: 242 242 179
Width: 1000
GlyphClass: 2
Flags: W
HStem: -41 139<358 624> 832 139<358 625> 1298 36<235 439>
VStem: 65 156<306 623> 761 156<302 620>
Fore
439 1334 m 1,0,-1
 612 1068 l 1,1,-1
 504 1068 l 1,2,-1
 237 1334 l 1,3,-1
 439 1334 l 1,0,-1
EndSplineSet
Refer: 81 111 N 1 0 0 1 0 0 1
EndChar
StartChar: oacute
Encoding: 243 243 180
Width: 1000
GlyphClass: 2
Flags: W
HStem: -41 139<358 624> 832 139<358 625> 1296 36<536 739>
VStem: 65 156<306 623> 761 156<302 620>
Fore
536 1332 m 1,0,-1
 740 1332 l 1,1,-1
 472 1066 l 1,2,-1
 364 1066 l 1,3,-1
 536 1332 l 1,0,-1
EndSplineSet
Refer: 81 111 N 1 0 0 1 0 0 1
EndChar
StartChar: ocircumflex
Encoding: 244 244 181
Width: 1000
GlyphClass: 2
Flags: W
HStem: -41 139<358 624> 832 139<358 625> 1300 36<407 578>
VStem: 65 156<306 623> 761 156<302 620>
Fore
407 1336 m 1,0,-1
 577 1336 l 1,1,-1
 750 1065 l 1,2,-1
 637 1065 l 1,3,-1
 491 1238 l 1,4,-1
 349 1065 l 1,5,-1
 234 1065 l 1,6,-1
 407 1336 l 1,0,-1
EndSplineSet
Refer: 81 111 N 1 0 0 1 0 0 1
EndChar
StartChar: otilde
Encoding: 245 245 182
Width: 1000
GlyphClass: 2
Flags: W
HStem: -41 139<358 624> 832 139<358 625> 1078 120<564 656> 1147 119<322 406>
VStem: 65 156<306 623> 761 156<302 620>
Fore
361 1266 m 0,0,1
 407 1266 407 1266 486.5 1232.5 c 128,-1,2
 566 1199 566 1199 601 1199 c 0,3,4
 647 1199 647 1199 668 1266 c 1,5,-1
 772 1266 l 1,6,7
 747 1079 747 1079 612 1079 c 0,8,9
 577 1079 577 1079 486.5 1112.5 c 128,-1,10
 396 1146 396 1146 371 1146 c 0,11,12
 330 1146 330 1146 311 1080 c 1,13,-1
 208 1080 l 1,14,15
 222 1169 222 1169 262 1217.5 c 128,-1,16
 302 1266 302 1266 361 1266 c 0,0,1
EndSplineSet
Refer: 81 111 N 1 0 0 1 0 0 1
EndChar
StartChar: divide
Encoding: 247 247 184
Width: 1051
GlyphClass: 2
Flags: W
HStem: 0 38G<432 619> 362 126<90 961>
Fore
961 487 m 1,0,-1
 961 362 l 1,1,-1
 90 362 l 1,2,-1
 90 487 l 1,3,-1
 961 487 l 1,0,-1
619 187 m 1,4,-1
 619 0 l 1,5,-1
 432 0 l 1,6,-1
 432 187 l 1,7,-1
 619 187 l 1,4,-1
619 850 m 1,8,-1
 619 662 l 1,9,-1
 432 662 l 1,10,-1
 432 850 l 1,11,-1
 619 850 l 1,8,-1
EndSplineSet
EndChar
StartChar: oslash
Encoding: 248 248 185
Width: 1099
GlyphClass: 2
Flags: W
HStem: -41 139<433 626> 832 139<358 553>
VStem: 65 156<394 623> 761 156<306 533>
Fore
953 919 m 1,0,-1
 839 792 l 1,1,2
 918 660 918 660 918 464 c 0,3,4
 918 227 918 227 805.5 93 c 128,-1,5
 693 -41 693 -41 493 -41 c 0,6,7
 307 -41 307 -41 199 70 c 1,8,-1
 90 -54 l 1,9,-1
 32 -4 l 1,10,-1
 151 130 l 1,11,12
 65 256 65 256 65 464 c 0,13,14
 65 701 65 701 178.5 835.5 c 128,-1,15
 292 970 292 970 492 970 c 0,16,17
 673 970 673 970 790 853 c 1,18,-1
 895 970 l 1,19,-1
 953 919 l 1,0,-1
730 667 m 1,20,-1
 300 184 l 1,21,22
 380 97 380 97 492 97 c 0,23,24
 617 97 617 97 689 195.5 c 128,-1,25
 761 294 761 294 761 464 c 0,26,27
 761 586 761 586 730 667 c 1,20,-1
259 254 m 1,28,-1
 689 738 l 1,29,30
 654 782 654 782 602.5 807 c 128,-1,31
 551 832 551 832 492 832 c 0,32,33
 366 832 366 832 293.5 733 c 128,-1,34
 221 634 221 634 221 464 c 0,35,36
 221 344 221 344 259 254 c 1,28,-1
EndSplineSet
EndChar
StartChar: ugrave
Encoding: 249 249 186
Width: 1000
GlyphClass: 2
Flags: W
HStem: -41 132<326 539> 907 36<118 266 718 868> 1294 36<234 437>
VStem: 118 149<138 943> 718 149<312 943> 732 134<0 132>
Fore
436 1330 m 1,0,-1
 609 1064 l 1,1,-1
 501 1064 l 1,2,-1
 234 1330 l 1,3,-1
 436 1330 l 1,0,-1
EndSplineSet
Refer: 87 117 N 1 0 0 1 0 0 1
EndChar
StartChar: uacute
Encoding: 250 250 187
Width: 1000
GlyphClass: 2
Flags: W
HStem: -41 132<326 539> 907 36<118 266 718 868> 1296 36<533 737>
VStem: 118 149<138 943> 718 149<312 943> 732 134<0 132>
Fore
532 1332 m 1,0,-1
 736 1332 l 1,1,-1
 468 1066 l 1,2,-1
 360 1066 l 1,3,-1
 532 1332 l 1,0,-1
EndSplineSet
Refer: 87 117 N 1 0 0 1 0 0 1
EndChar
StartChar: ucircumflex
Encoding: 251 251 188
Width: 1000
GlyphClass: 2
Flags: W
HStem: -41 132<326 539> 907 36<118 266 718 868> 1300 36<408 580>
VStem: 118 149<138 943> 718 149<312 943> 732 134<0 132>
Fore
408 1336 m 1,0,-1
 578 1336 l 1,1,-1
 751 1065 l 1,2,-1
 638 1065 l 1,3,-1
 492 1238 l 1,4,-1
 350 1065 l 1,5,-1
 235 1065 l 1,6,-1
 408 1336 l 1,0,-1
EndSplineSet
Refer: 87 117 N 1 0 0 1 0 0 1
EndChar
StartChar: yacute
Encoding: 253 253 190
Width: 900
GlyphClass: 2
Flags: W
HStem: -392 148<166 250> 907 36<36 197 698 860> 1294 36<485 688>
Fore
484 1330 m 1,0,-1
 688 1330 l 1,1,-1
 420 1064 l 1,2,-1
 312 1064 l 1,3,-1
 484 1330 l 1,0,-1
EndSplineSet
Refer: 91 121 N 1 0 0 1 0 0 1
EndChar
StartChar: thorn
Encoding: 254 254 191
Width: 998
GlyphClass: 2
Flags: W
HStem: -41 140<430 658> 830 140<430 659>
VStem: 97 149<-392 1285> 782 156<305 612>
Fore
97 -392 m 1,0,-1
 97 1285 l 1,1,-1
 247 1285 l 1,2,-1
 247 826 l 1,3,4
 296 895 296 895 371 932.5 c 0,5,6
 446 970 446 970 536 970 c 0,7,8
 720 970 720 970 830 830 c 0,9,10
 940 690 940 690 940 456 c 0,11,12
 940 230 940 230 829.5 94.5 c 0,13,14
 719 -41 719 -41 536 -41 c 0,15,16
 445 -41 445 -41 375.5 -7.5 c 0,17,18
 306 26 306 26 247 98 c 1,19,-1
 247 -392 l 1,20,-1
 97 -392 l 1,0,-1
509 830 m 0,13,14
 390 830 390 830 318.5 730.5 c 0,15,16
 247 631 247 631 247 464 c 0,17,18
 247 297 247 297 318.5 197.5 c 0,19,20
 390 98 390 98 509 98 c 0,21,22
 632 98 632 98 707 198 c 0,23,24
 782 298 782 298 782 458 c 0,25,26
 782 627 782 627 707.5 728.5 c 0,27,28
 633 830 633 830 509 830 c 0,13,14
EndSplineSet
EndChar
StartChar: Cacute
Encoding: 262 262 193
Width: 1299
GlyphClass: 2
Flags: W
HStem: -41 148<442 839> 1186 148<446 830> 1656 36<730 932>
VStem: 86 168<479 811>
Fore
729 1692 m 1,0,-1
 933 1692 l 1,1,-1
 665 1426 l 1,2,-1
 557 1426 l 1,3,-1
 729 1692 l 1,0,-1
EndSplineSet
Refer: 37 67 N 1 0 0 1 0 0 1
EndChar
StartChar: cacute
Encoding: 263 263 194
Width: 900
GlyphClass: 2
Flags: W
HStem: -41 139<346 586> 832 139<348 583> 1296 36<536 739>
VStem: 55 156<304 612>
Fore
536 1332 m 1,0,-1
 740 1332 l 1,1,-1
 472 1066 l 1,2,-1
 364 1066 l 1,3,-1
 536 1332 l 1,0,-1
EndSplineSet
Refer: 69 99 N 1 0 0 1 0 0 1
EndChar
StartChar: Ccaron
Encoding: 268 268 195
Width: 1299
GlyphClass: 2
Flags: W
HStem: -41 148<442 839> 1186 148<446 830> 1656 36<427 540 828 943>
VStem: 86 168<479 811>
Fore
770 1421 m 1,0,-1
 598 1421 l 1,1,-1
 426 1692 l 1,2,-1
 540 1692 l 1,3,-1
 685 1520 l 1,4,-1
 828 1692 l 1,5,-1
 943 1692 l 1,6,-1
 770 1421 l 1,0,-1
EndSplineSet
Refer: 37 67 N 1 0 0 1 0 0 1
EndChar
StartChar: ccaron
Encoding: 269 269 196
Width: 900
GlyphClass: 2
Flags: W
HStem: -41 139<346 586> 832 139<348 583> 1300 36<220 334 622 737>
VStem: 55 156<304 612>
Fore
563 1065 m 1,0,-1
 391 1065 l 1,1,-1
 219 1336 l 1,2,-1
 333 1336 l 1,3,-1
 478 1164 l 1,4,-1
 621 1336 l 1,5,-1
 736 1336 l 1,6,-1
 563 1065 l 1,0,-1
EndSplineSet
Refer: 69 99 N 1 0 0 1 0 0 1
EndChar
StartChar: dcroat
Encoding: 273 273 197
Width: 1000
GlyphClass: 2
Flags: W
HStem: -41 148<331 557> 823 148<329 557> 1080 96<470 739 889 1003> 1277 36G<739 889>
VStem: 47 156<319 624> 739 149<354 571 830 1080 1176 1313> 756 133<0 106>
Fore
889 1176 m 1,0,-1
 1003 1176 l 1,1,-1
 1003 1080 l 1,2,-1
 889 1080 l 1,3,-1
 889 0 l 1,4,-1
 756 0 l 1,5,-1
 756 106 l 1,6,7
 631 -41 631 -41 454 -41 c 0,8,9
 270 -41 270 -41 158.5 100 c 0,10,11
 47 241 47 241 47 475 c 0,12,13
 47 699 47 699 157 834.5 c 0,14,15
 267 970 267 970 450 970 c 0,16,17
 541 970 541 970 610 936 c 0,18,19
 679 902 679 902 739 830 c 1,20,-1
 739 1080 l 1,21,-1
 470 1080 l 1,22,-1
 470 1176 l 1,23,-1
 739 1176 l 1,24,-1
 739 1313 l 1,25,-1
 889 1313 l 1,26,-1
 889 1176 l 1,0,-1
478 823 m 0,21,22
 354 823 354 823 279 724 c 0,23,24
 204 625 204 625 204 464 c 0,25,26
 204 303 204 303 279 204.5 c 0,27,28
 354 106 354 106 478 106 c 0,29,30
 596 106 596 106 667.5 203 c 0,31,32
 739 300 739 300 739 461 c 0,33,34
 739 627 739 627 668 725 c 0,35,36
 597 823 597 823 478 823 c 0,21,22
EndSplineSet
EndChar
StartChar: Gbreve
Encoding: 286 286 198
Width: 1400
GlyphClass: 2
Flags: W
HStem: -41 148<503 836> 545 148<730 1277> 1186 148<457 859> 1435 125<658 797> 1642 36<444 551 881 986>
VStem: 79 168<442 812> 1128 148<392 545 694 694>
Fore
444 1678 m 1,0,-1
 551 1678 l 1,1,2
 564 1559 564 1559 717 1559 c 0,3,4
 790 1559 790 1559 833 1590 c 128,-1,5
 876 1621 876 1621 881 1678 c 1,6,-1
 987 1678 l 1,7,8
 969 1435 969 1435 713 1435 c 0,9,10
 677 1435 677 1435 643 1441 c 128,-1,11
 609 1447 609 1447 572.5 1463.5 c 128,-1,12
 536 1480 536 1480 509 1506 c 128,-1,13
 482 1532 482 1532 464 1576.5 c 128,-1,14
 446 1621 446 1621 444 1678 c 1,0,-1
EndSplineSet
Refer: 41 71 N 1 0 0 1 0 0 1
EndChar
StartChar: gbreve
Encoding: 287 287 199
Width: 1000
GlyphClass: 2
Flags: W
HStem: -392 126<348 638> -41 139<334 551> 832 139<334 551> 1078 125<415 553> 1285 36<202 307 637 744>
VStem: 53 156<301 608> 727 154<-29 155 -10 577> 742 139<806 943>
Fore
201 1322 m 1,0,-1
 308 1322 l 1,1,2
 321 1203 321 1203 474 1203 c 0,3,4
 547 1203 547 1203 590 1234 c 128,-1,5
 633 1265 633 1265 638 1322 c 1,6,-1
 744 1322 l 1,7,8
 726 1079 726 1079 470 1079 c 0,9,10
 434 1079 434 1079 400 1085 c 128,-1,11
 366 1091 366 1091 329.5 1107.5 c 128,-1,12
 293 1124 293 1124 266 1150 c 128,-1,13
 239 1176 239 1176 221 1220.5 c 128,-1,14
 203 1265 203 1265 201 1322 c 1,0,-1
EndSplineSet
Refer: 73 103 N 1 0 0 1 0 0 1
EndChar
StartChar: Idotaccent
Encoding: 304 304 200
Width: 500
GlyphClass: 2
Flags: W
HStem: 0 38<180 349> 1277 36<180 349>
VStem: 180 169<0 1313>
Fore
358 1630 m 1,0,-1
 358 1443 l 1,1,-1
 170 1443 l 1,2,-1
 170 1630 l 1,3,-1
 358 1630 l 1,0,-1
EndSplineSet
Refer: 43 73 N 1 0 0 1 0 0 1
EndChar
StartChar: dotlessi
Encoding: 305 305 201
Width: 500
GlyphClass: 2
Flags: W
HStem: 0 38G<169 319> 907 36G<169 319>
VStem: 169 149<0 943>
AnchorPoint: "above" 243 968.4 basechar 0
Fore
319 943 m 1,0,-1
 319 0 l 1,1,-1
 169 0 l 1,2,-1
 169 943 l 1,3,-1
 319 943 l 1,0,-1
EndSplineSet
EndChar
StartChar: Lslash
Encoding: 321 321 202
Width: 1000
GlyphClass: 2
Flags: W
HStem: 0 148<144 994> 1277 36G<144 312>
VStem: 144 168<0 593 641 1313>
Fore
312 731 m 5,0,-1
 619 948 l 1,1,-1
 619 811 l 1,2,-1
 312 593 l 1,3,-1
 312 148 l 1,4,-1
 994 148 l 1,5,-1
 994 0 l 1,6,-1
 144 0 l 1,7,-1
 144 504 l 1,8,-1
 0 401 l 1,9,-1
 0 540 l 1,10,-1
 144 641 l 1,11,-1
 144 1313 l 1,12,-1
 312 1313 l 1,13,-1
 312 731 l 5,0,-1
EndSplineSet
EndChar
StartChar: lslash
Encoding: 322 322 203
Width: 399
GlyphClass: 2
Flags: W
HStem: 0 38G<113 263> 1277 36G<113 263>
VStem: 113 149<0 643 679 1313>
Fore
263 758 m 1,0,-1
 382 850 l 1,1,-1
 382 734 l 1,2,-1
 263 643 l 1,3,-1
 263 0 l 1,4,-1
 113 0 l 1,5,-1
 113 564 l 1,6,-1
 0 473 l 1,7,-1
 0 588 l 1,8,-1
 113 679 l 1,9,-1
 113 1313 l 1,10,-1
 263 1313 l 1,11,-1
 263 758 l 1,0,-1
EndSplineSet
EndChar
StartChar: OE
Encoding: 338 338 204
Width: 1800
GlyphClass: 2
Flags: W
HStem: -36 148<503 689> 0 148<946 1726> 588 148<1112 1703> 1164 148<946 1717> 1186 148<506 691>
VStem: 77 168<370 918> 946 168<328 970>
AnchorPoint: "below" 1027.8 0 basechar 0
AnchorPoint: "above" 1027.8 1312.2 basechar 0
Fore
77 641 m 0,0,1
 77 800 77 800 112.5 925 c 128,-1,2
 148 1050 148 1050 203.5 1125 c 128,-1,3
 259 1200 259 1200 333 1249 c 128,-1,4
 407 1298 407 1298 476 1316 c 128,-1,5
 545 1334 545 1334 616 1334 c 0,6,7
 833 1334 833 1334 946 1176 c 1,8,-1
 946 1313 l 1,9,-1
 1717 1313 l 1,10,-1
 1717 1164 l 1,11,-1
 1112 1164 l 1,12,-1
 1112 737 l 1,13,-1
 1703 737 l 1,14,-1
 1703 588 l 1,15,-1
 1112 588 l 1,16,-1
 1112 148 l 1,17,-1
 1726 148 l 1,18,-1
 1726 0 l 1,19,-1
 946 0 l 1,20,-1
 946 133 l 1,21,22
 883 46 883 46 803 5 c 128,-1,23
 723 -36 723 -36 614 -36 c 0,24,25
 542 -36 542 -36 472.5 -18.5 c 128,-1,26
 403 -1 403 -1 329.5 46.5 c 128,-1,27
 256 94 256 94 201.5 167.5 c 128,-1,28
 147 241 147 241 112 363 c 128,-1,29
 77 485 77 485 77 641 c 0,0,1
245 648 m 0,30,31
 245 538 245 538 261 450.5 c 128,-1,32
 277 363 277 363 306 306 c 128,-1,33
 335 249 335 249 370 209.5 c 128,-1,34
 405 170 405 170 448.5 149.5 c 128,-1,35
 492 129 492 129 531.5 120.5 c 128,-1,36
 571 112 571 112 614 112 c 0,37,38
 839 112 839 112 946 328 c 1,39,-1
 946 970 l 1,40,41
 839 1186 839 1186 616 1186 c 0,42,43
 561 1186 561 1186 513 1174 c 128,-1,44
 465 1162 465 1162 414 1126 c 128,-1,45
 363 1090 363 1090 327 1032.5 c 128,-1,46
 291 975 291 975 268 876.5 c 128,-1,47
 245 778 245 778 245 648 c 0,30,31
EndSplineSet
EndChar
StartChar: oe
Encoding: 339 339 205
Width: 1699
GlyphClass: 2
Flags: W
HStem: -41 139<362 581 1121 1304> 421 122<924 1618> 832 139<362 583 1121 1286>
VStem: 72 156<305 628> 1457 162<421 629>
AnchorPoint: "below" 853.2 0 basechar 0
AnchorPoint: "above" 853.2 968.4 basechar 0
Fore
924 421 m 1,0,1
 925 346 925 346 944 287 c 128,-1,2
 963 228 963 228 991 193 c 128,-1,3
 1019 158 1019 158 1057 135.5 c 128,-1,4
 1095 113 1095 113 1129.5 105 c 128,-1,5
 1164 97 1164 97 1200 97 c 0,6,7
 1385 97 1385 97 1447 286 c 1,8,-1
 1598 286 l 1,9,10
 1569 133 1569 133 1463 46 c 128,-1,11
 1357 -41 1357 -41 1198 -41 c 0,12,13
 1083 -41 1083 -41 992 7 c 128,-1,14
 901 55 901 55 847 144 c 1,15,16
 737 -41 737 -41 499 -41 c 0,17,18
 295 -41 295 -41 183.5 91 c 128,-1,19
 72 223 72 223 72 466 c 0,20,21
 72 707 72 707 183.5 838.5 c 128,-1,22
 295 970 295 970 499 970 c 0,23,24
 743 970 743 970 852 780 c 1,25,26
 907 870 907 870 998.5 920 c 128,-1,27
 1090 970 1090 970 1199 970 c 0,28,29
 1331 970 1331 970 1432.5 904 c 128,-1,30
 1534 838 1534 838 1580 722 c 0,31,32
 1618 627 1618 627 1618 421 c 1,33,-1
 924 421 l 1,0,1
499 832 m 128,-1,35
 373 832 373 832 300.5 734.5 c 128,-1,36
 228 637 228 637 228 466 c 0,37,38
 228 293 228 293 300.5 195 c 128,-1,39
 373 97 373 97 499 97 c 0,40,41
 624 97 624 97 696 194.5 c 128,-1,42
 768 292 768 292 768 461 c 0,43,44
 768 636 768 636 696.5 734 c 128,-1,34
 625 832 625 832 499 832 c 128,-1,35
926 544 m 1,45,-1
 1457 544 l 1,46,47
 1457 672 1457 672 1384.5 752 c 128,-1,48
 1312 832 1312 832 1198 832 c 128,-1,49
 1084 832 1084 832 1010.5 753.5 c 128,-1,50
 937 675 937 675 926 544 c 1,45,-1
EndSplineSet
EndChar
StartChar: Scedilla
Encoding: 350 350 206
Width: 1200
GlyphClass: 2
Flags: W
HStem: -385 74<502 616> -163 67<541 672> -43 149<467 758> 1193 140<449 744>
VStem: 86 158<296 418> 126 168<869 1068> 634 134<-269 -179> 950 168<275 442>
Fore
616 106 m 0,0,1
 697 106 697 106 759 122 c 0,2,3
 821 138 821 138 856.5 162 c 0,4,5
 892 186 892 186 914 219.5 c 0,6,7
 936 253 936 253 943 282 c 0,8,9
 950 311 950 311 950 343 c 0,10,11
 950 421 950 421 891.5 473 c 0,12,13
 833 525 833 525 709 557 c 2,14,-1
 384 643 l 2,15,16
 126 710 126 710 126 948 c 0,17,18
 126 1127 126 1127 251.5 1230.5 c 0,19,20
 377 1334 377 1334 593 1334 c 0,21,22
 819 1334 819 1334 945 1227 c 0,23,24
 1071 1120 1071 1120 1073 926 c 1,25,-1
 914 926 l 1,26,27
 912 1055 912 1055 828 1124 c 0,28,29
 744 1193 744 1193 587 1193 c 0,30,31
 454 1193 454 1193 373.5 1132.5 c 0,32,33
 293 1072 293 1072 293 972 c 0,34,35
 293 896 293 896 341 853 c 0,36,37
 389 810 389 810 509 778 c 2,38,-1
 839 689 l 2,39,40
 973 653 973 653 1045.5 567.5 c 0,41,42
 1118 482 1118 482 1118 360 c 0,43,44
 1118 304 1118 304 1105.5 254 c 0,45,46
 1093 204 1093 204 1058 150.5 c 0,47,48
 1023 97 1023 97 967.5 57.5 c 0,49,50
 912 18 912 18 818 -10 c 0,51,52
 724 -38 724 -38 602 -43 c 1,53,-1
 576 -101 l 1,54,55
 601 -97 601 -97 626 -97 c 0,56,57
 694 -97 694 -97 731 -128.5 c 0,58,59
 768 -160 768 -160 768 -218 c 0,60,61
 768 -295 768 -295 708.5 -340 c 0,62,63
 649 -385 649 -385 547 -385 c 0,64,65
 497 -385 497 -385 452 -372.5 c 0,66,67
 407 -360 407 -360 322 -324 c 1,68,-1
 360 -252 l 1,69,70
 395 -271 395 -271 443.5 -291.5 c 0,71,72
 492 -312 492 -312 536 -312 c 0,73,74
 579 -312 579 -312 606.5 -288.5 c 0,75,76
 634 -265 634 -265 634 -230 c 0,77,78
 634 -200 634 -200 611.5 -181.5 c 0,79,80
 589 -163 589 -163 551 -163 c 0,81,82
 530 -163 530 -163 494 -176 c 1,83,-1
 475 -166 l 1,84,-1
 530 -41 l 1,85,86
 515 -36 515 -36 511 -36 c 2,87,-1
 432 -24 l 2,88,89
 272 10 272 10 179 126 c 0,90,91
 86 242 86 242 86 406 c 2,92,-1
 86 418 l 1,93,-1
 245 418 l 1,94,-1
 245 408 l 2,95,96
 245 353 245 353 262 304 c 0,97,98
 279 255 279 255 318 208.5 c 0,99,100
 357 162 357 162 433.5 134 c 0,101,102
 510 106 510 106 616 106 c 0,0,1
EndSplineSet
EndChar
StartChar: scedilla
Encoding: 351 351 207
Width: 900
GlyphClass: 2
Flags: W
HStem: -385 74<340 454> -163 67<378 509> 832 139<336 556>
VStem: 84 156<608 769> 472 134<-269 -179> 670 156<200 328>
Fore
220 281 m 1,0,1
 224 250 224 250 231 226.5 c 0,2,3
 238 203 238 203 254 177 c 0,4,5
 270 151 270 151 293.5 135 c 0,6,7
 317 119 317 119 357 108 c 0,8,9
 397 97 397 97 450 97 c 0,10,11
 548 97 548 97 609 137.5 c 0,12,13
 670 178 670 178 670 245 c 0,14,15
 670 296 670 296 636 326.5 c 0,16,17
 602 357 602 357 523 377 c 2,18,-1
 384 410 l 2,19,20
 217 450 217 450 150.5 511 c 0,21,22
 84 572 84 572 84 682 c 0,23,24
 84 813 84 813 183 891.5 c 0,25,26
 282 970 282 970 446 970 c 0,27,28
 610 970 610 970 698.5 895 c 0,29,30
 787 820 787 820 788 680 c 1,31,-1
 630 680 l 1,32,33
 624 832 624 832 442 832 c 0,34,35
 350 832 350 832 295.5 793 c 0,36,37
 241 754 241 754 241 689 c 0,38,39
 241 640 241 640 282 608 c 0,40,41
 323 576 323 576 415 554 c 2,42,-1
 559 521 l 2,43,44
 700 486 700 486 763 424 c 0,45,46
 826 362 826 362 826 257 c 0,47,48
 826 173 826 173 779 103 c 0,49,50
 732 33 732 33 650 -4 c 0,51,52
 580 -34 580 -34 439 -43 c 1,53,-1
 414 -101 l 1,54,55
 439 -97 439 -97 464 -97 c 0,56,57
 532 -97 532 -97 569.5 -128.5 c 0,58,59
 607 -160 607 -160 607 -218 c 0,60,61
 607 -295 607 -295 547 -340 c 0,62,63
 487 -385 487 -385 385 -385 c 0,64,65
 334 -385 334 -385 289 -372.5 c 0,66,67
 244 -360 244 -360 161 -324 c 1,68,-1
 198 -252 l 1,69,70
 233 -271 233 -271 282 -291.5 c 0,71,72
 331 -312 331 -312 374 -312 c 0,73,74
 416 -312 416 -312 444 -288.5 c 0,75,76
 472 -265 472 -265 472 -230 c 0,77,78
 472 -199 472 -199 450 -181 c 0,79,80
 428 -163 428 -163 389 -163 c 0,81,82
 368 -163 368 -163 334 -176 c 1,83,-1
 313 -166 l 1,84,-1
 370 -38 l 1,85,86
 67 -8 67 -8 61 281 c 1,87,-1
 220 281 l 1,0,1
EndSplineSet
EndChar
StartChar: Scaron
Encoding: 352 352 208
Width: 1200
GlyphClass: 2
Flags: W
HStem: -41 148<467 810> 1193 140<449 744> 1656 36<341 454 742 857>
VStem: 86 158<342 418> 126 168<869 1068> 950 168<280 442>
Fore
684 1421 m 1,0,-1
 512 1421 l 1,1,-1
 340 1692 l 1,2,-1
 454 1692 l 1,3,-1
 599 1520 l 1,4,-1
 742 1692 l 1,5,-1
 857 1692 l 1,6,-1
 684 1421 l 1,0,-1
EndSplineSet
Refer: 53 83 N 1 0 0 1 0 0 1
EndChar
StartChar: scaron
Encoding: 353 353 209
Width: 900
GlyphClass: 2
Flags: W
HStem: -41 139<314 557> 832 139<336 556> 1298 36<185 299 587 702>
VStem: 84 156<608 769> 670 156<167 328>
Fore
529 1063 m 1,0,-1
 357 1063 l 1,1,-1
 185 1334 l 1,2,-1
 299 1334 l 1,3,-1
 444 1162 l 1,4,-1
 587 1334 l 1,5,-1
 702 1334 l 1,6,-1
 529 1063 l 1,0,-1
EndSplineSet
Refer: 85 115 N 1 0 0 1 0 0 1
EndChar
StartChar: Zcaron
Encoding: 381 381 211
Width: 1099
GlyphClass: 2
Flags: W
HStem: 0 148<50 1049> 1164 148<101 1046> 1656 36<314 428 716 832>
Fore
659 1421 m 1,0,-1
 487 1421 l 1,1,-1
 315 1692 l 1,2,-1
 429 1692 l 1,3,-1
 574 1520 l 1,4,-1
 717 1692 l 1,5,-1
 832 1692 l 1,6,-1
 659 1421 l 1,0,-1
EndSplineSet
Refer: 60 90 N 1 0 0 1 0 0 1
EndChar
StartChar: zcaron
Encoding: 382 382 212
Width: 900
GlyphClass: 2
Flags: W
HStem: 0 132<55 823> 811 132<94 797> 1296 36<192 306 594 709>
Fore
536 1061 m 1,0,-1
 364 1061 l 1,1,-1
 192 1332 l 1,2,-1
 306 1332 l 1,3,-1
 451 1160 l 1,4,-1
 594 1332 l 1,5,-1
 709 1332 l 1,6,-1
 536 1061 l 1,0,-1
EndSplineSet
Refer: 92 122 N 1 0 0 1 0 0 1
EndChar
StartChar: florin
Encoding: 402 402 213
Width: 500
GlyphClass: 2
Flags: W
HStem: -392 132<34 134> 821 122<32 158 307 464> 1186 132<311 419>
VStem: 158 149<-197 821 943 1104>
Fore
464 943 m 1,0,-1
 464 821 l 1,1,-1
 307 821 l 1,2,-1
 307 -197 l 2,3,4
 307 -293 307 -293 242 -342.5 c 0,5,6
 177 -392 177 -392 50 -392 c 0,7,8
 22 -392 22 -392 0 -386 c 1,9,-1
 0 -259 l 1,10,11
 31 -262 31 -262 36 -262 c 0,12,13
 104 -262 104 -262 131 -234.5 c 0,14,15
 158 -207 158 -207 158 -137 c 2,16,-1
 158 821 l 1,17,-1
 32 821 l 1,18,-1
 32 943 l 1,19,-1
 158 943 l 1,20,-1
 158 1104 l 2,21,22
 158 1204 158 1204 216.5 1261 c 0,23,24
 275 1318 275 1318 379 1318 c 0,25,26
 415 1318 415 1318 464 1308 c 1,27,-1
 464 1184 l 1,28,29
 430 1186 430 1186 413 1186 c 0,30,31
 307 1186 307 1186 307 1091 c 2,32,-1
 307 943 l 1,33,-1
 464 943 l 1,0,-1
EndSplineSet
EndChar
StartChar: arabiccomma
Encoding: 1548 1548 214
Width: 399
GlyphClass: 2
Flags: W
Fore
100 279 m 1,0,-1
 287 279 l 1,1,-1
 287 221 l 1,2,-1
 197 221 l 1,3,-1
 197 146 l 1,4,-1
 301 146 l 1,5,-1
 301 0 l 1,6,-1
 100 0 l 1,7,-1
 100 279 l 1,0,-1
EndSplineSet
EndChar
StartChar: arabicsemicolon
Encoding: 1563 1563 215
Width: 399
GlyphClass: 2
Flags: W
Fore
103 511 m 1,0,-1
 289 511 l 1,1,-1
 289 453 l 1,2,-1
 200 453 l 1,3,-1
 200 377 l 1,4,-1
 303 377 l 1,5,-1
 303 232 l 1,6,-1
 103 232 l 1,7,-1
 103 511 l 1,0,-1
303 149 m 1,8,-1
 303 -1 l 1,9,-1
 103 -1 l 1,10,-1
 103 149 l 1,11,-1
 303 149 l 1,8,-1
EndSplineSet
EndChar
StartChar: arabicquestionmark
Encoding: 1567 1567 216
Width: 724
GlyphClass: 2
Flags: W
Fore
421 105 m 1,0,-1
 421 325 l 1,1,-1
 98 325 l 1,2,-1
 98 976 l 1,3,-1
 621 976 l 1,4,-1
 621 876 l 1,5,-1
 298 876 l 1,6,-1
 298 425 l 1,7,-1
 621 425 l 1,8,-1
 621 105 l 1,9,-1
 421 105 l 1,0,-1
425 18 m 1,10,-1
 626 18 l 1,11,-1
 626 -125 l 1,12,-1
 425 -125 l 1,13,-1
 425 18 l 1,10,-1
EndSplineSet
EndChar
StartChar: hamza
Encoding: 1569 1569 217
Width: 862
GlyphClass: 2
Flags: W
AnchorPoint: "ArabicBelow" 384 -180 basechar 0
AnchorPoint: "ArabicAbove" 492 828 basechar 0
Fore
646 0 m 1,0,-1
 98 0 l 1,1,-1
 98 100 l 1,2,-1
 221 100 l 1,3,-1
 221 661 l 1,4,-1
 782 661 l 1,5,-1
 782 371 l 1,6,-1
 582 371 l 1,7,-1
 582 561 l 1,8,-1
 421 561 l 1,9,-1
 421 100 l 1,10,-1
 782 100 l 1,11,-1
 782 0 l 1,12,-1
 646 0 l 1,0,-1
EndSplineSet
EndChar
StartChar: alefwithmaddaabove
Encoding: 1570 1570 218
Width: 381
GlyphClass: 2
Flags: W
AnchorPoint: "ArabicBelow" 180 -216 basechar 0
AnchorPoint: "ArabicAbove" 228 1632 basechar 0
Fore
98 0 m 1,0,-1
 98 1403 l 1,1,-1
 303 1403 l 1,2,-1
 303 0 l 1,3,-1
 98 0 l 1,0,-1
348 1464 m 1,4,-1
 54 1464 l 1,5,-1
 54 1564 l 1,6,-1
 348 1564 l 1,7,-1
 348 1464 l 1,4,-1
EndSplineSet
Substitution2: "'fina' Terminal Forms in Arabic lookup 4" alefwithmaddaabovefinal
Substitution2: "'aalt' Access All Alternates in Latin lookup 1" alefwithmaddaabovefinal
EndChar
StartChar: alefwithhamzaabove
Encoding: 1571 1571 219
Width: 388
GlyphClass: 2
Flags: W
AnchorPoint: "ArabicBelow" 156 -228 basechar 0
AnchorPoint: "ArabicAbove" 240 1800 basechar 0
Fore
98 0 m 1,0,-1
 98 1403 l 1,1,-1
 303 1403 l 1,2,-1
 303 0 l 1,3,-1
 98 0 l 1,0,-1
33 1459 m 1,4,-1
 33 1507 l 1,5,-1
 92 1507 l 1,6,-1
 92 1721 l 1,7,-1
 366 1721 l 1,8,-1
 366 1610 l 1,9,-1
 268 1610 l 1,10,-1
 268 1672 l 1,11,-1
 189 1672 l 1,12,-1
 189 1507 l 1,13,-1
 366 1507 l 1,14,-1
 366 1459 l 1,15,-1
 33 1459 l 1,4,-1
EndSplineSet
Substitution2: "'fina' Terminal Forms in Arabic lookup 4" alefwithhamzaabovefinal
Substitution2: "'aalt' Access All Alternates in Latin lookup 1" alefwithhamzaabovefinal
EndChar
StartChar: wawwithhamzaabove
Encoding: 1572 1572 220
Width: 771
GlyphClass: 2
Flags: W
AnchorPoint: "ArabicBelow" 408 -516 basechar 0
AnchorPoint: "ArabicAbove" 432 1212 basechar 0
Fore
696 0 m 1,0,-1
 696 -301 l 1,1,-1
 291 -301 l 1,2,-1
 291 -200 l 1,3,-1
 497 -200 l 1,4,-1
 497 0 l 1,5,-1
 98 0 l 1,6,-1
 98 741 l 1,7,-1
 696 741 l 1,8,-1
 696 100 l 1,9,-1
 696 0 l 1,0,-1
497 641 m 1,10,-1
 298 641 l 1,11,-1
 298 100 l 1,12,-1
 497 100 l 1,13,-1
 497 641 l 1,10,-1
232 892 m 1,14,-1
 232 941 l 1,15,-1
 292 941 l 1,16,-1
 292 1155 l 1,17,-1
 565 1155 l 1,18,-1
 565 1044 l 1,19,-1
 468 1044 l 1,20,-1
 468 1106 l 1,21,-1
 389 1106 l 1,22,-1
 389 941 l 1,23,-1
 565 941 l 1,24,-1
 565 892 l 1,25,-1
 232 892 l 1,14,-1
EndSplineSet
Substitution2: "'fina' Terminal Forms in Arabic lookup 4" wawwithhamzaabovefinal
Substitution2: "'aalt' Access All Alternates in Latin lookup 1" wawwithhamzaabovefinal
EndChar
StartChar: alefwithhamzabelow
Encoding: 1573 1573 221
Width: 370
GlyphClass: 2
Flags: W
AnchorPoint: "ArabicBelow" 180 -480 basechar 0
AnchorPoint: "ArabicAbove" 240 1452 basechar 0
Fore
98 0 m 1,0,-1
 98 1403 l 1,1,-1
 303 1403 l 1,2,-1
 303 0 l 1,3,-1
 98 0 l 1,0,-1
35 -322 m 1,4,-1
 35 -272 l 1,5,-1
 96 -272 l 1,6,-1
 96 -60 l 1,7,-1
 368 -60 l 1,8,-1
 368 -171 l 1,9,-1
 271 -171 l 1,10,-1
 271 -108 l 1,11,-1
 192 -108 l 1,12,-1
 192 -272 l 1,13,-1
 368 -272 l 1,14,-1
 368 -322 l 1,15,-1
 35 -322 l 1,4,-1
EndSplineSet
Substitution2: "'fina' Terminal Forms in Arabic lookup 4" alefwithhamzabelowfinal
Substitution2: "'aalt' Access All Alternates in Latin lookup 1" alefwithhamzabelowfinal
EndChar
StartChar: yehwithhamzaabove
Encoding: 1574 1574 222
Width: 1190
GlyphClass: 2
Flags: W
AnchorPoint: "ArabicBelow" 624 -168 basechar 0
AnchorPoint: "ArabicAbove" 300 1116 basechar 0
Fore
98 0 m 1,0,-1
 98 50 l 1,1,-1
 98 601 l 1,2,-1
 298 601 l 1,3,-1
 298 100 l 1,4,-1
 912 100 l 1,5,-1
 912 360 l 1,6,-1
 589 360 l 1,7,-1
 589 802 l 1,8,-1
 789 802 l 1,9,-1
 1113 802 l 1,10,-1
 1113 701 l 1,11,-1
 940 701 l 1,12,-1
 789 701 l 1,13,-1
 789 461 l 1,14,-1
 846 461 l 1,15,-1
 905 461 l 1,16,-1
 1113 461 l 1,17,-1
 1113 0 l 1,18,-1
 98 0 l 1,0,-1
47 727 m 1,19,-1
 47 776 l 1,20,-1
 108 776 l 1,21,-1
 108 990 l 1,22,-1
 381 990 l 1,23,-1
 381 879 l 1,24,-1
 283 879 l 1,25,-1
 283 940 l 1,26,-1
 205 940 l 1,27,-1
 205 776 l 1,28,-1
 381 776 l 1,29,-1
 381 727 l 1,30,-1
 47 727 l 1,19,-1
EndSplineSet
Substitution2: "'fina' Terminal Forms in Arabic lookup 4" yehwithhamzaabovefinal
Substitution2: "'medi' Medial Forms in Arabic lookup 3" yehwithhamzaabovemedial
Substitution2: "'init' Initial Forms in Arabic lookup 2" yehwithhamzaaboveinitial
AlternateSubs2: "'aalt' Access All Alternates in Latin lookup 0" yehwithhamzaaboveinitial yehwithhamzaabovemedial yehwithhamzaabovefinal
EndChar
StartChar: arabicalef
Encoding: 1575 1575 223
Width: 378
GlyphClass: 2
Flags: W
AnchorPoint: "ArabicBelow" 180 -204 basechar 0
AnchorPoint: "ArabicAbove" 264 1476 basechar 0
Fore
98 0 m 1,0,-1
 98 1403 l 1,1,-1
 303 1403 l 1,2,-1
 303 0 l 1,3,-1
 98 0 l 1,0,-1
EndSplineSet
Substitution2: "'fina' Terminal Forms in Arabic lookup 4" aleffinal
Substitution2: "'aalt' Access All Alternates in Latin lookup 1" aleffinal
EndChar
StartChar: beh
Encoding: 1576 1576 224
Width: 875
GlyphClass: 2
Flags: W
AnchorPoint: "ArabicBelow" 504 -408 basechar 0
AnchorPoint: "ArabicAbove" 444 852 basechar 0
Fore
799 0 m 1,0,-1
 98 0 l 1,1,-1
 98 802 l 1,2,-1
 298 802 l 1,3,-1
 298 100 l 1,4,-1
 599 100 l 1,5,-1
 599 802 l 1,6,-1
 799 802 l 1,7,-1
 799 0 l 1,0,-1
345 -111 m 1,8,-1
 545 -111 l 1,9,-1
 545 -261 l 1,10,-1
 345 -261 l 1,11,-1
 345 -111 l 1,8,-1
EndSplineSet
Substitution2: "'fina' Terminal Forms in Arabic lookup 4" behfinal
Substitution2: "'medi' Medial Forms in Arabic lookup 3" behmedial
Substitution2: "'init' Initial Forms in Arabic lookup 2" behinitial
AlternateSubs2: "'aalt' Access All Alternates in Latin lookup 0" behinitial behmedial behfinal
EndChar
StartChar: tehmarbuta
Encoding: 1577 1577 225
Width: 773
GlyphClass: 2
Flags: W
AnchorPoint: "ArabicBelow" 396 -168 basechar 0
AnchorPoint: "ArabicAbove" 384 1188 basechar 0
Fore
98 0 m 1,0,-1
 98 741 l 1,1,-1
 696 741 l 1,2,-1
 696 0 l 1,3,-1
 98 0 l 1,0,-1
497 641 m 1,4,-1
 298 641 l 1,5,-1
 298 100 l 1,6,-1
 497 100 l 1,7,-1
 497 641 l 1,4,-1
157 1056 m 1,8,-1
 358 1056 l 1,9,-1
 358 906 l 1,10,-1
 157 906 l 1,11,-1
 157 1056 l 1,8,-1
424 1056 m 1,12,-1
 624 1056 l 1,13,-1
 624 906 l 1,14,-1
 424 906 l 1,15,-1
 424 1056 l 1,12,-1
EndSplineSet
Substitution2: "'fina' Terminal Forms in Arabic lookup 4" tehmarbutafinal
Substitution2: "'aalt' Access All Alternates in Latin lookup 1" tehmarbutafinal
EndChar
StartChar: teh
Encoding: 1578 1578 226
Width: 888
GlyphClass: 2
Flags: W
AnchorPoint: "ArabicBelow" 420 -132 basechar 0
AnchorPoint: "ArabicAbove" 468 1212 basechar 0
Fore
799 0 m 1,0,-1
 98 0 l 1,1,-1
 98 802 l 1,2,-1
 298 802 l 1,3,-1
 298 100 l 1,4,-1
 599 100 l 1,5,-1
 599 802 l 1,6,-1
 799 802 l 1,7,-1
 799 0 l 1,0,-1
218 1102 m 1,8,-1
 418 1102 l 1,9,-1
 418 952 l 1,10,-1
 218 952 l 1,11,-1
 218 1102 l 1,8,-1
484 1102 m 1,12,-1
 685 1102 l 1,13,-1
 685 952 l 1,14,-1
 484 952 l 1,15,-1
 484 1102 l 1,12,-1
EndSplineSet
Substitution2: "'fina' Terminal Forms in Arabic lookup 4" tehfinal
Substitution2: "'medi' Medial Forms in Arabic lookup 3" tehmedial
Substitution2: "'init' Initial Forms in Arabic lookup 2" tehinitial
AlternateSubs2: "'aalt' Access All Alternates in Latin lookup 0" tehinitial tehmedial tehfinal
EndChar
StartChar: theh
Encoding: 1579 1579 227
Width: 888
GlyphClass: 2
Flags: W
AnchorPoint: "ArabicBelow" 456 -204 basechar 0
AnchorPoint: "ArabicAbove" 504 1392 basechar 0
Fore
799 0 m 1,0,-1
 98 0 l 1,1,-1
 98 802 l 1,2,-1
 298 802 l 1,3,-1
 298 100 l 1,4,-1
 599 100 l 1,5,-1
 599 802 l 1,6,-1
 799 802 l 1,7,-1
 799 0 l 1,0,-1
218 1102 m 1,8,-1
 418 1102 l 1,9,-1
 418 952 l 1,10,-1
 218 952 l 1,11,-1
 218 1102 l 1,8,-1
339 1311 m 1,12,-1
 540 1311 l 1,13,-1
 540 1161 l 1,14,-1
 339 1161 l 1,15,-1
 339 1311 l 1,12,-1
484 1102 m 1,16,-1
 685 1102 l 1,17,-1
 685 952 l 1,18,-1
 484 952 l 1,19,-1
 484 1102 l 1,16,-1
EndSplineSet
Substitution2: "'fina' Terminal Forms in Arabic lookup 4" thehfinal
Substitution2: "'medi' Medial Forms in Arabic lookup 3" thehmedial
Substitution2: "'init' Initial Forms in Arabic lookup 2" thehinitial
AlternateSubs2: "'aalt' Access All Alternates in Latin lookup 0" thehinitial thehmedial thehfinal
EndChar
StartChar: jeem
Encoding: 1580 1580 228
Width: 1079
GlyphClass: 2
Flags: W
AnchorPoint: "ArabicBelow" 516 -480 basechar 0
AnchorPoint: "ArabicAbove" 684 972 basechar 0
Fore
799 -50 m 1,0,-1
 799 0 l 1,1,-1
 298 0 l 1,2,-1
 298 -200 l 1,3,-1
 439 -200 l 1,4,-1
 439 -301 l 1,5,-1
 98 -301 l 1,6,-1
 98 100 l 1,7,-1
 799 100 l 1,8,-1
 799 802 l 1,9,-1
 498 802 l 1,10,-1
 498 401 l 1,11,-1
 298 401 l 1,12,-1
 298 902 l 1,13,-1
 999 902 l 1,14,-1
 999 100 l 1,15,-1
 999 0 l 1,16,-1
 999 -50 l 1,17,-1
 799 -50 l 1,0,-1
534 -111 m 1,18,-1
 735 -111 l 1,19,-1
 735 -261 l 1,20,-1
 534 -261 l 1,21,-1
 534 -111 l 1,18,-1
EndSplineSet
Substitution2: "'fina' Terminal Forms in Arabic lookup 4" jeemfinal
Substitution2: "'medi' Medial Forms in Arabic lookup 3" jeemmedial
Substitution2: "'init' Initial Forms in Arabic lookup 2" jeeminitial
AlternateSubs2: "'aalt' Access All Alternates in Latin lookup 0" jeeminitial jeemmedial jeemfinal
EndChar
StartChar: hah
Encoding: 1581 1581 229
Width: 1079
GlyphClass: 2
Flags: W
AnchorPoint: "ArabicBelow" 528 -444 basechar 0
AnchorPoint: "ArabicAbove" 612 1032 basechar 0
Fore
799 -50 m 1,0,-1
 799 0 l 1,1,-1
 298 0 l 1,2,-1
 298 -200 l 1,3,-1
 439 -200 l 1,4,-1
 439 -301 l 1,5,-1
 98 -301 l 1,6,-1
 98 100 l 1,7,-1
 799 100 l 1,8,-1
 799 802 l 1,9,-1
 498 802 l 1,10,-1
 498 401 l 1,11,-1
 298 401 l 1,12,-1
 298 902 l 1,13,-1
 999 902 l 1,14,-1
 999 100 l 1,15,-1
 999 0 l 1,16,-1
 999 -50 l 1,17,-1
 799 -50 l 1,0,-1
EndSplineSet
Substitution2: "'fina' Terminal Forms in Arabic lookup 4" hahfinal
Substitution2: "'medi' Medial Forms in Arabic lookup 3" hahmedial
Substitution2: "'init' Initial Forms in Arabic lookup 2" hahinitial
AlternateSubs2: "'aalt' Access All Alternates in Latin lookup 0" hahinitial hahmedial hahfinal
EndChar
StartChar: khah
Encoding: 1582 1582 230
Width: 1075
GlyphClass: 2
Flags: W
AnchorPoint: "ArabicBelow" 552 -444 basechar 0
AnchorPoint: "ArabicAbove" 660 1248 basechar 0
Fore
799 -50 m 1,0,-1
 799 0 l 1,1,-1
 298 0 l 1,2,-1
 298 -200 l 1,3,-1
 439 -200 l 1,4,-1
 439 -301 l 1,5,-1
 98 -301 l 1,6,-1
 98 100 l 1,7,-1
 298 100 l 1,8,-1
 799 100 l 1,9,-1
 799 802 l 1,10,-1
 498 802 l 1,11,-1
 498 401 l 1,12,-1
 298 401 l 1,13,-1
 298 902 l 1,14,-1
 999 902 l 1,15,-1
 999 100 l 1,16,-1
 999 0 l 1,17,-1
 999 -50 l 1,18,-1
 799 -50 l 1,0,-1
530 1201 m 1,19,-1
 730 1201 l 1,20,-1
 730 1051 l 1,21,-1
 530 1051 l 1,22,-1
 530 1201 l 1,19,-1
EndSplineSet
Substitution2: "'fina' Terminal Forms in Arabic lookup 4" khahfinal
Substitution2: "'medi' Medial Forms in Arabic lookup 3" khahmedial
Substitution2: "'init' Initial Forms in Arabic lookup 2" khahinitial
AlternateSubs2: "'aalt' Access All Alternates in Latin lookup 0" khahinitial khahmedial khahfinal
EndChar
StartChar: dal
Encoding: 1583 1583 231
Width: 770
GlyphClass: 2
Flags: W
AnchorPoint: "ArabicBelow" 336 -216 basechar 0
AnchorPoint: "ArabicAbove" 384 1020 basechar 0
Fore
98 0 m 1,0,-1
 98 100 l 1,1,-1
 489 100 l 1,2,-1
 489 802 l 1,3,-1
 298 802 l 1,4,-1
 298 340 l 1,5,-1
 98 340 l 1,6,-1
 98 902 l 1,7,-1
 689 902 l 1,8,-1
 689 0 l 1,9,-1
 98 0 l 1,0,-1
EndSplineSet
Substitution2: "'fina' Terminal Forms in Arabic lookup 4" dalfinal
Substitution2: "'aalt' Access All Alternates in Latin lookup 1" dalfinal
EndChar
StartChar: thal
Encoding: 1584 1584 232
Width: 770
GlyphClass: 2
Flags: W
AnchorPoint: "ArabicBelow" 372 -180 basechar 0
AnchorPoint: "ArabicAbove" 408 1236 basechar 0
Fore
511 1051 m 1,0,-1
 310 1051 l 1,1,-1
 310 1201 l 1,2,-1
 511 1201 l 1,3,-1
 511 1051 l 1,0,-1
98 0 m 1,4,-1
 98 100 l 1,5,-1
 489 100 l 1,6,-1
 489 802 l 1,7,-1
 298 802 l 1,8,-1
 298 340 l 1,9,-1
 98 340 l 1,10,-1
 98 902 l 1,11,-1
 689 902 l 1,12,-1
 689 0 l 1,13,-1
 98 0 l 1,4,-1
EndSplineSet
Substitution2: "'fina' Terminal Forms in Arabic lookup 4" thalfinal
Substitution2: "'aalt' Access All Alternates in Latin lookup 1" thalfinal
EndChar
StartChar: reh
Encoding: 1585 1585 233
Width: 391
GlyphClass: 2
Flags: W
AnchorPoint: "ArabicBelow" 144 -480 basechar 0
AnchorPoint: "ArabicAbove" 228 696 basechar 0
Fore
318 -301 m 1,0,-1
 0 -301 l 1,1,-1
 0 -200 l 1,2,-1
 118 -200 l 1,3,-1
 118 601 l 1,4,-1
 318 601 l 1,5,-1
 318 -301 l 1,0,-1
EndSplineSet
Substitution2: "'fina' Terminal Forms in Arabic lookup 4" rehfinal
Substitution2: "'aalt' Access All Alternates in Latin lookup 1" rehfinal
EndChar
StartChar: zain
Encoding: 1586 1586 234
Width: 391
GlyphClass: 2
Flags: W
AnchorPoint: "ArabicBelow" 180 -480 basechar 0
AnchorPoint: "ArabicAbove" 204 960 basechar 0
Fore
318 -301 m 1,0,-1
 0 -301 l 1,1,-1
 0 -200 l 1,2,-1
 118 -200 l 1,3,-1
 118 601 l 1,4,-1
 318 601 l 1,5,-1
 318 -301 l 1,0,-1
116 867 m 1,6,-1
 316 867 l 1,7,-1
 316 717 l 1,8,-1
 116 717 l 1,9,-1
 116 867 l 1,6,-1
EndSplineSet
Substitution2: "'fina' Terminal Forms in Arabic lookup 4" zainfinal
Substitution2: "'aalt' Access All Alternates in Latin lookup 1" zainfinal
EndChar
StartChar: seen
Encoding: 1587 1587 235
Width: 1569
GlyphClass: 2
Flags: W
AnchorPoint: "ArabicBelow" 1104 -228 basechar 0
AnchorPoint: "ArabicAbove" 1080 864 basechar 0
Fore
784 0 m 1,0,-1
 784 -100 l 1,1,-1
 605 -100 l 1,2,-1
 98 -100 l 1,3,-1
 98 601 l 1,4,-1
 298 601 l 1,5,-1
 298 0 l 1,6,-1
 584 0 l 1,7,-1
 584 802 l 1,8,-1
 784 802 l 1,9,-1
 784 100 l 1,10,-1
 934 100 l 1,11,-1
 934 802 l 1,12,-1
 1135 802 l 1,13,-1
 1135 100 l 1,14,-1
 1285 100 l 1,15,-1
 1285 802 l 1,16,-1
 1485 802 l 1,17,-1
 1485 0 l 1,18,-1
 784 0 l 1,0,-1
EndSplineSet
Substitution2: "'fina' Terminal Forms in Arabic lookup 4" seenfinal
Substitution2: "'medi' Medial Forms in Arabic lookup 3" seenmedial
Substitution2: "'init' Initial Forms in Arabic lookup 2" seeninitial
AlternateSubs2: "'aalt' Access All Alternates in Latin lookup 0" seeninitial seenmedial seenfinal
EndChar
StartChar: sheen
Encoding: 1588 1588 236
Width: 1569
GlyphClass: 2
Flags: W
AnchorPoint: "ArabicBelow" 996 -180 basechar 0
AnchorPoint: "ArabicAbove" 1056 1368 basechar 0
Fore
784 0 m 1,0,-1
 784 -100 l 1,1,-1
 605 -100 l 1,2,-1
 98 -100 l 1,3,-1
 98 601 l 1,4,-1
 298 601 l 1,5,-1
 298 0 l 1,6,-1
 584 0 l 1,7,-1
 584 802 l 1,8,-1
 784 802 l 1,9,-1
 784 100 l 1,10,-1
 934 100 l 1,11,-1
 934 802 l 1,12,-1
 1135 802 l 1,13,-1
 1135 100 l 1,14,-1
 1285 100 l 1,15,-1
 1285 802 l 1,16,-1
 1485 802 l 1,17,-1
 1485 0 l 1,18,-1
 784 0 l 1,0,-1
829 1102 m 1,19,-1
 1029 1102 l 1,20,-1
 1029 952 l 1,21,-1
 829 952 l 1,22,-1
 829 1102 l 1,19,-1
950 1311 m 1,23,-1
 1150 1311 l 1,24,-1
 1150 1161 l 1,25,-1
 950 1161 l 1,26,-1
 950 1311 l 1,23,-1
1096 1102 m 1,27,-1
 1296 1102 l 1,28,-1
 1296 952 l 1,29,-1
 1096 952 l 1,30,-1
 1096 1102 l 1,27,-1
EndSplineSet
Substitution2: "'fina' Terminal Forms in Arabic lookup 4" sheenfinal
Substitution2: "'medi' Medial Forms in Arabic lookup 3" sheenmedial
Substitution2: "'init' Initial Forms in Arabic lookup 2" sheeninitial
AlternateSubs2: "'aalt' Access All Alternates in Latin lookup 0" sheeninitial sheenmedial sheenfinal
EndChar
StartChar: sad
Encoding: 1589 1589 237
Width: 1473
GlyphClass: 2
Flags: W
AnchorPoint: "ArabicBelow" 1032 -144 basechar 0
AnchorPoint: "ArabicAbove" 1116 828 basechar 0
Fore
784 0 m 1,0,-1
 784 -100 l 1,1,-1
 98 -100 l 1,2,-1
 98 601 l 1,3,-1
 308 601 l 1,4,-1
 308 0 l 1,5,-1
 584 0 l 1,6,-1
 584 902 l 1,7,-1
 784 902 l 1,8,-1
 784 802 l 1,9,-1
 1396 802 l 1,10,-1
 1396 0 l 1,11,-1
 784 0 l 1,0,-1
1200 701 m 1,12,-1
 795 701 l 1,13,-1
 795 100 l 1,14,-1
 1200 100 l 1,15,-1
 1200 701 l 1,12,-1
EndSplineSet
Substitution2: "'fina' Terminal Forms in Arabic lookup 4" sadfinal
Substitution2: "'medi' Medial Forms in Arabic lookup 3" sadmedial
Substitution2: "'init' Initial Forms in Arabic lookup 2" sadinitial
AlternateSubs2: "'aalt' Access All Alternates in Latin lookup 0" sadinitial sadmedial sadfinal
EndChar
StartChar: dad
Encoding: 1590 1590 238
Width: 1473
GlyphClass: 2
Flags: W
AnchorPoint: "ArabicBelow" 1056 -180 basechar 0
AnchorPoint: "ArabicAbove" 1104 1224 basechar 0
Fore
784 0 m 1,0,-1
 784 -100 l 1,1,-1
 98 -100 l 1,2,-1
 98 601 l 1,3,-1
 308 601 l 1,4,-1
 308 0 l 1,5,-1
 584 0 l 1,6,-1
 584 902 l 1,7,-1
 784 902 l 1,8,-1
 784 802 l 1,9,-1
 1396 802 l 1,10,-1
 1396 0 l 1,11,-1
 784 0 l 1,0,-1
1200 701 m 1,12,-1
 795 701 l 1,13,-1
 795 100 l 1,14,-1
 1200 100 l 1,15,-1
 1200 701 l 1,12,-1
947 1177 m 1,16,-1
 1146 1177 l 1,17,-1
 1146 1027 l 1,18,-1
 947 1027 l 1,19,-1
 947 1177 l 1,16,-1
EndSplineSet
Substitution2: "'fina' Terminal Forms in Arabic lookup 4" dadfinal
Substitution2: "'medi' Medial Forms in Arabic lookup 3" dadmedial
Substitution2: "'init' Initial Forms in Arabic lookup 2" dadinitial
AlternateSubs2: "'aalt' Access All Alternates in Latin lookup 0" dadinitial dadmedial dadfinal
EndChar
StartChar: tah
Encoding: 1591 1591 239
Width: 1067
GlyphClass: 2
Flags: W
AnchorPoint: "ArabicBelow" 600 -144 basechar 0
AnchorPoint: "ArabicAbove" 708 912 basechar 0
Fore
98 0 m 1,0,-1
 98 100 l 1,1,-1
 183 100 l 1,2,-1
 183 1403 l 1,3,-1
 383 1403 l 1,4,-1
 383 802 l 1,5,-1
 995 802 l 1,6,-1
 995 0 l 1,7,-1
 98 0 l 1,0,-1
799 701 m 1,8,-1
 394 701 l 1,9,-1
 394 100 l 1,10,-1
 799 100 l 1,11,-1
 799 701 l 1,8,-1
EndSplineSet
Substitution2: "'fina' Terminal Forms in Arabic lookup 4" tahfinal
Substitution2: "'medi' Medial Forms in Arabic lookup 3" tahmedial
Substitution2: "'init' Initial Forms in Arabic lookup 2" tahinitial
AlternateSubs2: "'aalt' Access All Alternates in Latin lookup 0" tahinitial tahmedial tahfinal
EndChar
StartChar: zah
Encoding: 1592 1592 240
Width: 1067
GlyphClass: 2
Flags: W
AnchorPoint: "ArabicBelow" 600 -156 basechar 0
AnchorPoint: "ArabicAbove" 756 1212 basechar 0
Fore
98 0 m 1,0,-1
 98 100 l 1,1,-1
 183 100 l 1,2,-1
 183 1403 l 1,3,-1
 383 1403 l 1,4,-1
 383 802 l 1,5,-1
 995 802 l 1,6,-1
 995 0 l 1,7,-1
 98 0 l 1,0,-1
799 701 m 1,8,-1
 394 701 l 1,9,-1
 394 100 l 1,10,-1
 799 100 l 1,11,-1
 799 701 l 1,8,-1
538 1177 m 1,12,-1
 738 1177 l 1,13,-1
 738 1027 l 1,14,-1
 538 1027 l 1,15,-1
 538 1177 l 1,12,-1
EndSplineSet
Substitution2: "'fina' Terminal Forms in Arabic lookup 4" zahfinal
Substitution2: "'medi' Medial Forms in Arabic lookup 3" zahmedial
Substitution2: "'init' Initial Forms in Arabic lookup 2" zahinitial
AlternateSubs2: "'aalt' Access All Alternates in Latin lookup 0" zahinitial zahmedial zahfinal
EndChar
StartChar: ain
Encoding: 1593 1593 241
Width: 980
GlyphClass: 2
Flags: W
AnchorPoint: "ArabicBelow" 540 -420 basechar 0
AnchorPoint: "ArabicAbove" 636 936 basechar 0
Fore
298 0 m 1,0,-1
 298 -200 l 1,1,-1
 496 -200 l 1,2,-1
 496 -301 l 1,3,-1
 98 -301 l 1,4,-1
 98 100 l 1,5,-1
 298 100 l 1,6,-1
 298 902 l 1,7,-1
 889 902 l 1,8,-1
 889 340 l 1,9,-1
 689 340 l 1,10,-1
 689 802 l 1,11,-1
 498 802 l 1,12,-1
 498 100 l 1,13,-1
 889 100 l 1,14,-1
 889 0 l 1,15,-1
 298 0 l 1,0,-1
EndSplineSet
Substitution2: "'fina' Terminal Forms in Arabic lookup 4" ainfinal
Substitution2: "'medi' Medial Forms in Arabic lookup 3" ainmedial
Substitution2: "'init' Initial Forms in Arabic lookup 2" aininitial
AlternateSubs2: "'aalt' Access All Alternates in Latin lookup 0" aininitial ainmedial ainfinal
EndChar
StartChar: ghain
Encoding: 1594 1594 242
Width: 980
GlyphClass: 2
Flags: W
AnchorPoint: "ArabicBelow" 528 -492 basechar 0
AnchorPoint: "ArabicAbove" 612 1260 basechar 0
Fore
298 0 m 1,0,-1
 298 -200 l 1,1,-1
 496 -200 l 1,2,-1
 496 -301 l 1,3,-1
 98 -301 l 1,4,-1
 98 100 l 1,5,-1
 298 100 l 1,6,-1
 298 902 l 1,7,-1
 889 902 l 1,8,-1
 889 340 l 1,9,-1
 689 340 l 1,10,-1
 689 802 l 1,11,-1
 498 802 l 1,12,-1
 498 100 l 1,13,-1
 889 100 l 1,14,-1
 889 0 l 1,15,-1
 298 0 l 1,0,-1
497 1201 m 1,16,-1
 696 1201 l 1,17,-1
 696 1051 l 1,18,-1
 497 1051 l 1,19,-1
 497 1201 l 1,16,-1
EndSplineSet
Substitution2: "'fina' Terminal Forms in Arabic lookup 4" ghainfinal
Substitution2: "'medi' Medial Forms in Arabic lookup 3" ghainmedial
Substitution2: "'init' Initial Forms in Arabic lookup 2" ghaininitial
AlternateSubs2: "'aalt' Access All Alternates in Latin lookup 0" ghaininitial ghainmedial ghainfinal
EndChar
StartChar: tatweel
Encoding: 1600 1600 243
Width: 704
GlyphClass: 2
Flags: W
Fore
705 1 m 1,0,-1
 0 0 l 1,1,-1
 0 100 l 1,2,-1
 705 101 l 1,3,-1
 705 1 l 1,0,-1
EndSplineSet
EndChar
StartChar: feh
Encoding: 1601 1601 244
Width: 1226
GlyphClass: 2
Flags: W
AnchorPoint: "ArabicBelow" 624 -180 basechar 0
AnchorPoint: "ArabicAbove" 840 1260 basechar 0
Fore
1147 0 m 1,0,-1
 98 0 l 1,1,-1
 98 802 l 1,2,-1
 298 802 l 1,3,-1
 298 100 l 1,4,-1
 947 100 l 1,5,-1
 947 250 l 1,6,-1
 548 250 l 1,7,-1
 548 902 l 1,8,-1
 1147 902 l 1,9,-1
 1147 100 l 1,10,-1
 1147 0 l 1,0,-1
947 802 m 1,11,-1
 749 802 l 1,12,-1
 749 351 l 1,13,-1
 947 351 l 1,14,-1
 947 802 l 1,11,-1
735 1212 m 1,15,-1
 935 1212 l 1,16,-1
 935 1062 l 1,17,-1
 735 1062 l 1,18,-1
 735 1212 l 1,15,-1
EndSplineSet
Substitution2: "'fina' Terminal Forms in Arabic lookup 4" fehfinal
Substitution2: "'medi' Medial Forms in Arabic lookup 3" fehmedial
Substitution2: "'init' Initial Forms in Arabic lookup 2" fehinitial
AlternateSubs2: "'aalt' Access All Alternates in Latin lookup 0" fehinitial fehmedial fehfinal
EndChar
StartChar: qaf
Encoding: 1602 1602 245
Width: 1231
GlyphClass: 2
Flags: W
AnchorPoint: "ArabicBelow" 696 -156 basechar 0
AnchorPoint: "ArabicAbove" 876 1308 basechar 0
Fore
1147 0 m 1,0,-1
 98 0 l 1,1,-1
 98 802 l 1,2,-1
 298 802 l 1,3,-1
 298 100 l 1,4,-1
 947 100 l 1,5,-1
 947 250 l 1,6,-1
 548 250 l 1,7,-1
 548 902 l 1,8,-1
 1147 902 l 1,9,-1
 1147 100 l 1,10,-1
 1147 0 l 1,0,-1
947 802 m 1,11,-1
 749 802 l 1,12,-1
 749 351 l 1,13,-1
 947 351 l 1,14,-1
 947 802 l 1,11,-1
619 1212 m 1,15,-1
 819 1212 l 1,16,-1
 819 1062 l 1,17,-1
 619 1062 l 1,18,-1
 619 1212 l 1,15,-1
885 1212 m 1,19,-1
 1085 1212 l 1,20,-1
 1085 1062 l 1,21,-1
 885 1062 l 1,22,-1
 885 1212 l 1,19,-1
EndSplineSet
Substitution2: "'fina' Terminal Forms in Arabic lookup 4" qaffinal
Substitution2: "'medi' Medial Forms in Arabic lookup 3" qafmedial
Substitution2: "'init' Initial Forms in Arabic lookup 2" qafinitial
AlternateSubs2: "'aalt' Access All Alternates in Latin lookup 0" qafinitial qafmedial qaffinal
EndChar
StartChar: arabickaf
Encoding: 1603 1603 246
Width: 1549
GlyphClass: 2
Flags: W
AnchorPoint: "ArabicBelow" 744 -144 basechar 0
AnchorPoint: "ArabicAbove" 564 960 basechar 0
Fore
1472 0 m 1,0,-1
 78 0 l 1,1,-1
 78 100 l 1,2,-1
 1272 100 l 1,3,-1
 1272 351 l 1,4,-1
 178 351 l 1,5,-1
 178 902 l 1,6,-1
 930 902 l 1,7,-1
 930 802 l 1,8,-1
 379 802 l 1,9,-1
 379 451 l 1,10,-1
 1472 451 l 1,11,-1
 1472 0 l 1,0,-1
EndSplineSet
Substitution2: "'fina' Terminal Forms in Arabic lookup 4" arabickaffinal
Substitution2: "'medi' Medial Forms in Arabic lookup 3" kafmedial
Substitution2: "'init' Initial Forms in Arabic lookup 2" kafinitial
AlternateSubs2: "'aalt' Access All Alternates in Latin lookup 0" kafinitial kafmedial arabickaffinal
EndChar
StartChar: lam
Encoding: 1604 1604 247
Width: 861
GlyphClass: 2
Flags: W
AnchorPoint: "ArabicBelow" 444 -264 basechar 0
AnchorPoint: "ArabicAbove" 696 1488 basechar 0
Fore
784 0 m 1,0,-1
 784 -100 l 1,1,-1
 605 -100 l 1,2,-1
 98 -100 l 1,3,-1
 98 601 l 1,4,-1
 298 601 l 1,5,-1
 298 0 l 1,6,-1
 584 0 l 1,7,-1
 584 1403 l 1,8,-1
 784 1403 l 1,9,-1
 784 100 l 1,10,-1
 784 0 l 1,0,-1
EndSplineSet
Substitution2: "'fina' Terminal Forms in Arabic lookup 4" lamfinal
Substitution2: "'medi' Medial Forms in Arabic lookup 3" lammedial
Substitution2: "'init' Initial Forms in Arabic lookup 2" laminitial
AlternateSubs2: "'aalt' Access All Alternates in Latin lookup 0" laminitial lammedial lamfinal
EndChar
StartChar: meem
Encoding: 1605 1605 248
Width: 988
GlyphClass: 2
Flags: W
AnchorPoint: "ArabicBelow" 576 -276 basechar 0
AnchorPoint: "ArabicAbove" 600 876 basechar 0
Fore
498 100 m 1,0,-1
 696 100 l 1,1,-1
 696 641 l 1,2,-1
 498 641 l 1,3,-1
 498 100 l 1,0,-1
298 -250 m 1,4,-1
 98 -250 l 1,5,-1
 98 100 l 1,6,-1
 298 100 l 1,7,-1
 298 741 l 1,8,-1
 773 741 l 1,9,-1
 896 741 l 1,10,-1
 896 0 l 1,11,-1
 613 0 l 1,12,-1
 498 0 l 1,13,-1
 298 0 l 1,14,-1
 298 -250 l 1,4,-1
EndSplineSet
Substitution2: "'fina' Terminal Forms in Arabic lookup 4" meemfinal
Substitution2: "'medi' Medial Forms in Arabic lookup 3" meemmedial
Substitution2: "'init' Initial Forms in Arabic lookup 2" meeminitial
AlternateSubs2: "'aalt' Access All Alternates in Latin lookup 0" meeminitial meemmedial meemfinal
EndChar
StartChar: noon
Encoding: 1606 1606 249
Width: 865
GlyphClass: 2
Flags: W
AnchorPoint: "ArabicBelow" 384 -288 basechar 0
AnchorPoint: "ArabicAbove" 432 1008 basechar 0
Fore
784 0 m 1,0,-1
 784 -100 l 1,1,-1
 605 -100 l 1,2,-1
 98 -100 l 1,3,-1
 98 601 l 1,4,-1
 298 601 l 1,5,-1
 298 0 l 1,6,-1
 584 0 l 1,7,-1
 584 802 l 1,8,-1
 784 802 l 1,9,-1
 784 100 l 1,10,-1
 784 0 l 1,0,-1
298 962 m 1,11,-1
 498 962 l 1,12,-1
 498 812 l 1,13,-1
 298 812 l 1,14,-1
 298 962 l 1,11,-1
EndSplineSet
Substitution2: "'fina' Terminal Forms in Arabic lookup 4" noonfinal
Substitution2: "'medi' Medial Forms in Arabic lookup 3" noonmedial
Substitution2: "'init' Initial Forms in Arabic lookup 2" nooninitial
AlternateSubs2: "'aalt' Access All Alternates in Latin lookup 0" nooninitial noonmedial noonfinal
EndChar
StartChar: heh
Encoding: 1607 1607 250
Width: 773
GlyphClass: 2
Flags: W
AnchorPoint: "ArabicBelow" 372 -168 basechar 0
AnchorPoint: "ArabicAbove" 420 804 basechar 0
Fore
98 0 m 1,0,-1
 98 741 l 1,1,-1
 696 741 l 1,2,-1
 696 0 l 1,3,-1
 98 0 l 1,0,-1
497 641 m 1,4,-1
 298 641 l 1,5,-1
 298 100 l 1,6,-1
 497 100 l 1,7,-1
 497 641 l 1,4,-1
EndSplineSet
Substitution2: "'fina' Terminal Forms in Arabic lookup 4" hehfinal
Substitution2: "'medi' Medial Forms in Arabic lookup 3" hehmedial
Substitution2: "'init' Initial Forms in Arabic lookup 2" hehinitial
AlternateSubs2: "'aalt' Access All Alternates in Latin lookup 0" hehinitial hehmedial hehfinal
EndChar
StartChar: waw
Encoding: 1608 1608 251
Width: 771
GlyphClass: 2
Flags: W
AnchorPoint: "ArabicBelow" 432 -480 basechar 0
AnchorPoint: "ArabicAbove" 408 864 basechar 0
Fore
696 0 m 1,0,-1
 696 -301 l 1,1,-1
 291 -301 l 1,2,-1
 291 -200 l 1,3,-1
 497 -200 l 1,4,-1
 497 0 l 1,5,-1
 98 0 l 1,6,-1
 98 741 l 1,7,-1
 696 741 l 1,8,-1
 696 100 l 1,9,-1
 696 0 l 1,0,-1
497 641 m 1,10,-1
 298 641 l 1,11,-1
 298 100 l 1,12,-1
 497 100 l 1,13,-1
 497 641 l 1,10,-1
EndSplineSet
Substitution2: "'fina' Terminal Forms in Arabic lookup 4" wawfinal
Substitution2: "'aalt' Access All Alternates in Latin lookup 1" wawfinal
EndChar
StartChar: alefmaksura
Encoding: 1609 1609 252
Width: 1192
GlyphClass: 2
Flags: W
AnchorPoint: "ArabicBelow" 552 -156 basechar 0
AnchorPoint: "ArabicAbove" 840 924 basechar 0
Fore
98 0 m 1,0,-1
 98 601 l 1,1,-1
 298 601 l 1,2,-1
 298 100 l 1,3,-1
 912 100 l 1,4,-1
 912 360 l 1,5,-1
 589 360 l 1,6,-1
 589 802 l 1,7,-1
 1113 802 l 1,8,-1
 1113 701 l 1,9,-1
 789 701 l 1,10,-1
 789 461 l 1,11,-1
 1113 461 l 1,12,-1
 1113 0 l 1,13,-1
 98 0 l 1,0,-1
EndSplineSet
Substitution2: "'fina' Terminal Forms in Arabic lookup 4" alefmaksurafinal
Substitution2: "'aalt' Access All Alternates in Latin lookup 1" alefmaksurafinal
EndChar
StartChar: yeh
Encoding: 1610 1610 253
Width: 1192
GlyphClass: 2
Flags: W
AnchorPoint: "ArabicBelow" 648 -396 basechar 0
AnchorPoint: "ArabicAbove" 816 948 basechar 0
Fore
98 0 m 1,0,-1
 98 601 l 1,1,-1
 298 601 l 1,2,-1
 298 100 l 1,3,-1
 912 100 l 1,4,-1
 912 360 l 1,5,-1
 589 360 l 1,6,-1
 589 802 l 1,7,-1
 1113 802 l 1,8,-1
 1113 701 l 1,9,-1
 789 701 l 1,10,-1
 789 461 l 1,11,-1
 1113 461 l 1,12,-1
 1113 0 l 1,13,-1
 98 0 l 1,0,-1
374 -111 m 1,14,-1
 575 -111 l 1,15,-1
 575 -261 l 1,16,-1
 374 -261 l 1,17,-1
 374 -111 l 1,14,-1
655 -111 m 1,18,-1
 855 -111 l 1,19,-1
 855 -261 l 1,20,-1
 655 -261 l 1,21,-1
 655 -111 l 1,18,-1
EndSplineSet
Substitution2: "'fina' Terminal Forms in Arabic lookup 4" yehfinal
Substitution2: "'medi' Medial Forms in Arabic lookup 3" yehmedial
Substitution2: "'init' Initial Forms in Arabic lookup 2" yehinitial
AlternateSubs2: "'aalt' Access All Alternates in Latin lookup 0" yehinitial yehmedial yehfinal
EndChar
StartChar: fathatan
Encoding: 1611 1611 254
Width: 0
GlyphClass: 4
Flags: W
AnchorPoint: "ArabicMark2MarkAbove" 182 1272 mark 0
AnchorPoint: "ArabicAboveLigature" 180 1275 mark 0
AnchorPoint: "ArabicAbove" 180 1275 mark 0
Fore
311 1649 m 1,0,1
 311 1591 311 1591 280 1573 c 2,2,-1
 14 1422 l 1,3,4
 17 1458 17 1458 27 1474.5 c 128,-1,5
 37 1491 37 1491 72 1511 c 2,6,-1
 311 1649 l 1,0,1
311 1521 m 1,7,8
 311 1462 311 1462 280 1445 c 2,9,-1
 14 1294 l 1,10,11
 17 1330 17 1330 27 1346 c 128,-1,12
 37 1362 37 1362 72 1383 c 2,13,-1
 311 1521 l 1,7,8
EndSplineSet
EndChar
StartChar: dammatan
Encoding: 1612 1612 255
Width: 0
GlyphClass: 4
Flags: W
AnchorPoint: "ArabicMark2MarkAbove" 232 1276 mark 0
AnchorPoint: "ArabicAboveLigature" 230 1275 mark 0
AnchorPoint: "ArabicAbove" 230 1275 mark 0
Fore
370 1412 m 0,0,1
 370 1382 370 1382 368 1361 c 1,2,3
 333 1379 333 1379 287 1412 c 1,4,5
 178 1299 178 1299 76 1285 c 1,6,7
 114 1365 114 1365 114 1398 c 0,8,9
 114 1447 114 1447 71 1447 c 0,10,11
 34 1447 34 1447 28 1380 c 1,12,13
 19 1407 19 1407 19 1426 c 0,14,15
 19 1466 19 1466 40.5 1494 c 128,-1,16
 62 1522 62 1522 93 1522 c 0,17,18
 152 1522 152 1522 152 1434 c 2,19,-1
 147 1354 l 1,20,21
 204 1375 204 1375 256 1433 c 1,22,23
 198 1471 198 1471 198 1515 c 0,24,25
 198 1561 198 1561 233 1602.5 c 128,-1,26
 268 1644 268 1644 305 1644 c 0,27,28
 325 1644 325 1644 345 1621 c 128,-1,29
 365 1598 365 1598 365 1574 c 0,30,31
 365 1548 365 1548 360 1535.5 c 0,32,-1
 336 1474 l 1,33,34
 370 1448 370 1448 370 1412 c 0,0,1
303 1539 m 0,35,36
 303 1586 303 1586 267 1586 c 0,37,38
 244 1586 244 1586 244 1565 c 0,39,40
 244 1543 244 1543 300 1505 c 1,41,42
 303 1515 303 1515 303 1539 c 0,35,36
EndSplineSet
EndChar
StartChar: kasratan
Encoding: 1613 1613 256
Width: 0
GlyphClass: 4
Flags: W
AnchorPoint: "ArabicMark2MarkBelow" 166 -502 mark 0
AnchorPoint: "ArabicBelowLigature" 165 -500 mark 0
AnchorPoint: "ArabicBelow" 165 -500 mark 0
Fore
328 -403 m 1,0,1
 328 -461 328 -461 297 -478 c 2,2,-1
 31 -629 l 1,3,4
 33 -593 33 -593 43.5 -577 c 128,-1,5
 54 -561 54 -561 89 -541 c 2,6,-1
 328 -403 l 1,0,1
328 -532 m 1,7,8
 328 -590 328 -590 297 -607 c 2,9,-1
 31 -758 l 1,10,11
 33 -722 33 -722 43.5 -706 c 128,-1,12
 54 -690 54 -690 89 -670 c 2,13,-1
 328 -532 l 1,7,8
EndSplineSet
EndChar
StartChar: fatha
Encoding: 1614 1614 257
Width: 0
GlyphClass: 4
Flags: W
AnchorPoint: "ArabicMark2MarkAbove" 166 1436 mark 0
AnchorPoint: "ArabicAboveLigature" 166 1435 mark 0
AnchorPoint: "ArabicAbove" 166 1435 mark 0
Fore
263 1619 m 1,0,1
 263 1571 263 1571 237 1557 c 2,2,-1
 18 1433 l 1,3,4
 20 1462 20 1462 28.5 1475.5 c 128,-1,5
 37 1489 37 1489 66 1506 c 2,6,-1
 263 1619 l 1,0,1
EndSplineSet
EndChar
StartChar: damma
Encoding: 1615 1615 258
Width: 0
GlyphClass: 4
Flags: W
AnchorPoint: "ArabicMark2MarkAbove" 170 1332 mark 0
AnchorPoint: "ArabicAboveLigature" 170 1329 mark 0
AnchorPoint: "ArabicAbove" 170 1329 mark 0
Fore
252 1470 m 1,0,-1
 246 1399 l 1,1,-1
 189 1437 l 1,2,3
 102 1333 102 1333 47 1333 c 0,4,5
 33 1333 33 1333 4 1342 c 1,6,7
 78 1383 78 1383 158 1455 c 1,8,9
 114 1487 114 1487 114 1519 c 0,10,11
 114 1563 114 1563 146 1609 c 0,12,13
 168 1640 168 1640 198 1640 c 0,14,15
 246 1640 246 1640 246 1577 c 0,16,17
 246 1542 246 1542 224 1492 c 1,18,19
 235 1485 235 1485 252 1470 c 1,0,-1
202 1535 m 0,20,21
 202 1550 202 1550 190 1564.5 c 128,-1,22
 178 1579 178 1579 163 1579 c 0,23,24
 150 1579 150 1579 150 1564 c 0,25,26
 150 1542 150 1542 198 1510 c 1,27,28
 202 1524 202 1524 202 1535 c 0,20,21
EndSplineSet
EndChar
StartChar: kasra
Encoding: 1616 1616 259
Width: 0
GlyphClass: 4
Flags: W
AnchorPoint: "ArabicMark2MarkBelow" 166 -502 mark 0
AnchorPoint: "ArabicBelowLigature" 165 -500 mark 0
AnchorPoint: "ArabicBelow" 165 -500 mark 0
Fore
320 -538 m 1,0,1
 320 -596 320 -596 289 -613 c 2,2,-1
 23 -765 l 1,3,4
 25 -729 25 -729 35.5 -712.5 c 128,-1,5
 46 -696 46 -696 81 -676 c 2,6,-1
 320 -538 l 1,0,1
EndSplineSet
EndChar
StartChar: shadda
Encoding: 1617 1617 260
Width: 0
GlyphClass: 4
Flags: W
AnchorPoint: "ArabicMark2MarkBelow" 208 1334 basemark 0
AnchorPoint: "ArabicMark2MarkAbove" 179 1595 basemark 0
AnchorPoint: "ArabicAboveLigature" 208 1334 mark 0
AnchorPoint: "ArabicAbove" 208 1334 mark 0
Fore
338 1535 m 0,0,1
 338 1388 338 1388 246 1388 c 0,2,3
 215 1388 215 1388 190 1406 c 1,4,5
 183 1376 183 1376 155.5 1353.5 c 128,-1,6
 128 1331 128 1331 98 1331 c 0,7,8
 26 1331 26 1331 26 1426 c 0,9,10
 26 1445 26 1445 46 1514 c 1,11,-1
 66 1518 l 1,12,13
 66 1420 66 1420 100 1420 c 0,14,15
 156 1420 156 1420 179 1563 c 1,16,-1
 195 1568 l 1,17,18
 215 1482 215 1482 246 1482 c 0,19,20
 297 1482 297 1482 305 1611 c 1,21,-1
 325 1620 l 1,22,23
 338 1571 338 1571 338 1535 c 0,0,1
EndSplineSet
EndChar
StartChar: sukun
Encoding: 1618 1618 261
Width: 0
GlyphClass: 4
Flags: W
AnchorPoint: "ArabicMark2MarkAbove" 121 1295 mark 0
AnchorPoint: "ArabicAboveLigature" 116 1299 mark 0
AnchorPoint: "ArabicAbove" 116 1299 mark 0
Fore
243 1475 m 0,0,1
 243 1419 243 1419 203 1375 c 128,-1,2
 163 1331 163 1331 111 1331 c 0,3,4
 17 1331 17 1331 17 1437 c 0,5,6
 17 1511 17 1511 50 1558 c 128,-1,7
 83 1605 83 1605 137 1605 c 0,8,9
 178 1605 178 1605 210.5 1565 c 128,-1,10
 243 1525 243 1525 243 1475 c 0,0,1
195 1454 m 0,11,12
 195 1476 195 1476 157 1504 c 0,13,14
 121 1529 121 1529 98 1529 c 0,15,16
 46 1529 46 1529 46 1470 c 0,17,18
 46 1418 46 1418 127 1418 c 0,19,20
 195 1418 195 1418 195 1454 c 0,11,12
EndSplineSet
EndChar
StartChar: arabicindicdigitzero
Encoding: 1632 1632 262
Width: 400
GlyphClass: 2
Flags: W
Fore
100 401 m 1,0,-1
 100 601 l 1,1,-1
 305 601 l 1,2,-1
 305 401 l 1,3,-1
 100 401 l 1,0,-1
EndSplineSet
EndChar
StartChar: arabicindicdigitone
Encoding: 1633 1633 263
Width: 399
GlyphClass: 2
Flags: W
Fore
98 0 m 1,0,-1
 98 1102 l 1,1,-1
 303 1102 l 1,2,-1
 303 0 l 1,3,-1
 98 0 l 1,0,-1
EndSplineSet
EndChar
StartChar: arabicindicdigittwo
Encoding: 1634 1634 264
Width: 695
GlyphClass: 2
Flags: W
Fore
599 1002 m 1,0,-1
 303 1002 l 1,1,-1
 303 0 l 1,2,-1
 98 0 l 1,3,-1
 98 1102 l 1,4,-1
 599 1102 l 1,5,-1
 599 1002 l 1,0,-1
EndSplineSet
EndChar
StartChar: arabicindicdigitthree
Encoding: 1635 1635 265
Width: 999
GlyphClass: 2
Flags: W
Fore
298 591 m 1,0,-1
 298 0 l 1,1,-1
 98 0 l 1,2,-1
 98 1102 l 1,3,-1
 298 1102 l 1,4,-1
 298 691 l 1,5,-1
 398 691 l 1,6,-1
 398 1102 l 1,7,-1
 599 1102 l 1,8,-1
 599 691 l 1,9,-1
 699 691 l 1,10,-1
 699 1102 l 1,11,-1
 899 1102 l 1,12,-1
 899 591 l 1,13,-1
 298 591 l 1,0,-1
EndSplineSet
EndChar
StartChar: arabicindicdigitfour
Encoding: 1636 1636 266
Width: 688
GlyphClass: 2
Flags: W
Fore
98 1102 m 1,0,-1
 599 1102 l 1,1,-1
 599 1002 l 1,2,-1
 298 1002 l 1,3,-1
 298 601 l 1,4,-1
 599 601 l 1,5,-1
 599 501 l 1,6,-1
 298 501 l 1,7,-1
 298 100 l 1,8,-1
 599 100 l 1,9,-1
 599 0 l 1,10,-1
 98 0 l 1,11,-1
 98 1102 l 1,0,-1
EndSplineSet
EndChar
StartChar: arabicindicdigitfive
Encoding: 1637 1637 267
Width: 791
GlyphClass: 2
Flags: W
Fore
98 0 m 1,0,-1
 98 1102 l 1,1,-1
 696 1102 l 1,2,-1
 696 0 l 1,3,-1
 98 0 l 1,0,-1
497 1002 m 1,4,-1
 298 1002 l 1,5,-1
 298 100 l 1,6,-1
 497 100 l 1,7,-1
 497 1002 l 1,4,-1
EndSplineSet
EndChar
StartChar: arabicindicdigitsix
Encoding: 1638 1638 268
Width: 692
GlyphClass: 2
Flags: W
Fore
98 1002 m 1,0,-1
 98 1102 l 1,1,-1
 599 1102 l 1,2,-1
 599 0 l 1,3,-1
 394 0 l 1,4,-1
 394 1002 l 1,5,-1
 98 1002 l 1,0,-1
EndSplineSet
EndChar
StartChar: arabicindicdigitseven
Encoding: 1639 1639 269
Width: 799
GlyphClass: 2
Flags: W
Fore
498 1102 m 1,0,-1
 704 1102 l 1,1,-1
 704 0 l 1,2,-1
 98 0 l 1,3,-1
 98 1102 l 1,4,-1
 303 1102 l 1,5,-1
 303 100 l 1,6,-1
 498 100 l 1,7,-1
 498 1102 l 1,0,-1
EndSplineSet
EndChar
StartChar: arabicindicdigiteight
Encoding: 1640 1640 270
Width: 799
GlyphClass: 2
Flags: W
Fore
498 0 m 1,0,-1
 498 1002 l 1,1,-1
 303 1002 l 1,2,-1
 303 0 l 1,3,-1
 98 0 l 1,4,-1
 98 1102 l 1,5,-1
 704 1102 l 1,6,-1
 704 0 l 1,7,-1
 498 0 l 1,0,-1
EndSplineSet
EndChar
StartChar: arabicindicdigitnine
Encoding: 1641 1641 271
Width: 799
GlyphClass: 2
Flags: W
Fore
498 0 m 1,0,-1
 498 571 l 1,1,-1
 98 571 l 1,2,-1
 98 1102 l 1,3,-1
 699 1102 l 1,4,-1
 699 0 l 1,5,-1
 498 0 l 1,0,-1
498 1002 m 1,6,-1
 298 1002 l 1,7,-1
 298 671 l 1,8,-1
 498 671 l 1,9,-1
 498 1002 l 1,6,-1
EndSplineSet
EndChar
StartChar: arabicpercentsign
Encoding: 1642 1642 272
Width: 914
GlyphClass: 2
Flags: W
Fore
139 0 m 1,0,-1
 590 1102 l 1,1,-1
 795 1102 l 1,2,-1
 345 0 l 1,3,-1
 139 0 l 1,0,-1
100 689 m 1,4,-1
 100 889 l 1,5,-1
 305 889 l 1,6,-1
 305 689 l 1,7,-1
 100 689 l 1,4,-1
626 168 m 1,8,-1
 626 368 l 1,9,-1
 831 368 l 1,10,-1
 831 168 l 1,11,-1
 626 168 l 1,8,-1
EndSplineSet
EndChar
StartChar: arabicfivepointedstar
Encoding: 1645 1645 273
Width: 716
GlyphClass: 2
Flags: W
Fore
662 565 m 1,0,-1
 470 424 l 1,1,-1
 542 196 l 1,2,-1
 348 335 l 1,3,-1
 154 196 l 1,4,-1
 226 424 l 1,5,-1
 34 565 l 1,6,-1
 272 565 l 1,7,-1
 348 794 l 1,8,-1
 424 565 l 1,9,-1
 662 565 l 1,0,-1
EndSplineSet
EndChar
StartChar: fi
Encoding: 64257 64257 274
Width: 659
VWidth: 1318
GlyphClass: 2
Flags: W
HStem: 0 28G<108 218 466 575> 601 90<16 108 218 332> 868 97<220 299>
VStem: 108 109<0 601 691 809> 466 109<0 691 823 962>
Fore
332 691 m 1,0,-1
 332 601 l 1,1,-1
 218 601 l 1,2,-1
 218 0 l 1,3,-1
 108 0 l 1,4,-1
 108 601 l 1,5,-1
 16 601 l 1,6,-1
 16 691 l 1,7,-1
 108 691 l 1,8,-1
 108 809 l 2,9,10
 108 882 108 882 151 924 c 0,11,12
 194 965 194 965 271 965 c 0,13,14
 300 965 300 965 332 958 c 1,15,-1
 332 867 l 1,16,17
 308 868 308 868 294 868 c 0,18,19
 218 868 218 868 218 799 c 2,20,-1
 218 691 l 1,21,-1
 332 691 l 1,0,-1
575 691 m 1,20,-1
 575 0 l 1,21,-1
 466 0 l 1,22,-1
 466 691 l 1,23,-1
 575 691 l 1,20,-1
575 962 m 1,24,-1
 575 823 l 1,25,-1
 466 823 l 1,26,-1
 466 962 l 1,27,-1
 575 962 l 1,24,-1
EndSplineSet
EndChar
StartChar: fl
Encoding: 64258 64258 275
Width: 659
VWidth: 1318
GlyphClass: 2
Flags: W
HStem: 0 28G<114 224 457 567> 601 90<23 114 224 339> 868 97<226 305>
VStem: 114 109<0 601 691 809> 457 109<0 962>
Fore
339 691 m 1,0,-1
 339 601 l 1,1,-1
 224 601 l 1,2,-1
 224 0 l 1,3,-1
 114 0 l 1,4,-1
 114 601 l 1,5,-1
 23 601 l 1,6,-1
 23 691 l 1,7,-1
 114 691 l 1,8,-1
 114 809 l 2,9,10
 114 882 114 882 157 924 c 0,11,12
 200 965 200 965 277 965 c 0,13,14
 305 965 305 965 339 958 c 1,15,-1
 339 867 l 1,16,17
 314 868 314 868 301 868 c 0,18,19
 224 868 224 868 224 799 c 2,20,-1
 224 691 l 1,21,-1
 339 691 l 1,0,-1
567 962 m 1,20,-1
 567 0 l 1,21,-1
 457 0 l 1,22,-1
 457 962 l 1,23,-1
 567 962 l 1,20,-1
EndSplineSet
EndChar
StartChar: ornateleftparenthesis
Encoding: 64830 64830 276
Width: 1159
GlyphClass: 2
Flags: W
Fore
1100 -613 m 256,0,1
 1100 -628 1100 -628 1076 -628 c 0,2,3
 1000 -628 1000 -628 846 -476 c 0,4,5
 646 -280 646 -280 532 23 c 1,6,7
 323 25 323 25 323 78 c 1,8,9
 461 222 461 222 461 301 c 1,10,11
 398 301 398 301 326.5 227.5 c 128,-1,12
 255 154 255 154 245 154 c 0,13,14
 207 154 207 154 189 318 c 1,15,16
 78 372 78 372 78 412 c 0,17,18
 78 459 78 459 184 521 c 1,19,20
 195 677 195 677 233 677 c 1,21,22
 386 533 386 533 461 533 c 1,23,24
 454 611 454 611 382.5 679.5 c 128,-1,25
 311 748 311 748 311 758 c 0,26,27
 311 773 311 773 372 792 c 0,28,29
 441 813 441 813 526 817 c 1,30,31
 599 1034 599 1034 722 1205 c 0,32,33
 817 1339 817 1339 925 1425 c 0,34,35
 1013 1493 1013 1493 1049 1493 c 0,36,37
 1069 1493 1069 1493 1069 1470 c 0,38,39
 1069 1461 1069 1461 997 1380 c 0,40,41
 906 1278 906 1278 849 1171 c 0,42,43
 760 1006 760 1006 729 806 c 1,44,45
 830 790 830 790 830 761 c 1,46,47
 689 619 689 619 689 540 c 1,48,49
 761 540 761 540 904 687 c 1,50,51
 922 687 922 687 941.5 634 c 128,-1,52
 961 581 961 581 963 523 c 1,53,54
 1069 468 1069 468 1069 423 c 0,55,56
 1069 386 1069 386 969 326 c 1,57,58
 961 166 961 166 914 166 c 1,59,-1
 846 232 l 2,60,61
 777 300 777 300 693 308 c 1,62,63
 693 236 693 236 766 164 c 128,-1,64
 839 92 839 92 839 80 c 0,65,66
 839 57 839 57 732 35 c 1,67,68
 764 -128 764 -128 862.5 -301.5 c 128,-1,69
 961 -475 961 -475 1080 -579 c 0,70,71
 1100 -597 1100 -597 1100 -613 c 256,0,1
982 1419 m 1,72,73
 703 1231 703 1231 553 769 c 1,74,75
 432 763 432 763 410 761 c 0,76,77
 386 756 386 756 386 744 c 1,78,-1
 425 706 l 2,79,80
 474 661 474 661 504 601 c 1,81,82
 548 683 548 683 577 683 c 0,83,84
 597 683 597 683 642 601 c 1,85,86
 653 625 653 625 708 674 c 0,87,88
 756 717 756 717 756 751 c 0,89,90
 756 761 756 761 725 767 c 2,91,-1
 679 775 l 1,92,93
 739 1020 739 1020 778 1111 c 0,94,95
 837 1249 837 1249 982 1419 c 1,72,73
1014 429 m 0,96,97
 1014 454 1014 454 922 486 c 1,98,99
 911 613 911 613 896 613 c 0,100,101
 889 613 889 613 843 566 c 0,102,103
 790 512 790 512 738 493 c 1,104,105
 834 451 834 451 834 418 c 256,106,107
 834 386 834 386 742 351 c 1,108,109
 808 329 808 329 860 280 c 2,110,-1
 904 239 l 1,111,112
 922 239 922 239 922 354 c 1,113,114
 1014 407 1014 407 1014 429 c 0,96,97
704 418 m 0,115,116
 704 472 704 472 666 510 c 128,-1,117
 628 548 628 548 575 548 c 256,118,119
 521 548 521 548 483.5 510 c 128,-1,120
 446 472 446 472 446 418 c 0,121,122
 446 367 446 367 483.5 330.5 c 128,-1,123
 521 294 521 294 575 294 c 256,124,125
 628 294 628 294 666 330.5 c 128,-1,126
 704 367 704 367 704 418 c 0,115,116
410 348 m 1,127,128
 317 390 317 390 317 423 c 0,129,130
 317 457 317 457 410 490 c 1,131,132
 382 498 382 498 328 554 c 0,133,134
 281 604 281 604 245 604 c 0,135,136
 227 604 227 604 227 486 c 1,137,138
 134 433 134 433 134 412 c 0,139,140
 134 388 134 388 227 354 c 1,141,142
 238 228 238 228 251 228 c 0,143,144
 259 228 259 228 306 275 c 0,145,146
 359 329 359 329 410 348 c 1,127,128
1026 -572 m 1,147,148
 913 -469 913 -469 825 -316 c 0,149,150
 718 -130 718 -130 689 68 c 1,151,152
 768 75 768 75 768 90 c 1,153,-1
 725 132 l 2,154,155
 674 178 674 178 642 240 c 1,156,157
 606 158 606 158 575 158 c 0,158,159
 535 158 535 158 507 240 c 1,160,161
 479 173 479 173 434 127 c 2,162,-1
 396 86 l 1,163,164
 396 78 396 78 490 68 c 0,165,166
 514 68 514 68 560 72 c 1,167,168
 696 -360 696 -360 1026 -572 c 1,147,148
EndSplineSet
EndChar
StartChar: ornaterightparenthesis
Encoding: 64831 64831 277
Width: 1168
GlyphClass: 2
Flags: W
Fore
1100 454 m 0,0,1
 1100 405 1100 405 996 345 c 1,2,3
 984 189 984 189 947 189 c 1,4,5
 793 332 793 332 718 332 c 1,6,7
 726 255 726 255 796.5 186.5 c 128,-1,8
 867 118 867 118 867 110 c 0,9,10
 867 93 867 93 807 73 c 0,11,12
 738 53 738 53 653 49 c 1,13,14
 581 -168 581 -168 458 -339 c 0,15,16
 362 -473 362 -473 254 -559 c 0,17,18
 166 -628 166 -628 130 -628 c 0,19,20
 109 -628 109 -628 109 -607 c 0,21,22
 109 -597 109 -597 182 -515 c 0,23,24
 272 -412 272 -412 330 -307 c 0,25,26
 418 -142 418 -142 449 60 c 1,27,28
 349 76 349 76 349 104 c 1,29,30
 490 247 490 247 490 326 c 1,31,32
 417 326 417 326 275 178 c 1,33,34
 256 178 256 178 237.5 230.5 c 128,-1,35
 219 283 219 283 216 343 c 1,36,37
 109 398 109 398 109 443 c 0,38,39
 109 481 109 481 209 540 c 1,40,41
 219 699 219 699 265 699 c 1,42,-1
 333 634 l 2,43,44
 403 566 403 566 487 558 c 1,45,46
 487 630 487 630 412.5 702 c 128,-1,47
 338 774 338 774 338 786 c 0,48,49
 338 809 338 809 447 831 c 1,50,51
 416 995 416 995 317 1168 c 128,-1,52
 218 1341 218 1341 98 1445 c 0,53,54
 78 1462 78 1462 78 1477 c 0,55,56
 78 1493 78 1493 104 1493 c 0,57,58
 179 1493 179 1493 332 1343 c 0,59,60
 533 1146 533 1146 647 844 c 1,61,62
 856 840 856 840 856 788 c 1,63,64
 718 643 718 643 718 564 c 1,65,66
 780 564 780 564 852.5 638 c 128,-1,67
 925 712 925 712 933 712 c 0,68,69
 971 712 971 712 990 548 c 1,70,71
 1100 494 1100 494 1100 454 c 0,0,1
782 780 m 1,72,73
 782 788 782 788 690 798 c 0,74,75
 665 798 665 798 620 795 c 1,76,77
 480 1225 480 1225 152 1439 c 1,78,79
 266 1333 266 1333 354 1180 c 0,80,81
 461 995 461 995 490 798 c 1,82,83
 410 791 410 791 410 775 c 1,84,-1
 454 734 l 2,85,86
 505 688 505 688 535 626 c 1,87,88
 575 708 575 708 604 708 c 0,89,90
 644 708 644 708 671 626 c 1,91,92
 699 692 699 692 744 738 c 2,93,-1
 782 780 l 1,72,73
1045 454 m 0,94,95
 1045 476 1045 476 953 511 c 1,96,97
 941 638 941 638 927 638 c 0,98,99
 919 638 919 638 874 591 c 0,100,101
 821 537 821 537 768 517 c 1,102,103
 862 475 862 475 862 443 c 0,104,105
 862 409 862 409 770 375 c 1,106,107
 797 367 797 367 850 311 c 0,108,109
 897 262 897 262 933 262 c 0,110,111
 953 262 953 262 953 380 c 1,112,113
 1045 433 1045 433 1045 454 c 0,94,95
733 446 m 256,114,115
 733 498 733 498 695 535 c 128,-1,116
 657 572 657 572 604 572 c 256,117,118
 551 572 551 572 513 535 c 128,-1,119
 475 498 475 498 475 446 c 256,120,121
 475 394 475 394 513 356 c 128,-1,122
 551 318 551 318 604 318 c 256,123,124
 657 318 657 318 695 356 c 128,-1,125
 733 394 733 394 733 446 c 256,114,115
441 374 m 1,126,127
 345 414 345 414 345 446 c 0,128,129
 345 483 345 483 438 515 c 1,130,131
 370 537 370 537 319 585 c 2,132,-1
 275 628 l 1,133,134
 258 628 258 628 258 511 c 1,135,136
 164 459 164 459 164 437 c 0,137,138
 164 410 164 410 258 380 c 1,139,140
 268 253 268 253 281 253 c 0,141,142
 289 253 289 253 337 300 c 0,143,144
 388 353 388 353 441 374 c 1,126,127
792 121 m 1,145,-1
 753 161 l 2,146,147
 706 204 706 204 675 265 c 1,148,149
 632 182 632 182 602 182 c 0,150,151
 582 182 582 182 535 265 c 1,152,153
 513 210 513 210 466 161 c 2,154,-1
 423 115 l 1,155,156
 423 105 423 105 454 98 c 0,157,158
 475 94 475 94 498 90 c 1,159,160
 441 -154 441 -154 402 -246 c 0,161,162
 342 -382 342 -382 197 -554 c 1,163,164
 477 -365 477 -365 626 97 c 1,165,166
 747 103 747 103 769.5 106.5 c 128,-1,167
 792 110 792 110 792 121 c 1,145,-1
EndSplineSet
EndChar
StartChar: allahisolated
Encoding: 65010 65010 278
Width: 1676
GlyphClass: 3
Flags: W
Fore
497 641 m 1,0,-1
 298 641 l 1,1,-1
 298 100 l 1,2,-1
 497 100 l 1,3,-1
 497 641 l 1,0,-1
886 1154 m 1,4,-1
 886 1300 l 1,5,-1
 933 1300 l 1,6,-1
 933 1196 l 1,7,-1
 1004 1196 l 1,8,-1
 1004 1300 l 1,9,-1
 1050 1300 l 1,10,-1
 1050 1196 l 1,11,-1
 1121 1196 l 1,12,-1
 1121 1300 l 1,13,-1
 1161 1300 l 1,14,-1
 1161 1154 l 1,15,-1
 886 1154 l 1,4,-1
98 0 m 1,16,-1
 98 741 l 1,17,-1
 696 741 l 1,18,-1
 696 100 l 1,19,-1
 947 100 l 1,20,-1
 947 1002 l 1,21,-1
 1152 1002 l 1,22,-1
 1152 100 l 1,23,-1
 1387 100 l 1,24,-1
 1387 1002 l 1,25,-1
 1593 1002 l 1,26,-1
 1593 0 l 1,27,-1
 98 0 l 1,16,-1
EndSplineSet
Ligature2: "'liga' Standard Ligatures in Arabic lookup 2-1" laminitial lammedial lamfinal
EndChar
StartChar: hamzaisolated
Encoding: 65152 65152 279
Width: 862
GlyphClass: 2
Flags: W
AnchorPoint: "ArabicBelow" 432 -144 basechar 0
AnchorPoint: "ArabicAbove" 444 768 basechar 0
Fore
646 0 m 1,0,-1
 98 0 l 1,1,-1
 98 100 l 1,2,-1
 221 100 l 1,3,-1
 221 661 l 1,4,-1
 782 661 l 1,5,-1
 782 371 l 1,6,-1
 582 371 l 1,7,-1
 582 561 l 1,8,-1
 421 561 l 1,9,-1
 421 100 l 1,10,-1
 782 100 l 1,11,-1
 782 0 l 1,12,-1
 646 0 l 1,0,-1
EndSplineSet
EndChar
StartChar: alefwithmaddaaboveisolated
Encoding: 65153 65153 280
Width: 381
GlyphClass: 2
Flags: W
AnchorPoint: "ArabicBelow" 192 -144 basechar 0
AnchorPoint: "ArabicAbove" 228 1632 basechar 0
Fore
98 0 m 1,0,-1
 98 1403 l 1,1,-1
 303 1403 l 1,2,-1
 303 0 l 1,3,-1
 98 0 l 1,0,-1
348 1464 m 1,4,-1
 54 1464 l 1,5,-1
 54 1564 l 1,6,-1
 348 1564 l 1,7,-1
 348 1464 l 1,4,-1
EndSplineSet
EndChar
StartChar: alefwithmaddaabovefinal
Encoding: 65154 65154 281
Width: 474
GlyphClass: 2
Flags: W
AnchorPoint: "ArabicBelow" 276 -192 basechar 0
AnchorPoint: "ArabicAbove" 264 1656 basechar 0
Fore
132 0 m 1,0,-1
 132 1403 l 1,1,-1
 338 1403 l 1,2,-1
 338 100 l 1,3,-1
 475 100 l 1,4,-1
 475 0 l 1,5,-1
 132 0 l 1,0,-1
382 1464 m 1,6,-1
 88 1464 l 1,7,-1
 88 1564 l 1,8,-1
 382 1564 l 1,9,-1
 382 1464 l 1,6,-1
EndSplineSet
EndChar
StartChar: alefwithhamzaaboveisolated
Encoding: 65155 65155 282
Width: 388
GlyphClass: 2
Flags: W
AnchorPoint: "ArabicBelow" 204 -156 basechar 0
AnchorPoint: "ArabicAbove" 252 1776 basechar 0
Fore
98 0 m 1,0,-1
 98 1403 l 1,1,-1
 303 1403 l 1,2,-1
 303 0 l 1,3,-1
 98 0 l 1,0,-1
33 1459 m 1,4,-1
 33 1507 l 1,5,-1
 92 1507 l 1,6,-1
 92 1721 l 1,7,-1
 366 1721 l 1,8,-1
 366 1610 l 1,9,-1
 268 1610 l 1,10,-1
 268 1672 l 1,11,-1
 189 1672 l 1,12,-1
 189 1507 l 1,13,-1
 366 1507 l 1,14,-1
 366 1459 l 1,15,-1
 33 1459 l 1,4,-1
EndSplineSet
EndChar
StartChar: alefwithhamzaabovefinal
Encoding: 65156 65156 283
Width: 466
GlyphClass: 2
Flags: W
AnchorPoint: "ArabicBelow" 240 -156 basechar 0
AnchorPoint: "ArabicAbove" 264 1776 basechar 0
Fore
153 0 m 1,0,-1
 153 1403 l 1,1,-1
 359 1403 l 1,2,-1
 359 100 l 1,3,-1
 467 100 l 1,4,-1
 467 0 l 1,5,-1
 153 0 l 1,0,-1
355 1459 m 1,6,-1
 88 1459 l 1,7,-1
 88 1507 l 1,8,-1
 148 1507 l 1,9,-1
 148 1721 l 1,10,-1
 421 1721 l 1,11,-1
 421 1610 l 1,12,-1
 323 1610 l 1,13,-1
 323 1672 l 1,14,-1
 244 1672 l 1,15,-1
 244 1507 l 1,16,-1
 421 1507 l 1,17,-1
 421 1459 l 1,18,-1
 355 1459 l 1,6,-1
EndSplineSet
EndChar
StartChar: wawwithhamzaaboveisolated
Encoding: 65157 65157 284
Width: 771
GlyphClass: 2
Flags: W
AnchorPoint: "ArabicBelow" 456 -456 basechar 0
AnchorPoint: "ArabicAbove" 456 1272 basechar 0
Fore
696 0 m 1,0,-1
 696 -301 l 1,1,-1
 291 -301 l 1,2,-1
 291 -200 l 1,3,-1
 497 -200 l 1,4,-1
 497 0 l 1,5,-1
 98 0 l 1,6,-1
 98 741 l 1,7,-1
 696 741 l 1,8,-1
 696 100 l 1,9,-1
 696 0 l 1,0,-1
497 641 m 1,10,-1
 298 641 l 1,11,-1
 298 100 l 1,12,-1
 497 100 l 1,13,-1
 497 641 l 1,10,-1
232 892 m 1,14,-1
 232 941 l 1,15,-1
 292 941 l 1,16,-1
 292 1155 l 1,17,-1
 565 1155 l 1,18,-1
 565 1044 l 1,19,-1
 468 1044 l 1,20,-1
 468 1106 l 1,21,-1
 389 1106 l 1,22,-1
 389 941 l 1,23,-1
 565 941 l 1,24,-1
 565 892 l 1,25,-1
 232 892 l 1,14,-1
EndSplineSet
EndChar
StartChar: wawwithhamzaabovefinal
Encoding: 65158 65158 285
Width: 816
GlyphClass: 2
Flags: W
AnchorPoint: "ArabicBelow" 408 -456 basechar 0
AnchorPoint: "ArabicAbove" 444 1212 basechar 0
Fore
686 0 m 1,0,-1
 686 -301 l 1,1,-1
 281 -301 l 1,2,-1
 281 -200 l 1,3,-1
 487 -200 l 1,4,-1
 487 0 l 1,5,-1
 88 0 l 1,6,-1
 88 741 l 1,7,-1
 686 741 l 1,8,-1
 686 100 l 1,9,-1
 817 100 l 1,10,-1
 817 0 l 1,11,-1
 686 0 l 1,0,-1
487 641 m 1,12,-1
 288 641 l 1,13,-1
 288 100 l 1,14,-1
 487 100 l 1,15,-1
 487 641 l 1,12,-1
222 892 m 1,16,-1
 222 941 l 1,17,-1
 282 941 l 1,18,-1
 282 1155 l 1,19,-1
 555 1155 l 1,20,-1
 555 1044 l 1,21,-1
 458 1044 l 1,22,-1
 458 1106 l 1,23,-1
 380 1106 l 1,24,-1
 380 941 l 1,25,-1
 555 941 l 1,26,-1
 555 892 l 1,27,-1
 222 892 l 1,16,-1
EndSplineSet
EndChar
StartChar: alefwithhamzabelowisolated
Encoding: 65159 65159 286
Width: 370
GlyphClass: 2
Flags: W
AnchorPoint: "ArabicBelow" 180 -456 basechar 0
AnchorPoint: "ArabicAbove" 240 1476 basechar 0
Fore
98 0 m 1,0,-1
 98 1403 l 1,1,-1
 303 1403 l 1,2,-1
 303 0 l 1,3,-1
 98 0 l 1,0,-1
35 -322 m 1,4,-1
 35 -272 l 1,5,-1
 96 -272 l 1,6,-1
 96 -60 l 1,7,-1
 368 -60 l 1,8,-1
 368 -171 l 1,9,-1
 271 -171 l 1,10,-1
 271 -108 l 1,11,-1
 192 -108 l 1,12,-1
 192 -272 l 1,13,-1
 368 -272 l 1,14,-1
 368 -322 l 1,15,-1
 35 -322 l 1,4,-1
EndSplineSet
EndChar
StartChar: alefwithhamzabelowfinal
Encoding: 65160 65160 287
Width: 508
GlyphClass: 2
Flags: W
AnchorPoint: "ArabicBelow" 264 -468 basechar 0
AnchorPoint: "ArabicAbove" 360 1476 basechar 0
Fore
150 0 m 1,0,-1
 150 1403 l 1,1,-1
 356 1403 l 1,2,-1
 356 100 l 1,3,-1
 509 100 l 1,4,-1
 509 0 l 1,5,-1
 150 0 l 1,0,-1
88 -322 m 1,6,-1
 88 -272 l 1,7,-1
 149 -272 l 1,8,-1
 149 -60 l 1,9,-1
 421 -60 l 1,10,-1
 421 -171 l 1,11,-1
 323 -171 l 1,12,-1
 323 -108 l 1,13,-1
 245 -108 l 1,14,-1
 245 -272 l 1,15,-1
 421 -272 l 1,16,-1
 421 -322 l 1,17,-1
 88 -322 l 1,6,-1
EndSplineSet
EndChar
StartChar: yehwithhamzaaboveisolated
Encoding: 65161 65161 288
Width: 1190
GlyphClass: 2
Flags: W
AnchorPoint: "ArabicBelow" 624 -144 basechar 0
AnchorPoint: "ArabicAbove" 672 936 basechar 0
Fore
98 0 m 1,0,-1
 98 50 l 1,1,-1
 98 601 l 1,2,-1
 298 601 l 1,3,-1
 298 100 l 1,4,-1
 912 100 l 1,5,-1
 912 360 l 1,6,-1
 589 360 l 1,7,-1
 589 802 l 1,8,-1
 789 802 l 1,9,-1
 1113 802 l 1,10,-1
 1113 701 l 1,11,-1
 940 701 l 1,12,-1
 789 701 l 1,13,-1
 789 461 l 1,14,-1
 846 461 l 1,15,-1
 905 461 l 1,16,-1
 1113 461 l 1,17,-1
 1113 0 l 1,18,-1
 98 0 l 1,0,-1
47 727 m 1,19,-1
 47 776 l 1,20,-1
 108 776 l 1,21,-1
 108 990 l 1,22,-1
 381 990 l 1,23,-1
 381 879 l 1,24,-1
 283 879 l 1,25,-1
 283 940 l 1,26,-1
 205 940 l 1,27,-1
 205 776 l 1,28,-1
 381 776 l 1,29,-1
 381 727 l 1,30,-1
 47 727 l 1,19,-1
EndSplineSet
EndChar
StartChar: yehwithhamzaabovefinal
Encoding: 65162 65162 289
Width: 1597
GlyphClass: 2
Flags: W
AnchorPoint: "ArabicBelow" 660 -144 basechar 0
AnchorPoint: "ArabicAbove" 672 984 basechar 0
Fore
356 727 m 1,0,-1
 88 727 l 1,1,-1
 88 776 l 1,2,-1
 149 776 l 1,3,-1
 149 990 l 1,4,-1
 421 990 l 1,5,-1
 421 879 l 1,6,-1
 323 879 l 1,7,-1
 323 940 l 1,8,-1
 245 940 l 1,9,-1
 245 776 l 1,10,-1
 421 776 l 1,11,-1
 421 727 l 1,12,-1
 356 727 l 1,0,-1
122 0 m 1,13,-1
 122 601 l 1,14,-1
 323 601 l 1,15,-1
 323 100 l 1,16,-1
 937 100 l 1,17,-1
 937 360 l 1,18,-1
 613 360 l 1,19,-1
 613 802 l 1,20,-1
 1498 802 l 1,21,-1
 1498 100 l 1,22,-1
 1598 100 l 1,23,-1
 1598 0 l 1,24,-1
 1297 0 l 1,25,-1
 1297 701 l 1,26,-1
 814 701 l 1,27,-1
 814 461 l 1,28,-1
 1137 461 l 1,29,-1
 1137 0 l 1,30,-1
 122 0 l 1,13,-1
EndSplineSet
EndChar
StartChar: yehwithhamzaaboveinitial
Encoding: 65163 65163 290
Width: 638
GlyphClass: 2
Flags: W
AnchorPoint: "ArabicBelow" 252 -132 basechar 0
AnchorPoint: "ArabicAbove" 348 1212 basechar 0
Fore
551 0 m 1,0,-1
 0 0 l 1,1,-1
 0 100 l 1,2,-1
 351 100 l 1,3,-1
 351 802 l 1,4,-1
 551 802 l 1,5,-1
 551 0 l 1,0,-1
83 892 m 1,6,-1
 83 941 l 1,7,-1
 143 941 l 1,8,-1
 143 1155 l 1,9,-1
 417 1155 l 1,10,-1
 417 1044 l 1,11,-1
 318 1044 l 1,12,-1
 318 1106 l 1,13,-1
 240 1106 l 1,14,-1
 240 941 l 1,15,-1
 417 941 l 1,16,-1
 417 892 l 1,17,-1
 83 892 l 1,6,-1
EndSplineSet
EndChar
StartChar: yehwithhamzaabovemedial
Encoding: 65164 65164 291
Width: 660
GlyphClass: 2
Flags: W
AnchorPoint: "ArabicBelow" 228 -156 basechar 0
AnchorPoint: "ArabicAbove" 264 1260 basechar 0
Fore
661 0 m 1,0,-1
 0 0 l 1,1,-1
 0 100 l 1,2,-1
 351 100 l 1,3,-1
 351 802 l 1,4,-1
 551 802 l 1,5,-1
 551 100 l 1,6,-1
 661 100 l 1,7,-1
 661 0 l 1,0,-1
63 892 m 1,8,-1
 63 941 l 1,9,-1
 123 941 l 1,10,-1
 123 1155 l 1,11,-1
 396 1155 l 1,12,-1
 396 1044 l 1,13,-1
 298 1044 l 1,14,-1
 298 1106 l 1,15,-1
 221 1106 l 1,16,-1
 221 941 l 1,17,-1
 396 941 l 1,18,-1
 396 892 l 1,19,-1
 63 892 l 1,8,-1
EndSplineSet
EndChar
StartChar: alefisolated
Encoding: 65165 65165 292
Width: 378
GlyphClass: 2
Flags: W
AnchorPoint: "ArabicBelow" 204 -156 basechar 0
AnchorPoint: "ArabicAbove" 204 1512 basechar 0
Fore
98 0 m 1,0,-1
 98 1403 l 1,1,-1
 303 1403 l 1,2,-1
 303 0 l 1,3,-1
 98 0 l 1,0,-1
EndSplineSet
EndChar
StartChar: aleffinal
Encoding: 65166 65166 293
Width: 381
GlyphClass: 2
Flags: W
AnchorPoint: "ArabicBelow" 180 -156 basechar 0
AnchorPoint: "ArabicAbove" 252 1500 basechar 0
Fore
88 0 m 1,0,-1
 88 1403 l 1,1,-1
 294 1403 l 1,2,-1
 294 100 l 1,3,-1
 381 100 l 1,4,-1
 381 0 l 1,5,-1
 88 0 l 1,0,-1
EndSplineSet
EndChar
StartChar: behisolated
Encoding: 65167 65167 294
Width: 875
GlyphClass: 2
Flags: W
AnchorPoint: "ArabicBelow" 456 -420 basechar 0
AnchorPoint: "ArabicAbove" 468 936 basechar 0
Fore
799 0 m 1,0,-1
 98 0 l 1,1,-1
 98 802 l 1,2,-1
 298 802 l 1,3,-1
 298 100 l 1,4,-1
 599 100 l 1,5,-1
 599 802 l 1,6,-1
 799 802 l 1,7,-1
 799 0 l 1,0,-1
345 -111 m 1,8,-1
 545 -111 l 1,9,-1
 545 -261 l 1,10,-1
 345 -261 l 1,11,-1
 345 -111 l 1,8,-1
EndSplineSet
EndChar
StartChar: behfinal
Encoding: 65168 65168 295
Width: 891
GlyphClass: 2
Flags: W
AnchorPoint: "ArabicBelow" 468 -432 basechar 0
AnchorPoint: "ArabicAbove" 432 924 basechar 0
Fore
891 0 m 1,0,-1
 88 0 l 1,1,-1
 88 802 l 1,2,-1
 288 802 l 1,3,-1
 288 100 l 1,4,-1
 589 100 l 1,5,-1
 589 802 l 1,6,-1
 789 802 l 1,7,-1
 789 100 l 1,8,-1
 891 100 l 1,9,-1
 891 0 l 1,0,-1
335 -111 m 1,10,-1
 535 -111 l 1,11,-1
 535 -261 l 1,12,-1
 335 -261 l 1,13,-1
 335 -111 l 1,10,-1
EndSplineSet
EndChar
StartChar: behinitial
Encoding: 65169 65169 296
Width: 638
GlyphClass: 2
Flags: W
AnchorPoint: "ArabicBelow" 240 -408 basechar 0
AnchorPoint: "ArabicAbove" 372 888 basechar 0
Fore
551 0 m 1,0,-1
 0 0 l 1,1,-1
 0 100 l 1,2,-1
 351 100 l 1,3,-1
 351 802 l 1,4,-1
 551 802 l 1,5,-1
 551 0 l 1,0,-1
126 -111 m 1,6,-1
 326 -111 l 1,7,-1
 326 -261 l 1,8,-1
 126 -261 l 1,9,-1
 126 -111 l 1,6,-1
EndSplineSet
EndChar
StartChar: behmedial
Encoding: 65170 65170 297
Width: 660
GlyphClass: 2
Flags: W
AnchorPoint: "ArabicBelow" 276 -480 basechar 0
AnchorPoint: "ArabicAbove" 396 900 basechar 0
Fore
661 0 m 1,0,-1
 0 0 l 1,1,-1
 0 100 l 1,2,-1
 351 100 l 1,3,-1
 351 802 l 1,4,-1
 551 802 l 1,5,-1
 551 100 l 1,6,-1
 661 100 l 1,7,-1
 661 0 l 1,0,-1
126 -111 m 1,8,-1
 326 -111 l 1,9,-1
 326 -261 l 1,10,-1
 126 -261 l 1,11,-1
 126 -111 l 1,8,-1
EndSplineSet
EndChar
StartChar: tehmarbutaisolated
Encoding: 65171 65171 298
Width: 773
GlyphClass: 2
Flags: W
AnchorPoint: "ArabicBelow" 372 -132 basechar 0
AnchorPoint: "ArabicAbove" 420 1128 basechar 0
Fore
98 0 m 1,0,-1
 98 741 l 1,1,-1
 696 741 l 1,2,-1
 696 0 l 1,3,-1
 98 0 l 1,0,-1
497 641 m 1,4,-1
 298 641 l 1,5,-1
 298 100 l 1,6,-1
 497 100 l 1,7,-1
 497 641 l 1,4,-1
157 1056 m 1,8,-1
 358 1056 l 1,9,-1
 358 906 l 1,10,-1
 157 906 l 1,11,-1
 157 1056 l 1,8,-1
424 1056 m 1,12,-1
 624 1056 l 1,13,-1
 624 906 l 1,14,-1
 424 906 l 1,15,-1
 424 1056 l 1,12,-1
EndSplineSet
EndChar
StartChar: tehmarbutafinal
Encoding: 65172 65172 299
Width: 836
GlyphClass: 2
Flags: W
AnchorPoint: "ArabicBelow" 360 -144 basechar 0
AnchorPoint: "ArabicAbove" 384 1140 basechar 0
Fore
837 0 m 1,0,-1
 88 0 l 1,1,-1
 88 741 l 1,2,-1
 686 741 l 1,3,-1
 686 100 l 1,4,-1
 837 100 l 1,5,-1
 837 0 l 1,0,-1
487 641 m 1,6,-1
 288 641 l 1,7,-1
 288 100 l 1,8,-1
 487 100 l 1,9,-1
 487 641 l 1,6,-1
148 1056 m 1,10,-1
 348 1056 l 1,11,-1
 348 906 l 1,12,-1
 148 906 l 1,13,-1
 148 1056 l 1,10,-1
414 1056 m 1,14,-1
 614 1056 l 1,15,-1
 614 906 l 1,16,-1
 414 906 l 1,17,-1
 414 1056 l 1,14,-1
EndSplineSet
EndChar
